<svg width="50" height="50" fill="none" xmlns="http://www.w3.org/2000/svg"><path d="M25 50c13.807 0 25-11.193 25-25S38.807 0 25 0 0 11.193 0 25s11.193 25 25 25Z" fill="#4B6049"/><path fill-rule="evenodd" clip-rule="evenodd" d="M25 11.133a8.943 8.943 0 0 0-6.223 2.498 8.4 8.4 0 0 0-2.577 6.033c0 1.076.54 2.826 1.48 4.98.919 2.108 2.152 4.452 3.397 6.652a148.624 148.624 0 0 0 4.036 6.693 149.833 149.833 0 0 0 3.93-6.684c1.213-2.2 2.416-4.545 3.313-6.652.916-2.154 1.444-3.908 1.444-4.99a8.4 8.4 0 0 0-2.577-6.032A8.943 8.943 0 0 0 25 11.133Zm.125 28.88-.925.577v-.001l-.03-.045a149.715 149.715 0 0 1-1.551-2.418 150.756 150.756 0 0 1-3.47-5.804c-1.262-2.23-2.535-4.645-3.496-6.846-.94-2.153-1.653-4.26-1.653-5.812 0-2.828 1.159-5.54 3.222-7.54C19.285 10.123 22.082 9 25 9c2.917 0 5.715 1.123 7.778 3.123 2.063 2 3.222 4.713 3.222 7.54 0 1.546-.694 3.65-1.61 5.803-.937 2.2-2.177 4.615-3.407 6.845a151.688 151.688 0 0 1-4.813 8.093l-.058.09-.025.04-.022.033-.008.012-.932-.566Zm0 0 .932.566-.92 1.421-.936-1.41.924-.578Z" fill="#FFFBF5"/><path fill-rule="evenodd" clip-rule="evenodd" d="M25 16a3 3 0 1 0 0 6 3 3 0 0 0 0-6Zm-5 3a5 5 0 1 1 10 0 5 5 0 0 1-10 0Z" fill="#FFFBF5"/></svg>