<svg width="84" height="34" fill="none" xmlns="http://www.w3.org/2000/svg"><g clip-path="url('#clip0_459_5176')"><path d="M15.718 4.376c-.968 1.146-2.518 2.05-4.068 1.92-.194-1.55.565-3.196 1.453-4.213C14.072.904 15.767.065 17.139 0c.162 1.615-.468 3.197-1.42 4.376Zm1.405 2.228c-2.244-.13-4.166 1.275-5.231 1.275-1.082 0-2.713-1.21-4.489-1.178-2.309.032-4.456 1.34-5.635 3.423-2.422 4.165-.63 10.333 1.712 13.724 1.146 1.679 2.519 3.52 4.327 3.455 1.711-.065 2.39-1.114 4.456-1.114 2.083 0 2.68 1.114 4.489 1.081 1.873-.032 3.051-1.679 4.198-3.358 1.308-1.905 1.84-3.762 1.873-3.859-.033-.032-3.617-1.404-3.65-5.538-.032-3.455 2.826-5.102 2.955-5.199-1.614-2.39-4.133-2.648-5.005-2.712ZM30.088 1.92v25.172h3.908v-8.606h5.408c4.941 0 8.412-3.39 8.412-8.299 0-4.908-3.406-8.267-8.282-8.267h-9.446Zm3.908 3.294H38.5c3.39 0 5.328 1.808 5.328 4.99 0 3.18-1.937 5.005-5.344 5.005h-4.488V5.215Zm20.957 22.072c2.454 0 4.73-1.244 5.764-3.213h.08v3.019h3.618v-12.53c0-3.632-2.907-5.973-7.38-5.973-4.149 0-7.216 2.373-7.33 5.635h3.52c.291-1.55 1.728-2.568 3.698-2.568 2.39 0 3.73 1.114 3.73 3.165v1.389l-4.877.29c-4.537.275-6.99 2.131-6.99 5.36 0 3.262 2.534 5.426 6.167 5.426Zm1.05-2.987c-2.083 0-3.407-1.001-3.407-2.535 0-1.583 1.275-2.503 3.713-2.648l4.344-.275v1.421c0 2.357-2.003 4.037-4.65 4.037Zm13.24 9.639c3.81 0 5.602-1.453 7.168-5.861l6.862-19.246h-3.972L74.7 23.702h-.08l-4.602-14.87h-4.085l6.62 18.325-.355 1.114c-.597 1.89-1.566 2.616-3.294 2.616-.307 0-.904-.032-1.146-.064v3.019c.226.065 1.194.097 1.485.097Z" fill="#BCBCBC"/></g><defs><clipPath id="clip0_459_5176"><path fill="#fff" transform="translate(.605)" d="M0 0h82.667v33.939H0z"/></clipPath></defs></svg>