<svg width="83" height="34" fill="none" xmlns="http://www.w3.org/2000/svg"><g clip-path="url('#clip0_6_7491')"><path d="M15.446 4.376c-.969 1.146-2.519 2.05-4.069 1.92-.194-1.55.565-3.196 1.453-4.213C13.8.904 15.494.065 16.867 0c.161 1.615-.469 3.197-1.421 4.376Zm1.405 2.228c-2.245-.13-4.166 1.275-5.232 1.275-1.081 0-2.712-1.21-4.488-1.178-2.31.032-4.457 1.34-5.635 3.423-2.422 4.165-.63 10.333 1.711 13.724 1.147 1.679 2.52 3.52 4.327 3.455 1.712-.065 2.39-1.114 4.457-1.114 2.082 0 2.68 1.114 4.488 1.081 1.873-.032 3.052-1.679 4.198-3.358 1.308-1.905 1.84-3.762 1.873-3.859-.032-.032-3.617-1.404-3.649-5.538-.032-3.455 2.826-5.102 2.955-5.199-1.615-2.39-4.134-2.648-5.005-2.712ZM29.816 1.92v25.172h3.907v-8.606h5.41c4.94 0 8.411-3.39 8.411-8.299 0-4.908-3.407-8.267-8.283-8.267h-9.445Zm3.907 3.294h4.505c3.39 0 5.328 1.809 5.328 4.99 0 3.18-1.937 5.005-5.344 5.005h-4.489V5.215Zm20.958 22.072c2.454 0 4.73-1.243 5.764-3.213h.08v3.019h3.617v-12.53c0-3.632-2.906-5.973-7.378-5.973-4.15 0-7.218 2.373-7.33 5.635h3.519c.29-1.55 1.728-2.568 3.697-2.568 2.39 0 3.73 1.114 3.73 3.165v1.389l-4.876.29c-4.537.275-6.991 2.131-6.991 5.36 0 3.262 2.535 5.426 6.168 5.426Zm1.05-2.987c-2.084 0-3.408-1.001-3.408-2.535 0-1.582 1.276-2.503 3.714-2.648l4.343-.275v1.421c0 2.357-2.002 4.037-4.65 4.037Zm13.239 9.639c3.81 0 5.603-1.453 7.169-5.861L83 8.832h-3.972l-4.602 14.87h-.08l-4.602-14.87H65.66l6.62 18.325-.355 1.115c-.598 1.889-1.567 2.615-3.294 2.615-.307 0-.904-.032-1.147-.064v3.019c.227.065 1.195.097 1.486.097Z" fill="#000"/></g><defs><clipPath id="clip0_6_7491"><path fill="#fff" transform="translate(.333)" d="M0 0h82.667v33.939H0z"/></clipPath></defs></svg>