<svg width="40" height="40" fill="none" xmlns="http://www.w3.org/2000/svg"><path d="M20 40c11.046 0 20-8.954 20-20S31.046 0 20 0 0 8.954 0 20s8.954 20 20 20Z" fill="#4B6049"/><path d="M24.667 15.977v-1.97a4.68 4.68 0 0 0-2.88-4.318 4.66 4.66 0 0 0-6.098 2.53 4.68 4.68 0 0 0-.355 1.788v4.674a.668.668 0 0 0 1.138.472.668.668 0 0 0 .195-.472v-1.369H22v-1.335h-5.333v-1.97c0-.885.351-1.734.976-2.36a3.33 3.33 0 0 1 5.69 2.36v4.64a.668.668 0 0 0 1.139.473.668.668 0 0 0 .195-.472v-1.336H28v12.02H12v-12.02h2v-1.335h-3.333v13.414a1.276 1.276 0 0 0 1.273 1.276h16.12a1.273 1.273 0 0 0 1.274-1.276V15.977h-4.667Z" fill="#FFFBF5"/></svg>