<svg width="50" height="50" fill="none" xmlns="http://www.w3.org/2000/svg"><path d="M25 50c13.807 0 25-11.193 25-25S38.807 0 25 0 0 11.193 0 25s11.193 25 25 25Z" fill="#4B6049"/><path fill-rule="evenodd" clip-rule="evenodd" d="M11.855 15.273a1.59 1.59 0 0 0-1.587 1.59v17.273c0 .879.71 1.591 1.587 1.591h27.29a1.59 1.59 0 0 0 1.587-1.59V16.863c0-.879-.71-1.591-1.587-1.591h-27.29ZM8 16.863A3.86 3.86 0 0 1 11.855 13h27.29A3.86 3.86 0 0 1 43 16.864v17.272A3.86 3.86 0 0 1 39.145 38h-27.29A3.86 3.86 0 0 1 8 34.136V16.864Z" fill="#FFFBF5"/><path fill-rule="evenodd" clip-rule="evenodd" d="M11.416 13.684h28.538a2.147 2.147 0 0 1 2.044 1.438 2.16 2.16 0 0 1-.69 2.404l-14.27 11.598-.713-.883.713.883a2.147 2.147 0 0 1-2.706 0l-14.27-11.598a2.154 2.154 0 0 1-.69-2.404 2.154 2.154 0 0 1 2.044-1.438Zm14.269 13.614 13.952-11.341H11.733l13.952 11.34Z" fill="#FFFBF5"/></svg>