<svg width="50" height="50" fill="none" xmlns="http://www.w3.org/2000/svg"><path d="M49.5 25c0 13.531-10.969 24.5-24.5 24.5S.5 38.531.5 25 11.469.5 25 .5 49.5 11.469 49.5 25Z" stroke="#4B6049"/><path fill-rule="evenodd" clip-rule="evenodd" d="M16.429 12.143a4.286 4.286 0 0 0-4.286 4.286V33.57a4.286 4.286 0 0 0 4.286 4.286H33.57a4.286 4.286 0 0 0 4.286-4.286V16.43a4.286 4.286 0 0 0-4.286-4.286H16.43ZM10 16.429A6.429 6.429 0 0 1 16.429 10H33.57A6.429 6.429 0 0 1 40 16.429V33.57A6.429 6.429 0 0 1 33.571 40H16.43A6.429 6.429 0 0 1 10 33.571V16.43Z" fill="#4B6049"/><path fill-rule="evenodd" clip-rule="evenodd" d="M25 19.643a5.357 5.357 0 1 0 0 10.714 5.357 5.357 0 0 0 0-10.714ZM17.5 25a7.5 7.5 0 1 1 15 0 7.5 7.5 0 0 1-15 0ZM33.438 16a.562.562 0 1 0 0 1.125.562.562 0 0 0 0-1.125Zm-2.813.563a2.813 2.813 0 1 1 5.625 0 2.813 2.813 0 0 1-5.625 0Z" fill="#4B6049"/></svg>