<svg width="231" height="135" fill="none" xmlns="http://www.w3.org/2000/svg"><path d="M104.42 89.69V77.42h.524v6.708c.294-.6.752-1.08 1.374-1.44a3.917 3.917 0 0 1 1.963-.54c1.08 0 1.996.382 2.749 1.145.763.753 1.145 1.658 1.145 2.716 0 1.058-.382 1.969-1.145 2.732-.753.753-1.669 1.129-2.749 1.129-.654 0-1.292-.175-1.914-.523a3.679 3.679 0 0 1-1.423-1.44v1.783h-.524Zm.491-3.665c0 .917.333 1.713.998 2.389.676.665 1.472.998 2.388.998.927 0 1.718-.333 2.373-.998.654-.676.981-1.472.981-2.389 0-.927-.332-1.728-.998-2.404-.654-.677-1.439-1.015-2.356-1.015-.916 0-1.712.344-2.388 1.03-.665.677-.998 1.473-.998 2.39Zm12.504 3.861h-.147c-1.036 0-1.941-.387-2.716-1.161-.763-.785-1.145-1.696-1.145-2.732 0-1.036.382-1.93 1.145-2.683.764-.764 1.707-1.146 2.831-1.146 1.123 0 2.088.448 2.895 1.342l-5.137 5.072c.709.567 1.391.85 2.045.85.655 0 1.238-.147 1.751-.441a3.925 3.925 0 0 0 1.292-1.211v.834c-.774.851-1.712 1.276-2.814 1.276Zm-.18-7.263c-.861 0-1.63.338-2.306 1.014-.666.665-.998 1.434-.998 2.307 0 .872.289 1.636.867 2.29l4.761-4.728c-.677-.589-1.451-.883-2.324-.883Zm11.945-.295v7.362h-.523v-1.832a3.444 3.444 0 0 1-1.375 1.472c-.61.36-1.265.54-1.963.54a3.774 3.774 0 0 1-2.748-1.129c-.764-.763-1.145-1.674-1.145-2.732 0-1.058.381-1.963 1.145-2.716.763-.763 1.679-1.145 2.748-1.145.698 0 1.364.186 1.996.556.644.371 1.091.862 1.342 1.473v-1.849h.523Zm-7.231 3.697c0 .917.333 1.713.998 2.389.676.665 1.472.998 2.389.998.927 0 1.717-.333 2.372-.998.654-.676.981-1.472.981-2.389 0-.927-.332-1.728-.998-2.404-.654-.677-1.439-1.015-2.355-1.015-.917 0-1.713.344-2.389 1.03-.665.677-.998 1.473-.998 2.39Zm15.122-3.697h.524v7.362h-.524v-1.489c-.556 1.113-1.505 1.669-2.846 1.669-.917 0-1.685-.316-2.307-.949-.622-.632-.933-1.401-.933-2.307v-4.286h.524v4.286c0 .753.262 1.407.785 1.964.535.556 1.178.834 1.931.834.752 0 1.412-.278 1.979-.834.578-.557.867-1.211.867-1.964v-4.286Zm4.956 7.002v.458c-.775 0-1.434-.256-1.98-.769-.545-.523-.818-1.189-.818-1.996v-7.656h.524v2.977h2.257v.459h-2.257v4.22c0 .666.218 1.217.654 1.653.447.436.987.654 1.62.654Zm7.234-7.002h.524v7.133c0 .97-.338 1.794-1.014 2.47-.677.677-1.506 1.015-2.487 1.015-1.178 0-2.111-.453-2.798-1.358l.033-.818c.305.523.704.938 1.194 1.243a2.905 2.905 0 0 0 1.571.475c.807 0 1.505-.295 2.094-.884a2.826 2.826 0 0 0 .883-2.094v-1.243c-.534 1.069-1.467 1.603-2.797 1.603-.905 0-1.68-.316-2.323-.949-.644-.643-.966-1.412-.966-2.307v-4.286h.524v4.286c0 .753.273 1.407.818 1.964.556.556 1.211.834 1.963.834.753 0 1.402-.278 1.947-.834.556-.557.834-1.211.834-1.964v-4.286Zm10.839 7.051v.458c-.774 0-1.434-.256-1.979-.769-.546-.523-.818-1.188-.818-1.995V77.42h.523v9.653c0 .665.218 1.216.655 1.652.447.436.987.654 1.619.654Zm7.999-7.051v7.362h-.523v-1.832a3.444 3.444 0 0 1-1.375 1.472c-.61.36-1.265.54-1.963.54a3.774 3.774 0 0 1-2.748-1.129c-.764-.763-1.145-1.674-1.145-2.732 0-1.058.381-1.963 1.145-2.716.763-.763 1.679-1.145 2.748-1.145.698 0 1.364.186 1.996.556.644.371 1.091.862 1.342 1.473v-1.849h.523Zm-7.231 3.697c0 .917.333 1.713.998 2.389.676.665 1.472.998 2.389.998.927 0 1.717-.333 2.372-.998.654-.676.981-1.472.981-2.389 0-.927-.332-1.728-.998-2.404-.654-.677-1.439-1.015-2.355-1.015-.917 0-1.713.344-2.389 1.03-.665.677-.998 1.473-.998 2.39Zm9.2 3.665V77.42h.523v6.708c.295-.6.753-1.08 1.375-1.44a3.917 3.917 0 0 1 1.963-.54c1.08 0 1.996.382 2.748 1.145.764.753 1.146 1.658 1.146 2.716 0 1.058-.382 1.969-1.146 2.732-.752.753-1.668 1.129-2.748 1.129-.654 0-1.293-.175-1.914-.523a3.688 3.688 0 0 1-1.424-1.44v1.783h-.523Zm.491-3.665c0 .917.332 1.713.998 2.389.676.665 1.472.998 2.388.998.927 0 1.718-.333 2.372-.998.655-.676.982-1.472.982-2.389 0-.927-.333-1.728-.998-2.404-.654-.677-1.44-1.015-2.356-1.015-.916 0-1.712.344-2.388 1.03-.666.677-.998 1.473-.998 2.39Zm12.243 3.845c-1.047 0-1.947-.387-2.7-1.162-.752-.785-1.129-1.695-1.129-2.732 0-1.036.382-1.93 1.146-2.683.763-.763 1.679-1.145 2.748-1.145 1.08 0 1.996.382 2.748 1.145.764.753 1.146 1.653 1.146 2.7 0 1.036-.371 1.941-1.113 2.716-.741.774-1.641 1.161-2.699 1.161h-.147Zm3.435-3.845c0-.927-.332-1.728-.998-2.404-.654-.677-1.439-1.015-2.356-1.015-.916 0-1.712.344-2.388 1.03-.666.677-.998 1.473-.998 2.39 0 .916.332 1.712.998 2.388.676.665 1.472.998 2.388.998.927 0 1.718-.333 2.373-.998.654-.676.981-1.472.981-2.389Zm6.379-2.699c-.48-.48-1.009-.72-1.587-.72-.578 0-1.091.218-1.538.655-.436.436-.654.943-.654 1.521v4.908h-.524v-7.362h.524v1.096c.196-.37.501-.676.916-.916.414-.24.878-.36 1.391-.36.512 0 1.003.175 1.472.524v.654Zm8.731-.998v7.362h-.524v-1.832a3.436 3.436 0 0 1-1.374 1.472c-.611.36-1.265.54-1.963.54-1.069 0-1.985-.376-2.749-1.129-.763-.763-1.145-1.674-1.145-2.732 0-1.058.382-1.963 1.145-2.716.764-.763 1.68-1.145 2.749-1.145a3.89 3.89 0 0 1 1.996.556c.643.371 1.09.862 1.341 1.473v-1.849h.524Zm-7.232 3.697c0 .917.333 1.713.998 2.389.677.665 1.473.998 2.389.998.927 0 1.718-.333 2.372-.998.655-.676.982-1.472.982-2.389 0-.927-.333-1.728-.998-2.404-.655-.677-1.44-1.015-2.356-1.015-.916 0-1.712.344-2.389 1.03-.665.677-.998 1.473-.998 2.39Zm11.834 3.305v.458c-.774 0-1.434-.256-1.979-.769-.546-.523-.818-1.189-.818-1.996v-7.656h.523v2.977h2.258v.459h-2.258v4.22c0 .666.218 1.217.655 1.653.447.436.987.654 1.619.654Zm4.732.54c-1.047 0-1.947-.387-2.7-1.162-.752-.785-1.129-1.695-1.129-2.732 0-1.036.382-1.93 1.146-2.683.763-.763 1.679-1.145 2.748-1.145 1.08 0 1.996.382 2.749 1.145.763.753 1.145 1.653 1.145 2.7 0 1.036-.371 1.941-1.113 2.716-.741.774-1.641 1.161-2.699 1.161h-.147Zm3.435-3.845c0-.927-.332-1.728-.998-2.404-.654-.677-1.439-1.015-2.355-1.015-.917 0-1.713.344-2.389 1.03-.665.677-.998 1.473-.998 2.39 0 .916.333 1.712.998 2.388.676.665 1.472.998 2.389.998.927 0 1.717-.333 2.372-.998.654-.676.981-1.472.981-2.389Zm6.379-2.699c-.48-.48-1.009-.72-1.587-.72-.578 0-1.091.218-1.538.655-.436.436-.654.943-.654 1.521v4.908h-.524v-7.362h.524v1.096c.196-.37.502-.676.916-.916.415-.24.878-.36 1.391-.36.512 0 1.003.175 1.472.524v.654Zm7.307-.998h.524v7.133c0 .97-.338 1.794-1.014 2.47-.677.677-1.506 1.015-2.487 1.015-1.178 0-2.111-.453-2.798-1.358l.033-.818c.305.523.703.938 1.194 1.243a2.905 2.905 0 0 0 1.571.475c.807 0 1.505-.295 2.094-.884a2.826 2.826 0 0 0 .883-2.094v-1.243c-.534 1.069-1.467 1.603-2.797 1.603-.905 0-1.68-.316-2.323-.949-.644-.643-.966-1.412-.966-2.307v-4.286h.524v4.286c0 .753.273 1.407.818 1.964.556.556 1.211.834 1.963.834.753 0 1.402-.278 1.947-.834.556-.557.834-1.211.834-1.964v-4.286ZM60.63 44.25l14.022 28.72h-1.309l-5.31-10.695H53.038L47.803 72.97h-1.16L60.63 44.25Zm-.113 2.581-6.993 14.36h14.06l-7.067-14.36Zm18.046-1.907h10.06v1.084h-8.826v15.257h7.367v1.085h-7.367v9.535h8.826v1.085h-10.06V44.924Zm25.097 3.964a6.402 6.402 0 0 0-2.356-2.468c-.972-.599-2.069-.898-3.29-.898-1.222 0-2.269.387-3.141 1.16-.848.747-1.272 1.782-1.272 3.103v.187c0 1.57.873 3.004 2.618 4.3a31.24 31.24 0 0 0 2.505 1.646 36.934 36.934 0 0 1 2.805 1.72 17.102 17.102 0 0 1 2.543 1.945c.772.673 1.396 1.508 1.869 2.505.499.997.748 2.094.748 3.29v.375c0 2.368-.81 4.25-2.43 5.646-1.596 1.396-3.578 2.094-5.946 2.094-3.116 0-5.535-1.284-7.255-3.851v-2.02A8.611 8.611 0 0 0 93.9 71.1c1.272.873 2.842 1.309 4.712 1.309 1.87 0 3.49-.599 4.861-1.795 1.371-1.197 2.057-2.792 2.057-4.787v-.224c0-1.246-.324-2.38-.972-3.403a8.186 8.186 0 0 0-2.431-2.543 88.872 88.872 0 0 0-3.178-2.094 493.769 493.769 0 0 1-3.179-2.02 8.42 8.42 0 0 1-2.43-2.355 5.383 5.383 0 0 1-.973-3.104v-.261c0-1.745.561-3.08 1.683-4.002 1.122-.922 2.505-1.383 4.15-1.383 2.294 0 4.114.847 5.46 2.543v1.907Zm16.743-3.964v1.084h-6.394V72.97h-1.234V46.008h-6.47v-1.084h14.098Zm24.007 0h1.234V72.97h-1.234V62.275h-19.221V72.97h-1.234V44.924h1.234V61.19h19.221V44.924Zm6.861 0h10.059v1.084h-8.825v15.257h7.366v1.085h-7.366v9.535h8.825v1.085h-10.059V44.924Zm25.844 0v1.084h-6.394V72.97h-1.234V46.008h-6.469v-1.084h14.097Zm3.74 0h1.234V72.97h-1.234V44.924Zm20.692 28.457h-.411c-2.568 0-4.961-.673-7.18-2.02a15.051 15.051 0 0 1-5.273-5.347c-1.271-2.243-1.907-4.624-1.907-7.142 0-3.964 1.434-7.367 4.301-10.209 2.867-2.866 6.294-4.3 10.283-4.3 2.668 0 5.198.698 7.591 2.094v1.384c-2.343-1.596-4.874-2.394-7.591-2.394-3.665 0-6.806 1.322-9.423 3.964-2.618 2.618-3.927 5.771-3.927 9.461 0 3.665 1.309 6.818 3.927 9.46 2.617 2.643 5.758 3.965 9.423 3.965 2.717 0 5.248-.798 7.591-2.394v1.384a13.862 13.862 0 0 1-7.404 2.094Zm23.755-24.493a6.417 6.417 0 0 0-2.356-2.468c-.973-.599-2.069-.898-3.291-.898s-2.269.387-3.141 1.16c-.848.747-1.272 1.782-1.272 3.103v.187c0 1.57.873 3.004 2.618 4.3a31.32 31.32 0 0 0 2.505 1.646 36.624 36.624 0 0 1 2.805 1.72 17.102 17.102 0 0 1 2.543 1.945c.773.673 1.396 1.508 1.87 2.505.498.997.747 2.094.747 3.29v.375c0 2.368-.81 4.25-2.43 5.646-1.596 1.396-3.578 2.094-5.946 2.094-3.116 0-5.534-1.284-7.254-3.851v-2.02a8.606 8.606 0 0 0 2.842 3.478c1.271.873 2.842 1.309 4.711 1.309 1.87 0 3.49-.599 4.862-1.795 1.371-1.197 2.056-2.792 2.056-4.787v-.224c0-1.246-.324-2.38-.972-3.403a8.175 8.175 0 0 0-2.431-2.543 88.302 88.302 0 0 0-3.178-2.094 511.878 511.878 0 0 1-3.179-2.02 8.419 8.419 0 0 1-2.43-2.355 5.385 5.385 0 0 1-.973-3.104v-.261c0-1.745.561-3.08 1.683-4.002 1.122-.922 2.506-1.383 4.151-1.383 2.293 0 4.113.847 5.46 2.543v1.907Z" fill="#FFFBF5"/><path d="M63.312 84.527c-4.83 3.506-9.816 6.855-14.958 9.894-4.986 3.038-10.829 6.31-16.827 4.518-6.077-1.87-8.492-8.335-11.297-13.4-2.804-5.297-5.687-10.517-8.413-15.892-3.35-6.622-6.233-13.79-6.856-21.268-.156-1.48-.078-3.038-.234-4.518-.155-4.519-2.337-8.57-3.661-12.855C-1.74 20.723 1.456 9.972 5.273.312L5.35 0c.467.312 1.012.701 1.402 1.09 10.985 9.817 22.826 18.698 34.98 26.878l.155.156c-.234.078-.545.155-.779.233-3.194.546-6.544 1.091-9.504 2.416-1.87.856-3.584 1.635-4.675 3.194-.623.857-.078 1.714.78 2.259 2.103 1.09 4.674-.234 6.543-1.247 3.74-1.636 7.947-2.726 12.076-2.337 1.791 2.337 3.817 4.674 5.53 7.012l.157.155c-.39.078-.78.078-1.169.234-2.96.78-5.531 2.415-8.414 3.506-1.947.545-4.518.312-6.232 0-1.246-.078-2.57-.234-3.817-.39-3.818-.078-7.635.624-11.374 1.013-3.818.39-7.635.623-11.375 1.247-1.246.233-2.493.545-3.739.7l.156-.934c1.87 1.09 4.05.857 6.076.467 1.403-.156 2.415-.934 3.506-1.636.935-.467 1.948.39 2.26 1.247l-.234.078c.311-3.584-.39-7.401-3.272-9.738-2.338-1.792-5.765-3.117-8.882-3.195-1.168-.078-2.726.468-3.194 1.559-.155.545.468 1.012.935 1.324 1.636 1.09 3.506 1.558 5.376 1.948 3.272.7 6.31 2.103 9.037 3.973.934 2.96 1.558 5.92 1.714 9.037.155 3.817-.39 7.634-1.091 11.452-.312 1.402-1.169 2.882-.468 4.285 1.091 1.947 3.662 2.648 5.765 2.414 1.403-.233 2.727-1.09 3.272-2.415l.546.39c-.701.545-1.558.857-2.415.857-.623-.39-.39-1.169.078-1.558.311-.234.7-.39 1.09-.468 1.325-.311 2.883-.467 4.051.468.546.467.857 1.09 1.48 1.324 1.17.623 2.727-.234 3.195-1.402.545-1.246.078-2.727-.468-3.817-.545 4.985-1.168 12.075-1.558 17.06l-.078-.077c1.558.234 3.116.234 4.597.078 1.714-.078 3.427-.468 5.141-.935-2.96 3.428-6.31 6.7-10.673 8.18-2.804 1.013-6.466 1.09-8.647-1.246-1.169-1.17-1.48-2.805-1.325-4.363 1.792-.156 3.506-.857 5.298-1.325 1.792-.545 3.817-.856 5.687-.39-.623.78-1.636 1.247-2.57 1.481-1.48.39-3.584.234-5.142.312-1.325-.078-2.805.311-3.974-.468-1.168-.935-1.168-2.804-.467-3.973.935-1.714 3.35-2.26 4.986-1.09h-.468a7.786 7.786 0 0 1 2.182-1.325c2.493-.935 5.064.312 7.245 1.325 1.48.7 2.649 1.558 4.285 1.636 1.09.233 2.96.077 3.272 1.402.078.39 0 .779.078 1.246 1.09 7.947 4.206 15.425 7.946 22.437 3.428 10.673 3.662 22.047 3.895 33.187-.311-9.504-.623-19.164-2.882-28.513-.39-3.35-1.948-5.921-3.35-8.881-1.325-2.883-2.415-5.92-3.428-8.96a64.606 64.606 0 0 1-2.337-9.27c-.078-.39-.156-.779-.312-1.168-.311-.857-1.09-.701-1.87-.78-1.246-.077-2.415 0-3.661-.389-2.181-.935-4.363-1.792-6.622-2.337a4.661 4.661 0 0 0-4.129.857l-.234.156-.233-.156c-1.169-.857-3.195-.545-3.896.857-.779 1.246-.311 3.35 1.247 3.272 1.402.078 3.584-.078 4.986-.078 1.636 0 3.35.156 4.674-1.013l.078.312c-3.506-1.013-7.011 1.246-10.44 1.714l.156-.156c-.155 2.181 1.013 4.363 3.273 4.596 6.466 1.48 12.464-2.337 16.515-7.167l.156.312c-3.038.857-6.232 1.012-9.27.545h-.078v-.078c.623-4.83 1.246-12.231 1.791-17.061.702 1.169 1.091 2.57.546 3.895-.468 1.247-2.104 2.181-3.35 1.558-.623-.311-1.013-.935-1.558-1.324-.546-.39-1.169-.468-1.792-.39-.857.078-2.337.39-2.883 1.091l-.233-.078c1.09 0 2.103-.779 2.96-1.402l-.545 1.168c-1.792 3.974-8.102 3.428-10.05-.078-.779-1.558.156-3.116.545-4.518.156-.701.312-1.48.468-2.26.467-3.038.935-6.076.779-9.114-.156-3.038-.857-6.077-1.87-8.881-1.947-.468-4.674-2.337-7.011-2.96-2.727-.858-5.921-1.247-8.025-3.428-.856-.935.39-2.026 1.247-2.338 1.246-.623 2.57-.311 3.895-.155 7.713 1.402 11.686 4.674 10.517 12.932l-.078.311-.233-.311c-.623-.857-1.48-1.247-2.26-.312-1.713 1.636-4.206 1.948-6.466 1.714-1.09-.156-2.259-.312-3.35-.779l-1.558-.857a64.298 64.298 0 0 1 5.532-.234c3.817-.156 7.634-.7 11.374-1.09 2.493-.312 5.064-.39 7.634-.701 2.493-.39 5.064-.857 7.635-1.013 1.948.078 3.973.078 5.765-.312 2.571-.623 5.22-1.48 7.79-1.87.546-.078 1.48-.311 1.948-.467l-.078.234c-1.791-2.337-3.505-4.908-5.297-7.168-1.636 0-3.272 0-4.908.312-2.415.468-4.752 1.325-6.934 2.493-1.48.857-2.882 1.792-4.596 2.026-1.792.39-4.207-.624-4.519-2.727-.078-1.558 1.091-2.727 2.26-3.584 4.05-2.337 8.88-2.726 13.4-3.35.233 0 .389.078.623.078l-.078.156c-11.686-8.102-23.06-16.827-34.2-25.709L6.207 1.17C5.818.857 5.506.545 5.117.234l.39-.078C1.532 9.582-1.428 20.333 1.221 30.539c1.246 4.285 3.505 8.336 3.583 12.932.078 1.48.078 2.96.156 4.44.545 7.48 3.428 14.49 6.7 21.113 2.649 5.297 5.531 10.595 8.336 15.892 2.804 4.986 5.142 11.452 11.14 13.322 5.921 1.714 11.764-1.48 16.75-4.44 5.609-2.416 10.673-6.155 15.425-9.271Z" fill="#FFFBF5"/></svg>