<svg width="246" height="145" fill="none" xmlns="http://www.w3.org/2000/svg"><path d="M111.604 95.76V82.644h.559v7.17c.315-.642.805-1.155 1.469-1.54.676-.384 1.376-.577 2.098-.577 1.154 0 2.134.409 2.938 1.225.816.804 1.224 1.771 1.224 2.902 0 1.13-.408 2.104-1.224 2.92-.804.804-1.784 1.207-2.938 1.207-.699 0-1.381-.187-2.045-.56a3.937 3.937 0 0 1-1.522-1.539v1.906h-.559Zm.524-3.918c0 .98.356 1.83 1.067 2.553.723.712 1.574 1.067 2.553 1.067.991 0 1.836-.356 2.535-1.067.7-.722 1.049-1.573 1.049-2.552 0-.991-.355-1.848-1.066-2.57-.7-.724-1.539-1.085-2.518-1.085-.979 0-1.83.367-2.553 1.102-.711.722-1.067 1.573-1.067 2.552Zm13.365 4.127h-.157c-1.108 0-2.075-.414-2.903-1.241-.816-.84-1.224-1.813-1.224-2.92 0-1.108.408-2.064 1.224-2.868.816-.816 1.825-1.224 3.025-1.224 1.201 0 2.232.478 3.095 1.434l-5.49 5.42c.757.606 1.486.91 2.185.91.7 0 1.323-.158 1.871-.473a4.196 4.196 0 0 0 1.382-1.294v.892c-.828.91-1.83 1.364-3.008 1.364Zm-.192-7.763c-.921 0-1.743.36-2.466 1.084-.711.71-1.066 1.532-1.066 2.465 0 .933.309 1.749.926 2.448l5.089-5.053c-.723-.63-1.551-.944-2.483-.944Zm12.766-.315v7.868h-.559v-1.958a3.68 3.68 0 0 1-1.469 1.574 4.064 4.064 0 0 1-2.098.577c-1.143 0-2.122-.403-2.938-1.207-.816-.816-1.224-1.79-1.224-2.92s.408-2.098 1.224-2.903c.816-.816 1.795-1.224 2.938-1.224.746 0 1.457.199 2.133.595.688.396 1.166.92 1.434 1.574V87.89h.559Zm-7.728 3.951c0 .98.355 1.83 1.066 2.553.723.712 1.574 1.067 2.553 1.067.991 0 1.836-.356 2.536-1.067.699-.722 1.049-1.573 1.049-2.552 0-.991-.356-1.848-1.067-2.57-.699-.724-1.539-1.085-2.518-1.085-.979 0-1.83.367-2.553 1.102-.711.722-1.066 1.573-1.066 2.552Zm16.162-3.951h.56v7.868h-.56v-1.59c-.594 1.188-1.609 1.783-3.042 1.783-.98 0-1.801-.338-2.466-1.014-.664-.677-.996-1.499-.996-2.466v-4.581h.559v4.581c0 .804.28 1.504.839 2.098.572.595 1.259.892 2.064.892.804 0 1.509-.297 2.115-.892.618-.594.927-1.294.927-2.098v-4.581Zm5.297 7.484v.49c-.828 0-1.533-.275-2.116-.823-.583-.56-.874-1.27-.874-2.133v-8.183h.559v3.182h2.413v.49h-2.413v4.511c0 .711.233 1.3.7 1.766.477.466 1.054.7 1.731.7Zm7.732-7.484h.559v7.623c0 1.038-.361 1.918-1.084 2.64-.722.724-1.608 1.085-2.658 1.085-1.258 0-2.255-.484-2.99-1.451l.035-.875c.327.56.752 1.003 1.277 1.33.536.337 1.096.506 1.678.506.863 0 1.609-.314 2.239-.944.629-.618.944-1.364.944-2.238v-1.329c-.571 1.142-1.568 1.714-2.99 1.714a3.414 3.414 0 0 1-2.483-1.014c-.688-.688-1.032-1.51-1.032-2.466v-4.581h.56v4.581c0 .804.291 1.504.874 2.098.595.595 1.294.892 2.098.892.805 0 1.498-.297 2.081-.892.595-.594.892-1.294.892-2.098v-4.581Zm11.584 7.536v.49c-.827 0-1.533-.274-2.116-.822-.582-.56-.874-1.27-.874-2.133V82.645h.56v10.317c0 .71.233 1.3.699 1.766.478.466 1.055.7 1.731.7Zm8.55-7.536v7.868h-.56v-1.958a3.673 3.673 0 0 1-1.469 1.574 4.064 4.064 0 0 1-2.098.577c-1.142 0-2.122-.403-2.938-1.207-.816-.816-1.224-1.79-1.224-2.92s.408-2.098 1.224-2.903c.816-.816 1.796-1.224 2.938-1.224.746 0 1.457.199 2.133.595.688.396 1.166.92 1.434 1.574V87.89h.56Zm-7.729 3.951c0 .98.355 1.83 1.067 2.553.722.712 1.573 1.067 2.552 1.067.991 0 1.836-.356 2.536-1.067.699-.722 1.049-1.573 1.049-2.552 0-.991-.356-1.848-1.067-2.57-.699-.724-1.538-1.085-2.518-1.085-.979 0-1.83.367-2.552 1.102-.712.722-1.067 1.573-1.067 2.552Zm9.833 3.917V82.645h.559v7.17c.315-.642.805-1.155 1.469-1.54.676-.384 1.376-.577 2.098-.577 1.154 0 2.133.409 2.938 1.225.816.804 1.224 1.771 1.224 2.902 0 1.13-.408 2.104-1.224 2.92-.805.804-1.784 1.207-2.938 1.207-.699 0-1.381-.187-2.046-.56a3.941 3.941 0 0 1-1.521-1.539v1.906h-.559Zm.524-3.916c0 .979.356 1.83 1.067 2.552.723.712 1.574 1.067 2.553 1.067.991 0 1.836-.356 2.535-1.067.7-.722 1.049-1.573 1.049-2.552 0-.991-.355-1.848-1.066-2.57-.7-.724-1.539-1.085-2.518-1.085-.979 0-1.83.367-2.553 1.102-.711.722-1.067 1.573-1.067 2.552Zm13.085 4.109c-1.119 0-2.081-.414-2.885-1.242-.804-.84-1.206-1.813-1.206-2.92s.408-2.063 1.224-2.868c.816-.816 1.795-1.224 2.937-1.224 1.154 0 2.133.409 2.938 1.225.816.804 1.224 1.766 1.224 2.885 0 1.107-.397 2.074-1.189 2.902-.793.828-1.755 1.242-2.885 1.242h-.158Zm3.672-4.11c0-.99-.355-1.847-1.066-2.57-.7-.723-1.539-1.084-2.518-1.084-.98 0-1.83.367-2.553 1.102-.711.722-1.067 1.573-1.067 2.552 0 .98.356 1.83 1.067 2.553.723.712 1.573 1.067 2.553 1.067.991 0 1.836-.356 2.535-1.067.699-.722 1.049-1.573 1.049-2.552Zm6.818-2.885c-.513-.512-1.079-.769-1.696-.769-.618 0-1.166.233-1.644.7-.466.466-.699 1.008-.699 1.626v5.245h-.56v-7.868h.56v1.171c.209-.396.536-.722.979-.979a2.91 2.91 0 0 1 1.486-.385c.548 0 1.072.187 1.574.56v.7Zm9.331-1.066v7.868h-.56v-1.958a3.677 3.677 0 0 1-1.468 1.574 4.067 4.067 0 0 1-2.099.577c-1.142 0-2.121-.403-2.937-1.207-.816-.816-1.224-1.79-1.224-2.92s.408-2.098 1.224-2.903c.816-.816 1.795-1.224 2.937-1.224.746 0 1.458.199 2.134.595.687.396 1.165.92 1.433 1.574V87.89h.56Zm-7.729 3.951c0 .98.356 1.83 1.067 2.553.723.712 1.574 1.067 2.553 1.067.991 0 1.836-.356 2.535-1.067.7-.722 1.049-1.573 1.049-2.552 0-.991-.355-1.848-1.066-2.57-.7-.724-1.539-1.085-2.518-1.085-.979 0-1.83.367-2.553 1.102-.711.722-1.067 1.573-1.067 2.552Zm12.648 3.533v.49c-.827 0-1.533-.275-2.115-.823-.583-.56-.875-1.27-.875-2.133v-8.183h.56v3.182h2.413v.49h-2.413v4.511c0 .711.233 1.3.699 1.766.478.466 1.055.7 1.731.7Zm5.057.577c-1.119 0-2.081-.414-2.885-1.242-.804-.84-1.206-1.813-1.206-2.92s.408-2.063 1.224-2.868c.816-.816 1.795-1.224 2.937-1.224 1.154 0 2.133.409 2.938 1.225.816.804 1.224 1.766 1.224 2.885 0 1.107-.397 2.074-1.189 2.902-.793.828-1.755 1.242-2.885 1.242h-.158Zm3.672-4.11c0-.99-.355-1.847-1.066-2.57-.7-.723-1.539-1.084-2.518-1.084-.98 0-1.83.367-2.553 1.102-.711.722-1.067 1.573-1.067 2.552 0 .98.356 1.83 1.067 2.553.723.712 1.573 1.067 2.553 1.067.991 0 1.836-.356 2.535-1.067.699-.722 1.049-1.573 1.049-2.552Zm6.818-2.885c-.513-.512-1.079-.769-1.696-.769-.618 0-1.166.233-1.644.7-.466.466-.699 1.008-.699 1.626v5.245h-.56v-7.868h.56v1.171c.209-.396.536-.722.979-.979a2.91 2.91 0 0 1 1.486-.385c.548 0 1.073.187 1.574.56v.7Zm7.81-1.066h.559v7.623c0 1.038-.361 1.918-1.084 2.64-.723.724-1.608 1.085-2.658 1.085-1.259 0-2.255-.484-2.99-1.451l.035-.875c.327.56.752 1.003 1.277 1.33.536.337 1.096.506 1.678.506.863 0 1.609-.314 2.239-.944.629-.618.944-1.364.944-2.238v-1.329c-.571 1.142-1.568 1.714-2.99 1.714a3.414 3.414 0 0 1-2.483-1.014c-.688-.688-1.032-1.51-1.032-2.466v-4.581h.56v4.581c0 .804.291 1.504.874 2.098.594.595 1.294.892 2.098.892.805 0 1.498-.297 2.081-.892.594-.594.892-1.294.892-2.098v-4.581ZM64.81 47.818l14.988 30.695H78.4l-5.675-11.43H56.697l-5.595 11.43h-1.239l14.948-30.695Zm-.12 2.758-7.473 15.347h15.028L64.69 50.576Zm19.288-2.038H94.73v1.159h-9.433v16.306h7.874v1.16h-7.874v10.19h9.433v1.16H83.978V48.538Zm26.824 4.236a6.851 6.851 0 0 0-2.518-2.638c-1.039-.64-2.212-.959-3.517-.959-1.306 0-2.425.413-3.357 1.24-.906.798-1.359 1.904-1.359 3.316v.2c0 1.679.932 3.21 2.797 4.596.8.587 1.692 1.173 2.678 1.759a39.284 39.284 0 0 1 2.998 1.838 18.257 18.257 0 0 1 2.717 2.079c.826.72 1.493 1.612 1.999 2.677.533 1.066.799 2.239.799 3.518v.4c0 2.53-.866 4.542-2.598 6.034-1.705 1.492-3.823 2.238-6.354 2.238-3.331 0-5.916-1.372-7.754-4.116v-2.158a9.206 9.206 0 0 0 3.037 3.716c1.359.933 3.038 1.4 5.036 1.4 1.999 0 3.731-.64 5.196-1.92 1.465-1.278 2.198-2.983 2.198-5.115v-.24c0-1.332-.346-2.544-1.039-3.637-.693-1.119-1.559-2.025-2.598-2.717a94.4 94.4 0 0 0-3.397-2.238 523.226 523.226 0 0 1-3.397-2.159 9.004 9.004 0 0 1-2.598-2.518 5.753 5.753 0 0 1-1.04-3.317v-.28c0-1.865.6-3.29 1.799-4.276 1.199-.986 2.678-1.479 4.437-1.479 2.451 0 4.396.906 5.835 2.718v2.038Zm17.894-4.236v1.159h-6.834v28.816h-1.319V49.697h-6.914v-1.16h15.067Zm25.659 0h1.319v29.975h-1.319v-11.43h-20.543v11.43h-1.319V48.538h1.319v17.385h20.543V48.538Zm7.332 0h10.751v1.159h-9.432v16.306h7.874v1.16h-7.874v10.19h9.432v1.16h-10.751V48.538Zm27.623 0v1.159h-6.834v28.816h-1.319V49.697h-6.914v-1.16h15.067Zm3.996 0h1.319v29.975h-1.319V48.538Zm22.116 30.415h-.439c-2.745 0-5.303-.72-7.674-2.159-2.371-1.439-4.25-3.344-5.635-5.715-1.359-2.398-2.039-4.943-2.039-7.634 0-4.236 1.533-7.873 4.597-10.91 3.064-3.065 6.727-4.597 10.991-4.597 2.85 0 5.555.746 8.113 2.238v1.48c-2.505-1.706-5.209-2.559-8.113-2.559-3.917 0-7.274 1.412-10.072 4.237-2.798 2.797-4.197 6.168-4.197 10.111 0 3.917 1.399 7.288 4.197 10.112s6.155 4.236 10.072 4.236c2.904 0 5.608-.852 8.113-2.558v1.48a14.821 14.821 0 0 1-7.914 2.237Zm25.389-26.179a6.851 6.851 0 0 0-2.518-2.638c-1.039-.64-2.211-.959-3.517-.959s-2.425.413-3.357 1.24c-.906.798-1.359 1.904-1.359 3.316v.2c0 1.679.932 3.21 2.798 4.596a33.281 33.281 0 0 0 2.677 1.759 39.284 39.284 0 0 1 2.998 1.838 18.319 18.319 0 0 1 2.718 2.079c.826.72 1.492 1.612 1.998 2.677.533 1.066.799 2.239.799 3.518v.4c0 2.53-.866 4.542-2.598 6.034-1.705 1.492-3.823 2.238-6.354 2.238-3.331 0-5.915-1.372-7.754-4.116v-2.158a9.2 9.2 0 0 0 3.038 3.716c1.358.933 3.037 1.4 5.035 1.4 1.999 0 3.731-.64 5.196-1.92 1.466-1.278 2.198-2.983 2.198-5.115v-.24c0-1.332-.346-2.544-1.039-3.637-.693-1.119-1.559-2.025-2.598-2.717a94.4 94.4 0 0 0-3.397-2.238 523.226 523.226 0 0 1-3.397-2.159 9.004 9.004 0 0 1-2.598-2.518 5.752 5.752 0 0 1-1.039-3.317v-.28c0-1.865.599-3.29 1.798-4.276 1.199-.986 2.678-1.479 4.437-1.479 2.451 0 4.396.906 5.835 2.718v2.038Z" fill="#4B6049"/><path d="M67.667 90.342c-5.162 3.746-10.491 7.327-15.986 10.574-5.33 3.247-11.574 6.745-17.985 4.829-6.495-1.998-9.076-8.909-12.074-14.321-2.997-5.662-6.078-11.24-8.992-16.986C9.05 67.361 5.969 59.7 5.302 51.707c-.166-1.582-.083-3.247-.25-4.83-.166-4.829-2.497-9.158-3.913-13.738-2.997-10.99.417-22.481 4.496-32.806L5.72 0c.5.333 1.082.75 1.499 1.166 8.659 7.743 17.901 15.07 27.393 21.815 3.331 2.415 6.745 4.746 10.159 7.077-3.664.916-7.494 1.25-10.991 2.831-1.582.75-3.164 1.5-4.247 2.498-.416.417-1.082 1.083-1.082 1.749.583 3.08 4.996 2.081 6.91.832 4.33-2.164 9.326-3.58 14.156-3.08 1.915 2.498 4.08 4.995 5.911 7.493l.167.167h-.25c-.583 0-1.499.333-2.081.5-.666.166-1.416.416-1.999.749-2.997 1.249-5.995 3.33-9.409 2.997-2.58-.166-4.746-.5-7.327-.832-4.08-.084-8.16.666-12.156 1.082-5.413.5-10.825 1-16.154 2.082l.167-1c.999.417 1.998.917 3.164.833 2.165-.083 4.496-.333 6.245-1.582 1.249-1.165 2.664-.666 3.247.833l-.25.083c.75-7.91-3.497-12.156-10.99-13.572-1.333-.166-2.748-.5-3.997.167-1.5.666-2.165 1.748-.417 2.747 2.332 1.666 5.163 1.832 7.827 2.582 2.748.749 5.163 2.165 7.577 3.663 1.499 4.663 2.332 9.659 1.749 14.571-.25 3.248-.583 6.578-1.665 9.66-.916 3.496 3.497 5.245 6.328 4.828 1.498-.25 2.914-1.165 3.497-2.58l.582.416c-.749.582-1.665.915-2.58.915-.667-.416-.417-1.248.083-1.665a2.92 2.92 0 0 1 1.165-.5c1.416-.333 3.081-.499 4.33.5.583.5.916 1.166 1.582 1.416 1.249.666 2.914-.25 3.414-1.5.5-1.331.166-2.83-.5-4.08.083-.082-.916 9.077-.832 9.077-.25 2.997-.5 6.078-.75 9.159l-.083-.084c1.665.25 3.33.25 4.913.084 1.831-.084 3.663-.5 5.495-1l-.416.5c-3.081 3.414-6.495 6.745-10.991 8.243-4.746 1.915-11.324.084-10.741-5.995 3.913-.416 7.66-2.914 11.74-1.832l-.25.25c-1.998 1.999-5.412 1.416-7.993 1.666-1.416-.084-2.998.333-4.247-.5-1.249-1-1.249-2.998-.5-4.246 1-1.832 3.581-2.415 5.33-1.166h-.5a8.323 8.323 0 0 1 2.331-1.416c2.665-.999 5.413.333 7.744 1.416 1.582.75 2.831 1.665 4.58 1.748 1.165.25 3.164.084 3.497 1.5.083.415 0 .832.083 1.331 1.166 8.493 4.496 16.487 8.493 23.98 3.663 11.408 3.913 23.564 4.163 35.471-.333-10.158-.666-20.483-3.08-30.475-.417-3.58-2.082-6.328-3.581-9.492-1.415-3.081-2.581-6.328-3.664-9.575a69.046 69.046 0 0 1-2.498-9.909c-.083-.416-.166-.832-.333-1.249-.333-.915-1.165-.749-1.998-.832-1.332-.084-2.581 0-3.913-.417-2.332-.999-4.663-1.915-7.078-2.498a4.982 4.982 0 0 0-4.413.916l-.25.167-.25-.167c-1.248-.916-3.413-.582-4.163.916-.832 1.333-.333 3.58 1.333 3.497 1.498.084 3.83-.083 5.328-.083 1.75 0 3.58.167 4.996-1.082l.084.333c-3.747-1.083-7.494 1.332-11.158 1.832l.167-.167c-.167 2.332 1.082 4.663 3.497 4.913 6.91 1.582 13.322-2.498 17.652-7.66l.166.332c-3.247.916-6.66 1.083-9.908.583h-.083v-.083c.666-5.162 1.332-13.072 1.915-18.235.75 1.25 1.166 2.748.583 4.163-.5 1.333-2.248 2.332-3.58 1.666-.667-.333-1.083-1-1.666-1.416-.583-.416-1.249-.5-1.915-.416-.916.083-2.498.416-3.08 1.166l-.25-.084c1.165 0 2.247-.832 3.163-1.499l-.582 1.25c-1.916 4.246-8.66 3.663-10.742-.084-.832-1.665.167-3.33.583-4.83.167-.749.333-1.581.5-2.414.5-3.247.999-6.494.832-9.742-.166-3.247-.915-6.494-1.998-9.492-2.081-.5-4.996-2.498-7.494-3.164-2.914-.916-6.328-1.332-8.576-3.663-.916-1 .417-2.165 1.332-2.498 1.333-.666 2.748-.333 4.164-.167 8.243 1.499 12.49 4.996 11.24 13.822l-.083.333-.25-.333c-.666-.916-1.582-1.332-2.414-.333-1.832 1.748-4.497 2.081-6.911 1.832-1.166-.167-2.415-.333-3.58-.833L4.22 47.96a68.73 68.73 0 0 1 5.912-.25c4.08-.166 8.16-.749 12.156-1.165 2.665-.333 5.413-.417 8.16-.75 2.665-.416 5.412-.916 8.16-1.082 2.082.083 4.247.083 6.162-.333 2.747-.666 5.578-1.582 8.326-1.999a15.224 15.224 0 0 0 2.082-.5l-.084.25c-1.915-2.497-3.747-5.245-5.662-7.66-1.748 0-3.497 0-5.245.333-2.581.5-5.08 1.416-7.41 2.665-1.583.916-3.081 1.915-4.913 2.165-1.915.416-4.497-.666-4.83-2.915-.083-1.665 1.166-2.914 2.415-3.83 4.33-2.498 9.492-2.914 14.321-3.58.25 0 .417.083.667.083l-.084.167C31.863 20.899 19.707 11.574 7.8 2.082l-1.165-1C6.218.75 5.885.416 5.469.083L5.885 0c-4.246 10.075-7.41 21.565-4.58 32.473 1.333 4.58 3.748 8.91 3.83 13.822.084 1.582.084 3.164.167 4.746.583 7.993 3.664 15.487 7.161 22.565 2.831 5.662 5.912 11.323 8.91 16.985 2.997 5.33 5.495 12.24 11.906 14.239 6.328 1.831 12.573-1.582 17.902-4.747 5.995-2.414 11.407-6.41 16.486-9.741Z" fill="#4B6049"/></svg>