<svg width="52" height="32" fill="none" xmlns="http://www.w3.org/2000/svg"><g clip-path="url('#clip0_459_5163')" fill-rule="evenodd" clip-rule="evenodd"><path d="M18.655 28.427h13.829V3.467H18.655v24.96Z" fill="#8B8B8B"/><path d="M19.533 15.946c0-5.064 2.36-9.574 6.036-12.48A15.69 15.69 0 0 0 15.803.072C7.075.072 0 7.179 0 15.946c0 8.768 7.075 15.875 15.803 15.875a15.69 15.69 0 0 0 9.766-3.394 15.873 15.873 0 0 1-6.036-12.48Z" fill="#BCBCBC"/><path d="M50.645 25.783v-.616h-.16l-.185.424-.184-.424h-.16v.616h.113v-.464l.173.4h.117l.173-.401v.465h.113Zm-1.015 0v-.51h.206v-.105h-.523v.104h.205v.511h.112Zm1.508-9.837c0 8.768-7.075 15.875-15.802 15.875a15.69 15.69 0 0 1-9.767-3.394 15.872 15.872 0 0 0 6.036-12.48c0-5.064-2.36-9.574-6.036-12.481A15.69 15.69 0 0 1 35.336.072c8.727 0 15.802 7.107 15.802 15.874Z" fill="#D9D9D9"/></g><defs><clipPath id="clip0_459_5163"><path fill="#fff" transform="translate(0 .072)" d="M0 0h51.667v31.795H0z"/></clipPath></defs></svg>