<svg width="52" height="32" fill="none" xmlns="http://www.w3.org/2000/svg"><g clip-path="url('#clip0_6_7489')" fill-rule="evenodd" clip-rule="evenodd"><path d="M18.655 28.427h13.829V3.467H18.655v24.96Z" fill="#FF5F00"/><path d="M19.533 15.947c0-5.064 2.36-9.575 6.036-12.48A15.69 15.69 0 0 0 15.803.071C7.075.072 0 7.179 0 15.947 0 24.714 7.075 31.82 15.803 31.82a15.69 15.69 0 0 0 9.766-3.394 15.873 15.873 0 0 1-6.036-12.48Z" fill="#EB001B"/><path d="M50.645 25.784v-.616h-.16l-.184.423-.184-.423h-.16v.616h.112v-.465l.173.4h.117l.173-.401v.466h.113Zm-1.014 0v-.511h.205v-.104h-.522v.104h.205v.51h.112Zm1.508-9.837c0 8.767-7.076 15.874-15.803 15.874a15.69 15.69 0 0 1-9.767-3.394 15.872 15.872 0 0 0 6.037-12.48c0-5.064-2.361-9.574-6.037-12.48A15.69 15.69 0 0 1 35.336.071c8.727 0 15.803 7.107 15.803 15.875Z" fill="#F79E1B"/></g><defs><clipPath id="clip0_6_7489"><path fill="#fff" transform="translate(0 .072)" d="M0 0h51.667v31.795H0z"/></clipPath></defs></svg>