<svg width="50" height="50" fill="none" xmlns="http://www.w3.org/2000/svg"><path d="M49.5 25c0 13.531-10.969 24.5-24.5 24.5S.5 38.531.5 25 11.469.5 25 .5 49.5 11.469 49.5 25Z" stroke="#4B6049"/><path fill-rule="evenodd" clip-rule="evenodd" d="M18.032 12.234c-2.454-.23-4.572 1.563-4.783 3.922v.006c-1.08 11.37 7.296 21.517 18.78 22.604 2.454.229 4.574-1.562 4.801-3.927.021-.233.021-.469 0-.702v-.012l-.002-.012a4.228 4.228 0 0 0-.123-.765l-7.45-1.925a4.35 4.35 0 0 0-1.081 1.899l-.334 1.23-1.137-.515a17.278 17.278 0 0 1-6.177-4.722 17.893 17.893 0 0 1-3.56-7.017l-.33-1.295 1.299-.09a4.403 4.403 0 0 0 2.146-.736l-.492-7.5a4.278 4.278 0 0 0-.827-.31l-.006-.002-.006-.002a4.126 4.126 0 0 0-.714-.128h-.004Zm.194-2.205c-3.567-.335-6.794 2.277-7.122 5.92-1.199 12.656 8.118 23.829 20.729 25.022h.001a6.564 6.564 0 0 0 7.14-5.92l.001-.003v-.003a6.26 6.26 0 0 0 .001-1.098 6.482 6.482 0 0 0-.443-1.945l-.206-.518-9.606-2.483-.415.334a6.5 6.5 0 0 0-1.744 2.173 15.163 15.163 0 0 1-4.397-3.63 15.615 15.615 0 0 1-2.774-4.983 6.577 6.577 0 0 0 2.494-1.34l.422-.361-.644-9.818-.457-.301a6.414 6.414 0 0 0-1.91-.853 6.22 6.22 0 0 0-1.07-.193Z" fill="#4B6049"/></svg>