<svg width="100" height="20" fill="none" xmlns="http://www.w3.org/2000/svg"><path d="m10 0 2.245 6.91h7.266l-5.878 4.27 2.245 6.91L10 13.82l-5.878 4.27 2.245-6.91L.49 6.91h7.266L10 0ZM30 0l2.245 6.91h7.266l-5.878 4.27 2.245 6.91L30 13.82l-5.878 4.27 2.245-6.91-5.878-4.27h7.266L30 0ZM50 0l2.245 6.91h7.266l-5.878 4.27 2.245 6.91L50 13.82l-5.878 4.27 2.245-6.91-5.878-4.27h7.266L50 0ZM70 0l2.245 6.91h7.266l-5.878 4.27 2.245 6.91L70 13.82l-5.878 4.27 2.245-6.91-5.878-4.27h7.266L70 0ZM90 0l2.245 6.91h7.266l-5.878 4.27 2.245 6.91L90 13.82l-5.878 4.27 2.245-6.91-5.878-4.27h7.266L90 0Z" fill="#4B6049"/></svg>