<svg width="77" height="26" fill="none" xmlns="http://www.w3.org/2000/svg"><path d="M33.438 24.904h-6.152l3.848-23.791h6.151l-3.847 23.79ZM55.738 1.694C54.524 1.213 52.6.681 50.22.681c-6.075 0-10.352 3.24-10.379 7.871-.05 3.417 3.063 5.315 5.392 6.454 2.38 1.165 3.189 1.925 3.189 2.962-.025 1.594-1.924 2.329-3.695 2.329-2.456 0-3.772-.379-5.771-1.266l-.81-.38-.861 5.34c1.443.658 4.1 1.241 6.86 1.267 6.455 0 10.657-3.19 10.707-8.125.025-2.708-1.62-4.783-5.164-6.48-2.151-1.088-3.469-1.822-3.469-2.936.026-1.012 1.115-2.05 3.544-2.05 2-.05 3.469.43 4.582.912l.556.252.837-5.137ZM63.913 16.475c.507-1.367 2.456-6.656 2.456-6.656-.025.05.506-1.392.81-2.278l.43 2.05s1.164 5.695 1.417 6.884h-5.113Zm7.593-15.362h-4.758c-1.467 0-2.582.43-3.215 1.974l-9.138 21.816h6.455l1.291-3.569h7.898c.177.836.734 3.57.734 3.57h5.696L71.506 1.112ZM22.148 1.113l-6.024 16.223-.659-3.29c-1.113-3.797-4.606-7.922-8.505-9.973l5.519 20.805h6.505l9.669-23.765h-6.505Z" fill="#00579F"/><path d="M10.53 1.113H.631l-.101.48c7.72 1.975 12.833 6.733 14.934 12.454L13.314 3.111c-.355-1.52-1.443-1.95-2.785-2Z" fill="#FAA61A"/></svg>