<svg width="77" height="26" fill="none" xmlns="http://www.w3.org/2000/svg"><path d="M33.574 24.904h-6.152L31.27 1.113h6.151l-3.847 23.79ZM55.874 1.694C54.661 1.213 52.736.681 50.356.681c-6.074 0-10.352 3.24-10.379 7.871-.05 3.417 3.063 5.315 5.392 6.454 2.38 1.165 3.189 1.924 3.189 2.962-.024 1.594-1.923 2.329-3.694 2.329-2.456 0-3.772-.379-5.772-1.266l-.81-.38-.861 5.34c1.443.658 4.1 1.241 6.86 1.267 6.455 0 10.657-3.19 10.707-8.125.025-2.708-1.62-4.783-5.163-6.48-2.152-1.088-3.47-1.822-3.47-2.936.026-1.012 1.115-2.05 3.544-2.05 2-.05 3.469.43 4.582.912l.556.252.837-5.137ZM64.05 16.475c.506-1.367 2.456-6.656 2.456-6.656-.026.05.505-1.392.81-2.278l.429 2.05s1.165 5.695 1.418 6.884H64.05Zm7.593-15.362h-4.758c-1.468 0-2.582.43-3.215 1.973l-9.138 21.817h6.455l1.291-3.569h7.898c.177.836.734 3.57.734 3.57h5.696L71.643 1.112ZM22.285 1.113 16.26 17.336l-.659-3.29c-1.114-3.797-4.607-7.922-8.505-9.973l5.518 20.805h6.505l9.67-23.765h-6.505Z" fill="#BCBCBC"/><path d="M10.665 1.113H.768l-.101.48c7.72 1.975 12.834 6.733 14.934 12.454L13.45 3.111c-.354-1.52-1.443-1.95-2.784-2Z" fill="#D9D9D9"/></svg>