<svg width="37" height="37" fill="none" xmlns="http://www.w3.org/2000/svg"><g clip-path="url('#clip0_539_3625')"><path d="M25.008 12.04V9.083a7.02 7.02 0 0 0-2.05-4.957 7 7 0 0 0-4.95-2.054 6.99 6.99 0 0 0-4.95 2.054 7.01 7.01 0 0 0-2.05 4.957v7.011a1.002 1.002 0 0 0 1 1.002 1 1 0 0 0 1-1.002v-2.053h8V12.04h-8V9.084c0-1.328.527-2.601 1.464-3.54a4.996 4.996 0 0 1 7.071 0 5.012 5.012 0 0 1 1.465 3.54v6.961a1.002 1.002 0 0 0 1 1.002.999.999 0 0 0 1-1.002v-2.003h5V32.07h-24V14.042h3V12.04h-5v20.122a1.915 1.915 0 0 0 1.91 1.913h24.18a1.909 1.909 0 0 0 1.91-1.913V12.038h-7Z" fill="#FFFBF5"/></g><defs><clipPath id="clip0_539_3625"><path fill="#fff" transform="translate(.008 .023)" d="M0 0h36v36H0z"/></clipPath></defs></svg>