<svg width="246" height="145" viewBox="0 0 246 145" fill="none" xmlns="http://www.w3.org/2000/svg">
<path d="M111.604 95.7593V82.6452H112.163V89.8142C112.478 89.1731 112.968 88.6602 113.632 88.2755C114.308 87.8908 115.008 87.6985 115.73 87.6985C116.884 87.6985 117.864 88.1065 118.668 88.9225C119.484 89.7268 119.892 90.6943 119.892 91.825C119.892 92.9558 119.484 93.9291 118.668 94.7451C117.864 95.5495 116.884 95.9516 115.73 95.9516C115.031 95.9516 114.349 95.7651 113.685 95.3921C113.02 95.0074 112.513 94.4945 112.163 93.8534V95.7593H111.604ZM112.128 91.8425C112.128 92.8217 112.484 93.6727 113.195 94.3954C113.918 95.1065 114.769 95.462 115.748 95.462C116.739 95.462 117.584 95.1065 118.283 94.3954C118.983 93.6727 119.332 92.8217 119.332 91.8425C119.332 90.8517 118.977 89.9949 118.266 89.2722C117.566 88.5494 116.727 88.1881 115.748 88.1881C114.769 88.1881 113.918 88.5553 113.195 89.2897C112.484 90.0124 112.128 90.8633 112.128 91.8425ZM125.493 95.9691H125.336C124.228 95.9691 123.261 95.5553 122.433 94.7276C121.617 93.8883 121.209 92.915 121.209 91.8076C121.209 90.7001 121.617 89.7443 122.433 88.9399C123.249 88.124 124.258 87.716 125.458 87.716C126.659 87.716 127.69 88.1939 128.553 89.1498L123.063 94.5703C123.82 95.1764 124.549 95.4795 125.248 95.4795C125.948 95.4795 126.571 95.3221 127.119 95.0074C127.679 94.681 128.139 94.2497 128.501 93.7135V94.6052C127.673 95.5145 126.671 95.9691 125.493 95.9691ZM125.301 88.2056C124.38 88.2056 123.558 88.5669 122.835 89.2897C122.124 90.0007 121.769 90.8225 121.769 91.7551C121.769 92.6877 122.078 93.5037 122.695 94.2031L127.784 89.1498C127.061 88.5203 126.233 88.2056 125.301 88.2056ZM138.067 87.8908V95.7593H137.508V93.8009C137.181 94.4654 136.692 94.9899 136.039 95.3746C135.386 95.7593 134.687 95.9516 133.941 95.9516C132.798 95.9516 131.819 95.5495 131.003 94.7451C130.187 93.9291 129.779 92.9558 129.779 91.825C129.779 90.6943 130.187 89.7268 131.003 88.9225C131.819 88.1065 132.798 87.6985 133.941 87.6985C134.687 87.6985 135.398 87.8966 136.074 88.293C136.762 88.6893 137.24 89.2139 137.508 89.8667V87.8908H138.067ZM130.339 91.8425C130.339 92.8217 130.694 93.6727 131.405 94.3954C132.128 95.1065 132.979 95.462 133.958 95.462C134.949 95.462 135.794 95.1065 136.494 94.3954C137.193 93.6727 137.543 92.8217 137.543 91.8425C137.543 90.8517 137.187 89.9949 136.476 89.2722C135.777 88.5494 134.937 88.1881 133.958 88.1881C132.979 88.1881 132.128 88.5553 131.405 89.2897C130.694 90.0124 130.339 90.8633 130.339 91.8425ZM146.501 87.8908H147.061V95.7593H146.501V94.1681C145.907 95.3571 144.892 95.9516 143.459 95.9516C142.479 95.9516 141.658 95.6136 140.993 94.9375C140.329 94.2614 139.997 93.4395 139.997 92.472V87.8908H140.556V92.472C140.556 93.2763 140.836 93.9758 141.395 94.5703C141.967 95.1648 142.654 95.462 143.459 95.462C144.263 95.462 144.968 95.1648 145.574 94.5703C146.192 93.9758 146.501 93.2763 146.501 92.472V87.8908ZM151.798 95.3746V95.8642C150.97 95.8642 150.265 95.5903 149.682 95.0424C149.099 94.4828 148.808 93.7718 148.808 92.9091V84.7259H149.367V87.9083H151.78V88.3979H149.367V92.9091C149.367 93.6202 149.6 94.2089 150.067 94.6752C150.544 95.1415 151.121 95.3746 151.798 95.3746ZM159.53 87.8908H160.089V95.5145C160.089 96.552 159.728 97.4321 159.005 98.1548C158.283 98.8775 157.397 99.2389 156.347 99.2389C155.089 99.2389 154.092 98.7551 153.357 97.7876L153.392 96.9133C153.719 97.4729 154.144 97.9158 154.669 98.2422C155.205 98.5803 155.765 98.7493 156.347 98.7493C157.21 98.7493 157.956 98.4346 158.586 97.8051C159.215 97.1873 159.53 96.4412 159.53 95.5669V94.238C158.959 95.3804 157.962 95.9516 156.54 95.9516C155.572 95.9516 154.745 95.6136 154.057 94.9375C153.369 94.2497 153.025 93.4279 153.025 92.472V87.8908H153.585V92.472C153.585 93.2763 153.876 93.9758 154.459 94.5703C155.054 95.1648 155.753 95.462 156.557 95.462C157.362 95.462 158.055 95.1648 158.638 94.5703C159.233 93.9758 159.53 93.2763 159.53 92.472V87.8908ZM171.114 95.4271V95.9166C170.287 95.9166 169.581 95.6427 168.998 95.0948C168.416 94.5353 168.124 93.8242 168.124 92.9616V82.6452H168.684V92.9616C168.684 93.6727 168.917 94.2614 169.383 94.7276C169.861 95.1939 170.438 95.4271 171.114 95.4271ZM179.664 87.8908V95.7593H179.104V93.8009C178.778 94.4654 178.288 94.9899 177.635 95.3746C176.982 95.7593 176.283 95.9516 175.537 95.9516C174.395 95.9516 173.415 95.5495 172.599 94.7451C171.783 93.9291 171.375 92.9558 171.375 91.825C171.375 90.6943 171.783 89.7268 172.599 88.9225C173.415 88.1065 174.395 87.6985 175.537 87.6985C176.283 87.6985 176.994 87.8966 177.67 88.293C178.358 88.6893 178.836 89.2139 179.104 89.8667V87.8908H179.664ZM171.935 91.8425C171.935 92.8217 172.29 93.6727 173.002 94.3954C173.724 95.1065 174.575 95.462 175.554 95.462C176.545 95.462 177.39 95.1065 178.09 94.3954C178.789 93.6727 179.139 92.8217 179.139 91.8425C179.139 90.8517 178.783 89.9949 178.072 89.2722C177.373 88.5494 176.534 88.1881 175.554 88.1881C174.575 88.1881 173.724 88.5553 173.002 89.2897C172.29 90.0124 171.935 90.8633 171.935 91.8425ZM181.768 95.7593V82.6452H182.327V89.8142C182.642 89.1731 183.132 88.6602 183.796 88.2755C184.472 87.8908 185.172 87.6985 185.894 87.6985C187.048 87.6985 188.027 88.1065 188.832 88.9225C189.648 89.7268 190.056 90.6943 190.056 91.825C190.056 92.9558 189.648 93.9291 188.832 94.7451C188.027 95.5495 187.048 95.9516 185.894 95.9516C185.195 95.9516 184.513 95.7651 183.848 95.3921C183.184 95.0074 182.677 94.4945 182.327 93.8534V95.7593H181.768ZM182.292 91.8425C182.292 92.8217 182.648 93.6727 183.359 94.3954C184.082 95.1065 184.933 95.462 185.912 95.462C186.903 95.462 187.748 95.1065 188.447 94.3954C189.147 93.6727 189.496 92.8217 189.496 91.8425C189.496 90.8517 189.141 89.9949 188.43 89.2722C187.73 88.5494 186.891 88.1881 185.912 88.1881C184.933 88.1881 184.082 88.5553 183.359 89.2897C182.648 90.0124 182.292 90.8633 182.292 91.8425ZM195.377 95.9516C194.258 95.9516 193.296 95.5378 192.492 94.7101C191.688 93.8708 191.286 92.8975 191.286 91.7901C191.286 90.6827 191.694 89.7268 192.51 88.9225C193.326 88.1065 194.305 87.6985 195.447 87.6985C196.601 87.6985 197.58 88.1065 198.385 88.9225C199.201 89.7268 199.609 90.6885 199.609 91.8076C199.609 92.915 199.212 93.8825 198.42 94.7101C197.627 95.5378 196.665 95.9516 195.535 95.9516H195.377ZM199.049 91.8425C199.049 90.8517 198.694 89.9949 197.983 89.2722C197.283 88.5494 196.444 88.1881 195.465 88.1881C194.485 88.1881 193.635 88.5553 192.912 89.2897C192.201 90.0124 191.845 90.8633 191.845 91.8425C191.845 92.8217 192.201 93.6727 192.912 94.3954C193.635 95.1065 194.485 95.462 195.465 95.462C196.456 95.462 197.301 95.1065 198 94.3954C198.699 93.6727 199.049 92.8217 199.049 91.8425ZM205.867 88.9574C205.354 88.4445 204.788 88.1881 204.171 88.1881C203.553 88.1881 203.005 88.4212 202.527 88.8875C202.061 89.3538 201.828 89.8958 201.828 90.5136V95.7593H201.268V87.8908H201.828V89.0623C202.037 88.666 202.364 88.3396 202.807 88.0832C203.25 87.8267 203.745 87.6985 204.293 87.6985C204.841 87.6985 205.365 87.885 205.867 88.258V88.9574ZM215.198 87.8908V95.7593H214.638V93.8009C214.312 94.4654 213.822 94.9899 213.17 95.3746C212.517 95.7593 211.817 95.9516 211.071 95.9516C209.929 95.9516 208.95 95.5495 208.134 94.7451C207.318 93.9291 206.91 92.9558 206.91 91.825C206.91 90.6943 207.318 89.7268 208.134 88.9225C208.95 88.1065 209.929 87.6985 211.071 87.6985C211.817 87.6985 212.529 87.8966 213.205 88.293C213.892 88.6893 214.37 89.2139 214.638 89.8667V87.8908H215.198ZM207.469 91.8425C207.469 92.8217 207.825 93.6727 208.536 94.3954C209.259 95.1065 210.11 95.462 211.089 95.462C212.08 95.462 212.925 95.1065 213.624 94.3954C214.324 93.6727 214.673 92.8217 214.673 91.8425C214.673 90.8517 214.318 89.9949 213.607 89.2722C212.907 88.5494 212.068 88.1881 211.089 88.1881C210.11 88.1881 209.259 88.5553 208.536 89.2897C207.825 90.0124 207.469 90.8633 207.469 91.8425ZM220.117 95.3746V95.8642C219.29 95.8642 218.584 95.5903 218.002 95.0424C217.419 94.4828 217.127 93.7718 217.127 92.9091V84.7259H217.687V87.9083H220.1V88.3979H217.687V92.9091C217.687 93.6202 217.92 94.2089 218.386 94.6752C218.864 95.1415 219.441 95.3746 220.117 95.3746ZM225.174 95.9516C224.055 95.9516 223.093 95.5378 222.289 94.7101C221.485 93.8708 221.083 92.8975 221.083 91.7901C221.083 90.6827 221.491 89.7268 222.307 88.9225C223.123 88.1065 224.102 87.6985 225.244 87.6985C226.398 87.6985 227.377 88.1065 228.182 88.9225C228.998 89.7268 229.406 90.6885 229.406 91.8076C229.406 92.915 229.009 93.8825 228.217 94.7101C227.424 95.5378 226.462 95.9516 225.332 95.9516H225.174ZM228.846 91.8425C228.846 90.8517 228.491 89.9949 227.78 89.2722C227.08 88.5494 226.241 88.1881 225.262 88.1881C224.282 88.1881 223.432 88.5553 222.709 89.2897C221.998 90.0124 221.642 90.8633 221.642 91.8425C221.642 92.8217 221.998 93.6727 222.709 94.3954C223.432 95.1065 224.282 95.462 225.262 95.462C226.253 95.462 227.098 95.1065 227.797 94.3954C228.496 93.6727 228.846 92.8217 228.846 91.8425ZM235.664 88.9574C235.151 88.4445 234.585 88.1881 233.968 88.1881C233.35 88.1881 232.802 88.4212 232.324 88.8875C231.858 89.3538 231.625 89.8958 231.625 90.5136V95.7593H231.065V87.8908H231.625V89.0623C231.834 88.666 232.161 88.3396 232.604 88.0832C233.047 87.8267 233.542 87.6985 234.09 87.6985C234.638 87.6985 235.163 87.885 235.664 88.258V88.9574ZM243.474 87.8908H244.033V95.5145C244.033 96.552 243.672 97.4321 242.949 98.1548C242.226 98.8775 241.341 99.2389 240.291 99.2389C239.032 99.2389 238.036 98.7551 237.301 97.7876L237.336 96.9133C237.663 97.4729 238.088 97.9158 238.613 98.2422C239.149 98.5803 239.709 98.7493 240.291 98.7493C241.154 98.7493 241.9 98.4346 242.53 97.8051C243.159 97.1873 243.474 96.4412 243.474 95.5669V94.238C242.903 95.3804 241.906 95.9516 240.484 95.9516C239.516 95.9516 238.689 95.6136 238.001 94.9375C237.313 94.2497 236.969 93.4279 236.969 92.472V87.8908H237.529V92.472C237.529 93.2763 237.82 93.9758 238.403 94.5703C238.997 95.1648 239.697 95.462 240.501 95.462C241.306 95.462 241.999 95.1648 242.582 94.5703C243.176 93.9758 243.474 93.2763 243.474 92.472V87.8908Z" fill="#4B6049"/>
<path d="M64.8106 47.8183L79.7982 78.5128H78.3994L72.7241 67.0823H56.6974L51.102 78.5128H49.8631L64.8106 47.8183ZM64.6907 50.576L57.217 65.9233H72.2445L64.6907 50.576ZM83.9785 48.5377H94.7295V49.6968H85.2974V66.0032H93.1708V67.1622H85.2974V77.3538H94.7295V78.5128H83.9785V48.5377ZM110.802 52.7742C110.189 51.6551 109.35 50.7759 108.284 50.1364C107.245 49.4969 106.072 49.1772 104.767 49.1772C103.461 49.1772 102.342 49.5902 101.41 50.4162C100.504 51.2155 100.051 52.3212 100.051 53.7334V53.9332C100.051 55.6118 100.983 57.1439 102.848 58.5294C103.648 59.1156 104.54 59.7018 105.526 60.288C106.539 60.8475 107.538 61.4603 108.524 62.1264C109.536 62.7659 110.442 63.4587 111.241 64.2047C112.067 64.9241 112.734 65.8167 113.24 66.8825C113.773 67.9483 114.039 69.1206 114.039 70.3996V70.7992C114.039 73.3305 113.173 75.3421 111.441 76.8342C109.736 78.3263 107.618 79.0724 105.087 79.0724C101.756 79.0724 99.1715 77.7002 97.333 74.9558V72.7976C98.0258 74.3163 99.0382 75.5553 100.37 76.5145C101.729 77.447 103.408 77.9133 105.406 77.9133C107.405 77.9133 109.137 77.2738 110.602 75.9949C112.067 74.716 112.8 73.0107 112.8 70.8792V70.6394C112.8 69.3071 112.454 68.0948 111.761 67.0024C111.068 65.8833 110.202 64.9774 109.163 64.2846C108.124 63.5652 106.992 62.8192 105.766 62.0465C104.54 61.2738 103.408 60.5544 102.369 59.8883C101.33 59.2222 100.464 58.3829 99.771 57.3704C99.0782 56.3579 98.7318 55.2521 98.7318 54.0531V53.7734C98.7318 51.9083 99.3313 50.4828 100.53 49.4969C101.729 48.5111 103.208 48.0182 104.967 48.0182C107.418 48.0182 109.363 48.9241 110.802 50.7359V52.7742ZM128.696 48.5377V49.6968H121.862V78.5128H120.543V49.6968H113.629V48.5377H128.696ZM154.355 48.5377H155.674V78.5128H154.355V67.0823H133.812V78.5128H132.493V48.5377H133.812V65.9233H154.355V48.5377ZM161.687 48.5377H172.438V49.6968H163.006V66.0032H170.88V67.1622H163.006V77.3538H172.438V78.5128H161.687V48.5377ZM189.31 48.5377V49.6968H182.476V78.5128H181.157V49.6968H174.243V48.5377H189.31ZM193.306 48.5377H194.625V78.5128H193.306V48.5377ZM215.422 78.9525H214.983C212.238 78.9525 209.68 78.233 207.309 76.7942C204.938 75.3554 203.059 73.4504 201.674 71.079C200.315 68.681 199.635 66.1364 199.635 63.4453C199.635 59.2089 201.168 55.5719 204.232 52.5344C207.296 49.4703 210.959 47.9382 215.223 47.9382C218.073 47.9382 220.778 48.6843 223.336 50.1764V51.6551C220.831 49.9499 218.127 49.0973 215.223 49.0973C211.306 49.0973 207.949 50.5094 205.151 53.3337C202.353 56.1314 200.954 59.5019 200.954 63.4453C200.954 67.3621 202.353 70.7326 205.151 73.5569C207.949 76.3813 211.306 77.7934 215.223 77.7934C218.127 77.7934 220.831 76.9408 223.336 75.2355V76.7143C220.911 78.2064 218.273 78.9525 215.422 78.9525ZM240.811 52.7742C240.198 51.6551 239.359 50.7759 238.293 50.1364C237.254 49.4969 236.082 49.1772 234.776 49.1772C233.47 49.1772 232.351 49.5902 231.419 50.4162C230.513 51.2155 230.06 52.3212 230.06 53.7334V53.9332C230.06 55.6118 230.992 57.1439 232.858 58.5294C233.657 59.1156 234.549 59.7018 235.535 60.288C236.548 60.8475 237.547 61.4603 238.533 62.1264C239.545 62.7659 240.451 63.4587 241.251 64.2047C242.077 64.9241 242.743 65.8167 243.249 66.8825C243.782 67.9483 244.048 69.1206 244.048 70.3996V70.7992C244.048 73.3305 243.182 75.3421 241.45 76.8342C239.745 78.3263 237.627 79.0724 235.096 79.0724C231.765 79.0724 229.181 77.7002 227.342 74.9558V72.7976C228.035 74.3163 229.047 75.5553 230.38 76.5145C231.738 77.447 233.417 77.9133 235.415 77.9133C237.414 77.9133 239.146 77.2738 240.611 75.9949C242.077 74.716 242.809 73.0107 242.809 70.8792V70.6394C242.809 69.3071 242.463 68.0948 241.77 67.0024C241.077 65.8833 240.211 64.9774 239.172 64.2846C238.133 63.5652 237.001 62.8192 235.775 62.0465C234.549 61.2738 233.417 60.5544 232.378 59.8883C231.339 59.2222 230.473 58.3829 229.78 57.3704C229.087 56.3579 228.741 55.2521 228.741 54.0531V53.7734C228.741 51.9083 229.34 50.4828 230.539 49.4969C231.738 48.5111 233.217 48.0182 234.976 48.0182C237.427 48.0182 239.372 48.9241 240.811 50.7359V52.7742Z" fill="#4B6049"/>
<path d="M67.6673 90.3416C62.5049 94.0885 57.176 97.6688 51.6806 100.916C46.3517 104.163 40.1068 107.661 33.6955 105.745C27.2009 103.747 24.6197 96.8362 21.6222 91.424C18.6247 85.7621 15.5439 80.1834 12.6297 74.4381C9.04932 67.3607 5.96855 59.7004 5.30244 51.707C5.13591 50.125 5.21917 48.4597 5.05264 46.8777C4.88612 42.0484 2.55472 37.7187 1.13923 33.1391C-1.85828 22.1483 1.55555 10.6578 5.63549 0.333055L5.71876 0C6.21834 0.333057 6.80119 0.749375 7.21751 1.1657C15.877 8.90926 25.1193 16.2365 34.6114 22.9809C37.942 25.3956 41.3558 27.727 44.7696 30.0584C41.106 30.9743 37.2759 31.3073 33.7788 32.8893C32.1968 33.6387 30.6147 34.3881 29.5323 35.3873C29.116 35.8036 28.4499 36.4697 28.4499 37.1358C29.0327 40.2166 33.4457 39.2174 35.3608 37.9685C39.6905 35.8036 44.6864 34.3881 49.5157 34.8877C51.4308 37.3856 53.5956 39.8835 55.4274 42.3814L55.594 42.548H55.3442C54.7613 42.548 53.8454 42.881 53.2626 43.0476C52.5965 43.2141 51.8471 43.4639 51.2642 43.7969C48.2667 45.0459 45.2692 47.1275 41.8554 46.7944C39.2742 46.6279 37.1093 46.2949 34.5281 45.9618C30.4482 45.8785 26.3683 46.6279 22.3716 47.0442C16.9594 47.5438 11.5472 48.0434 6.21834 49.1258L6.38487 48.1267C7.38404 48.543 8.38321 49.0426 9.54891 48.9593C11.7138 48.876 14.0452 48.6263 15.7937 47.3773C17.0427 46.2116 18.4582 46.7112 19.041 48.2099L18.7912 48.2932C19.5406 40.3831 15.2941 36.1366 7.80036 34.7211C6.46813 34.5546 5.05264 34.2216 3.80368 34.8877C2.30493 35.5538 1.63881 36.6362 3.38736 37.6354C5.71876 39.3007 8.54974 39.4672 11.2142 40.2166C13.9619 40.966 16.3766 42.3815 18.7912 43.8802C20.29 48.543 21.1226 53.5388 20.5398 58.4514C20.29 61.6987 19.9569 65.0293 18.8745 68.1101C17.9586 71.6072 22.3716 73.3557 25.2026 72.9394C26.7013 72.6896 28.1168 71.7737 28.6997 70.3582L29.2825 70.7745C28.5331 71.3574 27.6172 71.6904 26.7013 71.6904C26.0352 71.2741 26.285 70.4415 26.7846 70.0251C27.1176 69.7754 27.534 69.6088 27.9503 69.5256C29.3658 69.1925 31.0311 69.026 32.28 70.0251C32.8629 70.5247 33.1959 71.1908 33.862 71.4406C35.111 72.1068 36.7763 71.1908 37.2759 69.9419C37.7754 68.6096 37.4424 67.1109 36.7763 65.8619C36.8595 65.7787 35.8604 74.9377 35.9436 74.9377C35.6938 77.9352 35.4441 81.016 35.1943 84.0968L35.111 84.0135C36.7763 84.2633 38.4416 84.2633 40.0236 84.0968C41.8554 84.0135 43.6872 83.5972 45.519 83.0976L45.1027 83.5972C42.0219 87.011 38.6081 90.3416 34.1118 91.8404C29.3658 93.7554 22.7879 91.9236 23.3708 85.8453C27.2842 85.429 31.0311 82.9311 35.111 84.0135L34.8612 84.2633C32.8629 86.2617 29.449 85.6788 26.8678 85.9286C25.4524 85.8453 23.8703 86.2617 22.6214 85.429C21.3724 84.4298 21.3724 82.4315 22.1218 81.1825C23.121 79.3507 25.7021 78.7679 27.4507 80.0168H26.9511C27.6172 79.434 28.4499 78.9344 29.2825 78.6014C31.947 77.6022 34.6947 78.9344 37.0261 80.0168C38.6081 80.7662 39.8571 81.6821 41.6056 81.7654C42.7713 82.0152 44.7696 81.8486 45.1027 83.2641C45.186 83.6805 45.1027 84.0968 45.186 84.5964C46.3517 93.0893 49.6822 101.083 53.6789 108.576C57.3425 119.984 57.5923 132.14 57.8421 144.047C57.509 133.889 57.176 123.564 54.7613 113.572C54.345 109.992 52.6797 107.244 51.181 104.08C49.7655 100.999 48.5998 97.7521 47.5174 94.5048C46.4349 91.2575 45.6023 87.9269 45.0194 84.5964C44.9362 84.1801 44.8529 83.7637 44.6864 83.3474C44.3533 82.4315 43.5207 82.598 42.688 82.5148C41.3558 82.4315 40.1068 82.5148 38.7746 82.0984C36.4432 81.0993 34.1118 80.1834 31.6972 79.6005C30.1984 79.1842 28.5331 79.5173 27.2842 80.5164L27.0344 80.683L26.7846 80.5164C25.5356 79.6005 23.3708 79.9336 22.6214 81.4323C21.7887 82.7646 22.2883 85.0127 23.9536 84.9294C25.4524 85.0127 27.7838 84.8462 29.2825 84.8462C31.0311 84.8462 32.8629 85.0127 34.2784 83.7637L34.3616 84.0968C30.6147 83.0144 26.8678 85.429 23.2042 85.9286L23.3708 85.7621C23.2042 88.0935 24.4532 90.4249 26.8678 90.6747C33.7788 92.2567 40.1901 88.1767 44.5198 83.0144L44.6864 83.3474C41.4391 84.2633 38.0252 84.4298 34.7779 83.9303H34.6947V83.847C35.3608 78.6846 36.0269 70.7745 36.6097 65.6121C37.3591 66.8611 37.7755 68.3599 37.1926 69.7754C36.693 71.1076 34.9445 72.1068 33.6122 71.4406C32.9461 71.1076 32.5298 70.4415 31.947 70.0251C31.3641 69.6088 30.698 69.5256 30.0319 69.6088C29.116 69.6921 27.534 70.0251 26.9511 70.7745L26.7013 70.6913C27.867 70.6913 28.9494 69.8586 29.8654 69.1925L29.2825 70.4415C27.3674 74.6879 20.623 74.1051 18.5414 70.3582C17.7088 68.6929 18.708 67.0276 19.1243 65.5289C19.2908 64.7795 19.4573 63.9469 19.6239 63.1142C20.1235 59.8669 20.623 56.6196 20.4565 53.3723C20.29 50.125 19.5406 46.8777 18.4582 43.8802C16.3766 43.3806 13.4623 41.3823 10.9644 40.7162C8.05015 39.8003 4.63632 39.3839 2.38819 37.0525C1.47229 36.0534 2.80451 34.8877 3.72042 34.5546C5.05264 33.8885 6.46813 34.2216 7.88363 34.3881C16.1268 35.8868 20.3732 39.3839 19.1243 48.2099L19.041 48.543L18.7912 48.2099C18.1251 47.294 17.2092 46.8777 16.3766 47.8769C14.5448 49.6254 11.8803 49.9585 9.46564 49.7087C8.29994 49.5422 7.05098 49.3756 5.88528 48.8761L4.22 47.9601C6.13508 47.7936 8.13342 47.7104 10.1318 47.7104C14.2117 47.5438 18.2916 46.961 22.2883 46.5447C24.9528 46.2116 27.7005 46.1283 30.4482 45.7953C33.1127 45.379 35.8604 44.8794 38.6081 44.7128C40.6897 44.7961 42.8546 44.7961 44.7696 44.3798C47.5174 43.7137 50.3483 42.7978 53.0961 42.3814C53.6789 42.2982 54.6781 42.0484 55.1777 41.8819L55.0944 42.1317C53.1793 39.6337 51.3475 36.886 49.4324 34.4714C47.6839 34.4714 45.9353 34.4714 44.1868 34.8044C41.6056 35.304 39.1077 36.2199 36.7763 37.4689C35.1943 38.3848 33.6955 39.3839 31.8637 39.6337C29.9486 40.0501 27.3674 38.9676 27.0344 36.7195C26.9511 35.0542 28.2001 33.8052 29.449 32.8893C33.7788 30.3914 38.9412 29.9751 43.7705 29.309C44.0203 29.309 44.1868 29.3922 44.4366 29.3922L44.3533 29.5588C31.8637 20.8993 19.7071 11.5737 7.80036 2.0816L6.63466 1.08243C6.21834 0.749377 5.88528 0.416319 5.46896 0.0832629L5.88528 0C1.63881 10.075 -1.52522 21.5654 1.30576 32.473C2.63798 37.0525 5.05265 41.3823 5.13591 46.2949C5.21917 47.8769 5.21917 49.4589 5.30244 51.0409C5.88528 59.0343 8.96606 66.5281 12.4631 73.6055C15.2941 79.2675 18.3749 84.9294 21.3724 90.5914C24.3699 95.9203 26.8678 102.831 33.2792 104.83C39.6073 106.661 45.8521 103.248 51.181 100.083C57.176 97.6688 62.5882 93.6722 67.6673 90.3416Z" fill="#4B6049"/>
</svg>
