<svg width="100" height="58" viewBox="0 0 100 58" fill="none" xmlns="http://www.w3.org/2000/svg">
<path d="M47.0331 38.7535C46.7455 38.7535 46.4672 38.6757 46.1984 38.52C45.9343 38.3644 45.7315 38.1592 45.59 37.9046V38.6757H45.3636V33.37H45.59V36.2987C45.7173 36.0299 45.9154 35.8153 46.1842 35.655C46.4531 35.4946 46.736 35.4145 47.0331 35.4145C47.3397 35.4145 47.6203 35.4899 47.875 35.6408C48.1344 35.7918 48.3395 35.9946 48.4904 36.2492C48.6413 36.5039 48.7168 36.7821 48.7168 37.084C48.7168 37.3858 48.6413 37.6641 48.4904 37.9187C48.3395 38.1734 48.1344 38.3762 47.875 38.5271C47.6203 38.678 47.3397 38.7535 47.0331 38.7535ZM47.0473 38.5554C47.3067 38.5554 47.5472 38.4894 47.7689 38.3573C47.9905 38.2206 48.165 38.0413 48.2923 37.8197C48.4244 37.5933 48.4904 37.3481 48.4904 37.084C48.4904 36.8246 48.4244 36.5817 48.2923 36.3553C48.1603 36.129 47.9834 35.9498 47.7618 35.8177C47.5401 35.6809 47.2996 35.6126 47.0402 35.6126C46.7808 35.6126 46.5379 35.6809 46.3116 35.8177C46.0899 35.9545 45.9107 36.136 45.7739 36.3624C45.6419 36.5888 45.5759 36.8317 45.5759 37.091C45.5759 37.3504 45.6419 37.5933 45.7739 37.8197C45.9107 38.0413 46.0923 38.2206 46.3187 38.3573C46.545 38.4894 46.7879 38.5554 47.0473 38.5554ZM50.975 38.5625C51.2202 38.5625 51.4537 38.4988 51.6753 38.3715C51.897 38.2441 52.0809 38.0696 52.2271 37.848V38.2088C52.0526 38.4021 51.8616 38.5436 51.6541 38.6332C51.4466 38.7181 51.2108 38.7605 50.9467 38.7605C50.6543 38.7605 50.3784 38.6827 50.119 38.5271C49.8643 38.3715 49.6592 38.164 49.5036 37.9046C49.3527 37.6452 49.2772 37.3693 49.2772 37.0769C49.2772 36.7609 49.3527 36.478 49.5036 36.228C49.6545 35.9733 49.8596 35.7753 50.119 35.6338C50.3831 35.4923 50.6755 35.4215 50.9962 35.4215C51.4867 35.4215 51.9041 35.6149 52.2483 36.0016L50.0271 38.1946C50.1827 38.322 50.3336 38.4163 50.4798 38.4776C50.626 38.5342 50.7911 38.5625 50.975 38.5625ZM49.5036 37.0557C49.5036 37.4471 49.6333 37.782 49.8926 38.0602L51.9654 36.0016C51.8097 35.8649 51.6588 35.7682 51.5126 35.7116C51.3664 35.6503 51.1919 35.6196 50.9891 35.6196C50.7015 35.6196 50.4444 35.6833 50.2181 35.8106C49.9964 35.9332 49.8219 36.103 49.6946 36.32C49.5672 36.5369 49.5036 36.7821 49.5036 37.0557ZM54.4556 38.7535C54.1538 38.7535 53.8732 38.678 53.6138 38.5271C53.3544 38.3762 53.1493 38.1734 52.9984 37.9187C52.8474 37.6593 52.772 37.3811 52.772 37.084C52.772 36.7869 52.8474 36.511 52.9984 36.2563C53.1493 35.9969 53.3544 35.7918 53.6138 35.6408C53.8732 35.4899 54.1538 35.4145 54.4556 35.4145C54.7622 35.4145 55.0522 35.497 55.3258 35.6621C55.5993 35.8224 55.7903 36.0323 55.8988 36.2917V35.4923H56.1251V38.6757H55.8988V37.8834C55.7714 38.1475 55.5734 38.3597 55.3045 38.52C55.0404 38.6757 54.7575 38.7535 54.4556 38.7535ZM54.4698 38.5554C54.7292 38.5554 54.9697 38.4894 55.1914 38.3573C55.413 38.2206 55.5875 38.0413 55.7148 37.8197C55.8469 37.5933 55.9129 37.3481 55.9129 37.084C55.9129 36.8246 55.8469 36.5817 55.7148 36.3553C55.5828 36.129 55.4059 35.9498 55.1843 35.8177C54.9626 35.6809 54.7221 35.6126 54.4627 35.6126C54.2033 35.6126 53.9604 35.6809 53.7341 35.8177C53.5124 35.9545 53.3332 36.136 53.1964 36.3624C53.0644 36.5888 52.9984 36.8317 52.9984 37.091C52.9984 37.3504 53.0644 37.5933 53.1964 37.8197C53.3332 38.0413 53.5148 38.2206 53.7412 38.3573C53.9675 38.4894 54.2104 38.5554 54.4698 38.5554ZM58.4187 38.7535C57.9707 38.7535 57.6241 38.6309 57.3788 38.3856C57.1383 38.1404 57.018 37.7937 57.018 37.3457V35.4923H57.2444V37.3457C57.2444 37.7324 57.3458 38.0319 57.5486 38.2441C57.7561 38.4516 58.0461 38.5554 58.4187 38.5554C58.6451 38.5554 58.8526 38.5059 59.0412 38.4068C59.2299 38.3031 59.3784 38.1592 59.4869 37.9753C59.5954 37.7914 59.6496 37.5815 59.6496 37.3457V35.4923H59.876V38.6757H59.6496V38.0814C59.5411 38.2795 59.3784 38.4422 59.1615 38.5695C58.9446 38.6922 58.697 38.7535 58.4187 38.7535ZM61.9082 38.7181C61.5592 38.7181 61.2692 38.612 61.0381 38.3998C60.8117 38.1875 60.6985 37.8951 60.6985 37.5226V34.2119H60.9249V35.4923H61.9011V35.6904H60.9249V37.5226C60.9249 37.8338 61.0169 38.0791 61.2008 38.2583C61.3894 38.4328 61.6252 38.52 61.9082 38.52V38.7181ZM63.8191 40.0834C63.2909 40.0834 62.8735 39.8948 62.5669 39.5175V39.1567C62.7226 39.4019 62.8994 39.5835 63.0975 39.7014C63.2956 39.824 63.5267 39.8853 63.7908 39.8853C64.0596 39.8853 64.2883 39.8287 64.477 39.7156C64.6703 39.6024 64.8165 39.4467 64.9156 39.2487C65.0146 39.0553 65.0641 38.8384 65.0641 38.5978V38.0602C64.9509 38.2819 64.7788 38.454 64.5477 38.5766C64.3213 38.6945 64.0737 38.7535 63.8049 38.7535C63.5361 38.7535 63.2979 38.6945 63.0904 38.5766C62.8829 38.4587 62.7202 38.2937 62.6023 38.0814C62.4891 37.8692 62.4325 37.624 62.4325 37.3457V35.4923H62.6589V37.3457C62.6589 37.6004 62.7108 37.8197 62.8145 38.0036C62.923 38.1828 63.0645 38.3196 63.239 38.4139C63.4135 38.5082 63.6045 38.5554 63.812 38.5554C64.0384 38.5554 64.2482 38.5012 64.4416 38.3927C64.6349 38.2795 64.7859 38.1309 64.8943 37.947C65.0075 37.7584 65.0641 37.5579 65.0641 37.3457V35.4923H65.2905V38.5766C65.2905 38.8596 65.2315 39.1143 65.1136 39.3406C65.0004 39.5717 64.833 39.7533 64.6114 39.8853C64.3897 40.0174 64.1256 40.0834 63.8191 40.0834ZM68.8735 38.7393C68.6518 38.7393 68.449 38.6898 68.2651 38.5908C68.0812 38.487 67.935 38.3432 67.8265 38.1592C67.718 37.9753 67.6638 37.7702 67.6638 37.5438V33.37H67.8902V37.5438C67.8902 37.7324 67.9326 37.9022 68.0175 38.0531C68.1071 38.204 68.2274 38.3243 68.3783 38.4139C68.5292 38.4988 68.6943 38.5413 68.8735 38.5413V38.7393ZM71.1048 38.7535C70.8029 38.7535 70.5223 38.678 70.2629 38.5271C70.0036 38.3762 69.7984 38.1734 69.6475 37.9187C69.4966 37.6593 69.4211 37.3811 69.4211 37.084C69.4211 36.7869 69.4966 36.511 69.6475 36.2563C69.7984 35.9969 70.0036 35.7918 70.2629 35.6408C70.5223 35.4899 70.8029 35.4145 71.1048 35.4145C71.4113 35.4145 71.7014 35.497 71.9749 35.6621C72.2484 35.8224 72.4394 36.0323 72.5479 36.2917V35.4923H72.7743V38.6757H72.5479V37.8834C72.4206 38.1475 72.2225 38.3597 71.9537 38.52C71.6896 38.6757 71.4066 38.7535 71.1048 38.7535ZM71.1189 38.5554C71.3783 38.5554 71.6188 38.4894 71.8405 38.3573C72.0621 38.2206 72.2366 38.0413 72.364 37.8197C72.496 37.5933 72.562 37.3481 72.562 37.084C72.562 36.8246 72.496 36.5817 72.364 36.3553C72.2319 36.129 72.0551 35.9498 71.8334 35.8177C71.6118 35.6809 71.3712 35.6126 71.1118 35.6126C70.8525 35.6126 70.6096 35.6809 70.3832 35.8177C70.1615 35.9545 69.9823 36.136 69.8456 36.3624C69.7135 36.5888 69.6475 36.8317 69.6475 37.091C69.6475 37.3504 69.7135 37.5933 69.8456 37.8197C69.9823 38.0413 70.1639 38.2206 70.3903 38.3573C70.6167 38.4894 70.8595 38.5554 71.1189 38.5554ZM75.3367 38.7535C75.049 38.7535 74.7707 38.6757 74.5019 38.52C74.2378 38.3644 74.035 38.1592 73.8935 37.9046V38.6757H73.6672V33.37H73.8935V36.2987C74.0209 36.0299 74.2189 35.8153 74.4878 35.655C74.7566 35.4946 75.0395 35.4145 75.3367 35.4145C75.6432 35.4145 75.9238 35.4899 76.1785 35.6408C76.4379 35.7918 76.643 35.9946 76.7939 36.2492C76.9449 36.5039 77.0203 36.7821 77.0203 37.084C77.0203 37.3858 76.9449 37.6641 76.7939 37.9187C76.643 38.1734 76.4379 38.3762 76.1785 38.5271C75.9238 38.678 75.6432 38.7535 75.3367 38.7535ZM75.3508 38.5554C75.6102 38.5554 75.8507 38.4894 76.0724 38.3573C76.294 38.2206 76.4685 38.0413 76.5959 37.8197C76.7279 37.5933 76.7939 37.3481 76.7939 37.084C76.7939 36.8246 76.7279 36.5817 76.5959 36.3553C76.4638 36.129 76.287 35.9498 76.0653 35.8177C75.8436 35.6809 75.6031 35.6126 75.3437 35.6126C75.0844 35.6126 74.8415 35.6809 74.6151 35.8177C74.3934 35.9545 74.2142 36.136 74.0775 36.3624C73.9454 36.5888 73.8794 36.8317 73.8794 37.091C73.8794 37.3504 73.9454 37.5933 74.0775 37.8197C74.2142 38.0413 74.3958 38.2206 74.6222 38.3573C74.8485 38.4894 75.0914 38.5554 75.3508 38.5554ZM79.2431 38.7888C78.9224 38.7888 78.6324 38.711 78.373 38.5554C78.1136 38.3951 77.9108 38.1852 77.7646 37.9258C77.6184 37.6617 77.5453 37.3764 77.5453 37.0698C77.5453 36.768 77.6184 36.4874 77.7646 36.228C77.9156 35.9686 78.1183 35.7635 78.373 35.6126C78.6324 35.4569 78.9201 35.3791 79.2361 35.3791C79.5473 35.3791 79.8303 35.4569 80.085 35.6126C80.3444 35.7635 80.5471 35.9686 80.6933 36.228C80.8395 36.4874 80.9126 36.768 80.9126 37.0698C80.9126 37.3858 80.8419 37.6758 80.7004 37.9399C80.5589 38.1993 80.3609 38.4068 80.1062 38.5625C79.8562 38.7134 79.5686 38.7888 79.2431 38.7888ZM79.2431 38.5908C79.512 38.5908 79.7572 38.5224 79.9789 38.3856C80.2005 38.2489 80.3726 38.0673 80.4953 37.8409C80.6226 37.6098 80.6863 37.3575 80.6863 37.084C80.6863 36.8152 80.6226 36.5652 80.4953 36.3341C80.3679 36.103 80.1934 35.9191 79.9718 35.7823C79.7501 35.6456 79.5049 35.5772 79.2361 35.5772C78.9672 35.5772 78.7197 35.6479 78.4933 35.7894C78.2716 35.9262 78.0948 36.1101 77.9627 36.3412C77.8354 36.5723 77.7717 36.8222 77.7717 37.091C77.7717 37.3599 77.8354 37.6098 77.9627 37.8409C78.0948 38.0673 78.2716 38.2489 78.4933 38.3856C78.7197 38.5224 78.9696 38.5908 79.2431 38.5908ZM81.5496 35.4923H81.776V36.228C81.8703 35.9969 82.0071 35.8153 82.1863 35.6833C82.3702 35.5512 82.5777 35.4852 82.8088 35.4852C82.955 35.4852 83.1035 35.5159 83.2545 35.5772V35.8389C83.1177 35.7352 82.9644 35.6833 82.7946 35.6833C82.6249 35.6833 82.4598 35.7352 82.2995 35.8389C82.1438 35.9427 82.0165 36.0818 81.9174 36.2563C81.8231 36.4308 81.776 36.6171 81.776 36.8152V38.6757H81.5496V35.4923ZM85.3153 38.7535C85.0134 38.7535 84.7328 38.678 84.4734 38.5271C84.214 38.3762 84.0089 38.1734 83.858 37.9187C83.7071 37.6593 83.6316 37.3811 83.6316 37.084C83.6316 36.7869 83.7071 36.511 83.858 36.2563C84.0089 35.9969 84.214 35.7918 84.4734 35.6408C84.7328 35.4899 85.0134 35.4145 85.3153 35.4145C85.6218 35.4145 85.9118 35.497 86.1854 35.6621C86.4589 35.8224 86.6499 36.0323 86.7584 36.2917V35.4923H86.9848V38.6757H86.7584V37.8834C86.631 38.1475 86.433 38.3597 86.1642 38.52C85.9001 38.6757 85.6171 38.7535 85.3153 38.7535ZM85.3294 38.5554C85.5888 38.5554 85.8293 38.4894 86.051 38.3573C86.2726 38.2206 86.4471 38.0413 86.5745 37.8197C86.7065 37.5933 86.7725 37.3481 86.7725 37.084C86.7725 36.8246 86.7065 36.5817 86.5745 36.3553C86.4424 36.129 86.2655 35.9498 86.0439 35.8177C85.8222 35.6809 85.5817 35.6126 85.3223 35.6126C85.0629 35.6126 84.8201 35.6809 84.5937 35.8177C84.372 35.9545 84.1928 36.136 84.0561 36.3624C83.924 36.5888 83.858 36.8317 83.858 37.091C83.858 37.3504 83.924 37.5933 84.0561 37.8197C84.1928 38.0413 84.3744 38.2206 84.6008 38.3573C84.8271 38.4894 85.07 38.5554 85.3294 38.5554ZM89.0166 38.7181C88.6676 38.7181 88.3776 38.612 88.1465 38.3998C87.9201 38.1875 87.8069 37.8951 87.8069 37.5226V34.2119H88.0333V35.4923H89.0095V35.6904H88.0333V37.5226C88.0333 37.8338 88.1252 38.0791 88.3092 38.2583C88.4978 38.4328 88.7336 38.52 89.0166 38.52V38.7181ZM91.1255 38.7888C90.8048 38.7888 90.5148 38.711 90.2554 38.5554C89.996 38.3951 89.7932 38.1852 89.647 37.9258C89.5008 37.6617 89.4277 37.3764 89.4277 37.0698C89.4277 36.768 89.5008 36.4874 89.647 36.228C89.7979 35.9686 90.0007 35.7635 90.2554 35.6126C90.5148 35.4569 90.8025 35.3791 91.1184 35.3791C91.4297 35.3791 91.7127 35.4569 91.9673 35.6126C92.2267 35.7635 92.4295 35.9686 92.5757 36.228C92.7219 36.4874 92.795 36.768 92.795 37.0698C92.795 37.3858 92.7243 37.6758 92.5828 37.9399C92.4413 38.1993 92.2432 38.4068 91.9886 38.5625C91.7386 38.7134 91.4509 38.7888 91.1255 38.7888ZM91.1255 38.5908C91.3943 38.5908 91.6396 38.5224 91.8612 38.3856C92.0829 38.2489 92.255 38.0673 92.3776 37.8409C92.505 37.6098 92.5686 37.3575 92.5686 37.084C92.5686 36.8152 92.505 36.5652 92.3776 36.3341C92.2503 36.103 92.0758 35.9191 91.8541 35.7823C91.6325 35.6456 91.3873 35.5772 91.1184 35.5772C90.8496 35.5772 90.602 35.6479 90.3757 35.7894C90.154 35.9262 89.9771 36.1101 89.8451 36.3412C89.7178 36.5723 89.6541 36.8222 89.6541 37.091C89.6541 37.3599 89.7178 37.6098 89.8451 37.8409C89.9771 38.0673 90.154 38.2489 90.3757 38.3856C90.602 38.5224 90.852 38.5908 91.1255 38.5908ZM93.432 35.4923H93.6583V36.228C93.7527 35.9969 93.8894 35.8153 94.0686 35.6833C94.2526 35.5512 94.4601 35.4852 94.6912 35.4852C94.8374 35.4852 94.9859 35.5159 95.1368 35.5772V35.8389C95.0001 35.7352 94.8468 35.6833 94.677 35.6833C94.5072 35.6833 94.3422 35.7352 94.1818 35.8389C94.0262 35.9427 93.8989 36.0818 93.7998 36.2563C93.7055 36.4308 93.6583 36.6171 93.6583 36.8152V38.6757H93.432V35.4923ZM97.0137 40.0834C96.4855 40.0834 96.0681 39.8948 95.7616 39.5175V39.1567C95.9172 39.4019 96.0941 39.5835 96.2921 39.7014C96.4902 39.824 96.7213 39.8853 96.9854 39.8853C97.2542 39.8853 97.4829 39.8287 97.6716 39.7156C97.8649 39.6024 98.0111 39.4467 98.1102 39.2487C98.2092 39.0553 98.2587 38.8384 98.2587 38.5978V38.0602C98.1456 38.2819 97.9734 38.454 97.7423 38.5766C97.516 38.6945 97.2684 38.7535 96.9995 38.7535C96.7307 38.7535 96.4926 38.6945 96.2851 38.5766C96.0775 38.4587 95.9148 38.2937 95.7969 38.0814C95.6838 37.8692 95.6272 37.624 95.6272 37.3457V35.4923H95.8535V37.3457C95.8535 37.6004 95.9054 37.8197 96.0092 38.0036C96.1176 38.1828 96.2591 38.3196 96.4336 38.4139C96.6081 38.5082 96.7991 38.5554 97.0066 38.5554C97.233 38.5554 97.4429 38.5012 97.6362 38.3927C97.8296 38.2795 97.9805 38.1309 98.089 37.947C98.2021 37.7584 98.2587 37.5579 98.2587 37.3457V35.4923H98.4851V38.5766C98.4851 38.8596 98.4262 39.1143 98.3083 39.3406C98.1951 39.5717 98.0277 39.7533 97.806 39.8853C97.5843 40.0174 97.3202 40.0834 97.0137 40.0834Z" fill="white"/>
<path d="M32.3994 31.8914H31.8334L29.5374 27.2669H23.1019L20.8544 31.8914H20.2884L26.3358 19.4732L32.3994 31.8914ZM29.3433 26.798L26.3035 20.6374L23.3283 26.798H29.3433ZM34.2019 19.7642H38.5515V20.2332H34.7355V26.8303H37.9209V27.2992H34.7355V31.4224H38.5515V31.8914H34.2019V19.7642ZM42.7883 32.1177C41.4408 32.1177 40.3952 31.5626 39.6514 30.4523V29.5791C39.9424 30.2259 40.3628 30.7325 40.9126 31.0991C41.4731 31.4656 42.1415 31.6488 42.9176 31.6488C43.4566 31.6488 43.9525 31.5302 44.4052 31.2931C44.8687 31.0559 45.2353 30.7218 45.5047 30.2906C45.7742 29.8594 45.909 29.3635 45.909 28.803C45.909 28.2963 45.8227 27.8598 45.6503 27.4933C45.4778 27.1267 45.1921 26.7764 44.7933 26.4422C44.3944 26.0973 43.8177 25.6931 43.0631 25.2295L42.5457 24.9061C42.0714 24.6151 41.6887 24.3564 41.3977 24.13C41.1066 23.9036 40.8533 23.6395 40.6377 23.3377C40.3575 22.9173 40.2173 22.4322 40.2173 21.8824C40.2173 21.1494 40.4545 20.5781 40.9288 20.1685C41.4031 19.7588 42.0067 19.554 42.7398 19.554C43.7315 19.554 44.5184 19.9205 45.1005 20.6536V21.4782C44.8526 21.0255 44.513 20.6697 44.0818 20.411C43.6506 20.1523 43.1763 20.023 42.6589 20.023C42.1199 20.023 41.6672 20.19 41.3007 20.5242C40.9342 20.8584 40.7509 21.3057 40.7509 21.8663C40.7509 22.416 40.918 22.8903 41.2522 23.2892C41.5971 23.6773 42.1738 24.1031 42.9823 24.5666C43.974 25.1487 44.7448 25.6769 45.2945 26.1512C45.6826 26.5069 45.9629 26.9004 46.1354 27.3316C46.3186 27.7627 46.4102 28.2424 46.4102 28.7706C46.4102 29.439 46.2539 30.0265 45.9413 30.5331C45.6287 31.0398 45.1975 31.4332 44.6478 31.7135C44.098 31.983 43.4782 32.1177 42.7883 32.1177ZM49.2623 20.2332H46.4649V19.7642H52.5608V20.2332H49.7958V31.8914H49.2623V20.2332ZM54.1769 19.7642H54.7105V26.798H63.0216V19.7642H63.5552V31.8914H63.0216V27.2669H54.7105V31.8914H54.1769V19.7642ZM66.1145 19.7642H70.4641V20.2332H66.6481V26.8303H69.8335V27.2992H66.6481V31.4224H70.4641V31.8914H66.1145V19.7642ZM74.0218 20.2332H71.2245V19.7642H77.3204V20.2332H74.5554V31.8914H74.0218V20.2332ZM21.1292 38.7642H21.6628V50.8914H21.1292V38.7642ZM29.9929 51.2147C28.861 51.2147 27.8208 50.9399 26.8722 50.3901C25.9236 49.8296 25.169 49.0642 24.6085 48.094C24.0587 47.1131 23.7838 46.0136 23.7838 44.7955C23.7838 43.6205 24.0695 42.5479 24.6408 41.5777C25.2229 40.6076 25.9936 39.8422 26.953 39.2817C27.9232 38.7211 28.9527 38.4408 30.0414 38.4408C30.796 38.4408 31.3942 38.5109 31.8362 38.6511C32.2782 38.7804 32.7902 39.0122 33.3723 39.3463V39.9446C32.8226 39.5673 32.3105 39.3032 31.8362 39.1523C31.3727 38.9906 30.7906 38.9098 30.0899 38.9098C29.0227 38.9098 28.0472 39.1846 27.1632 39.7344C26.2901 40.2734 25.5948 41.001 25.0774 41.9173C24.5707 42.8228 24.3174 43.7983 24.3174 44.844C24.3174 45.9004 24.5761 46.8813 25.0935 47.7868C25.611 48.6923 26.2955 49.4145 27.1471 49.9535C28.0094 50.4817 28.9365 50.7458 29.9282 50.7458C30.6397 50.7458 31.2595 50.665 31.7877 50.5033C32.3159 50.3308 32.8441 50.0667 33.3723 49.711V50.3093C32.8549 50.6219 32.3213 50.8482 31.7715 50.9884C31.2326 51.1393 30.6397 51.2147 29.9929 51.2147ZM38.209 51.1177C36.8616 51.1177 35.8159 50.5626 35.0721 49.4523V48.5791C35.3632 49.2259 35.7836 49.7325 36.3334 50.0991C36.8939 50.4656 37.5622 50.6488 38.3384 50.6488C38.8774 50.6488 39.3732 50.5302 39.826 50.2931C40.2895 50.0559 40.656 49.7218 40.9255 49.2906C41.195 48.8594 41.3297 48.3635 41.3297 47.803C41.3297 47.2963 41.2435 46.8598 41.071 46.4933C40.8985 46.1267 40.6129 45.7764 40.214 45.4422C39.8152 45.0973 39.2385 44.6931 38.4839 44.2295L37.9665 43.9061C37.4922 43.6151 37.1095 43.3564 36.8184 43.13C36.5274 42.9036 36.2741 42.6395 36.0585 42.3377C35.7782 41.9173 35.6381 41.4322 35.6381 40.8824C35.6381 40.1494 35.8752 39.5781 36.3495 39.1685C36.8238 38.7588 37.4275 38.554 38.1605 38.554C39.1522 38.554 39.9392 38.9205 40.5213 39.6536V40.4782C40.2733 40.0255 39.9338 39.6697 39.5026 39.411C39.0714 39.1523 38.5971 39.023 38.0797 39.023C37.5407 39.023 37.0879 39.19 36.7214 39.5242C36.3549 39.8584 36.1717 40.3057 36.1717 40.8663C36.1717 41.416 36.3387 41.8903 36.6729 42.2892C37.0179 42.6773 37.5946 43.1031 38.403 43.5666C39.3948 44.1487 40.1655 44.6769 40.7153 45.1512C41.1034 45.5069 41.3836 45.9004 41.5561 46.3316C41.7394 46.7627 41.831 47.2424 41.831 47.7706C41.831 48.439 41.6747 49.0265 41.3621 49.5331C41.0495 50.0398 40.6183 50.4332 40.0685 50.7135C39.5187 50.983 38.8989 51.1177 38.209 51.1177Z" fill="white"/>
<path d="M27.4936 36.3337C25.3961 37.8407 23.2309 39.2806 20.9981 40.5866C18.833 41.8926 16.2956 43.2991 13.6907 42.5289C11.0519 41.7252 10.0031 38.9457 8.78523 36.7691C7.56732 34.4919 6.31559 32.2483 5.13151 29.9376C3.67679 27.0912 2.42506 24.0104 2.15441 20.7956C2.08675 20.1594 2.12058 19.4896 2.05292 18.8533C1.98526 16.9111 1.038 15.1697 0.462875 13.3279C-0.75503 8.90762 0.632029 4.28638 2.28973 0.133952L2.32356 0C2.52655 0.133949 2.76336 0.301389 2.93252 0.468825C7.70265 4.68823 12.8449 8.50578 18.1225 12.0219L18.1902 12.0889C18.0887 12.1224 17.9534 12.1559 17.8519 12.1894C16.4648 12.4238 15.0101 12.6582 13.7245 13.2275C12.9126 13.5958 12.1683 13.9307 11.6947 14.6005C11.424 14.9688 11.6608 15.3372 12.033 15.5716C12.9464 16.0404 14.0628 15.4711 14.8748 15.0358C16.4986 14.3326 18.3255 13.8637 20.1185 14.0312C20.8966 15.0358 21.7762 16.0404 22.5205 17.045L22.5882 17.112C22.419 17.1455 22.2499 17.1455 22.0807 17.2125C20.7951 17.5473 19.6787 18.2506 18.427 18.7194C17.5812 18.9538 16.4648 18.8534 15.7205 18.7194C15.1792 18.6859 14.6041 18.6189 14.0628 18.552C12.4051 18.5185 10.7474 18.8199 9.12354 18.9873C7.46583 19.1547 5.80813 19.2552 4.18425 19.5231C3.64296 19.6236 3.10167 19.7575 2.56038 19.8245L2.62804 19.4226C3.43998 19.8915 4.38724 19.791 5.26684 19.6236C5.87579 19.5566 6.31559 19.2217 6.78922 18.9203C7.19519 18.7194 7.63499 19.0878 7.77031 19.4561L7.66882 19.4896C7.80414 17.9492 7.49966 16.3083 6.24793 15.3037C5.23301 14.5335 3.74445 13.9642 2.39123 13.9307C1.88377 13.8972 1.20715 14.1316 1.00417 14.6005C0.936506 14.8349 1.20715 15.0358 1.41014 15.1697C2.12058 15.6386 2.93252 15.8395 3.74445 16.0069C5.16534 16.3083 6.48474 16.9111 7.66882 17.7148C8.07479 18.9873 8.34543 20.2598 8.41309 21.5993C8.48075 23.2402 8.24394 24.8811 7.93946 26.5219C7.80414 27.1247 7.432 27.761 7.73648 28.3637C8.21011 29.2009 9.32652 29.5023 10.24 29.4018C10.8489 29.3014 11.424 28.933 11.6608 28.3637L11.8977 28.5312C11.5932 28.7656 11.221 28.8995 10.8489 28.8995C10.5783 28.7321 10.6798 28.3972 10.8827 28.2298C11.0181 28.1293 11.1872 28.0624 11.3564 28.0289C11.9315 27.8949 12.6081 27.8279 13.1156 28.2298C13.3524 28.4307 13.4877 28.6986 13.7583 28.7991C14.2658 29.067 14.9424 28.6986 15.1454 28.1963C15.3822 27.6605 15.1792 27.0243 14.9424 26.5554C14.7056 28.6986 14.435 31.746 14.2658 33.8891L14.232 33.8557C14.9086 33.9561 15.5852 33.9561 16.228 33.8891C16.9723 33.8557 17.7165 33.6882 18.4608 33.4873C17.1752 34.9607 15.7205 36.3672 13.826 37.0035C12.6081 37.4388 11.0181 37.4723 10.0708 36.4677C9.56334 35.9654 9.42801 35.2621 9.49568 34.5924C10.2738 34.5254 11.0181 34.224 11.7962 34.0231C12.5743 33.7887 13.4539 33.6547 14.2658 33.8557C13.9952 34.1905 13.5554 34.3915 13.1494 34.4919C12.5066 34.6594 11.5932 34.5924 10.9166 34.6259C10.3414 34.5924 9.69866 34.7598 9.1912 34.4249C8.68374 34.0231 8.68374 33.2194 8.98822 32.7171C9.39418 31.9804 10.4429 31.746 11.1534 32.2483H10.9504C11.221 32.0139 11.5593 31.8129 11.8977 31.679C12.9802 31.2771 14.0967 31.8129 15.0439 32.2483C15.6867 32.5497 16.1942 32.918 16.9046 32.9515C17.3782 33.052 18.1902 32.985 18.3255 33.5543C18.3593 33.7217 18.3255 33.8891 18.3593 34.0901C18.833 37.5058 20.1862 40.7206 21.8101 43.7344C23.2986 48.3222 23.4001 53.2113 23.5016 58C23.3663 53.9146 23.2309 49.7621 22.2499 45.7436C22.0807 44.3037 21.4041 43.1986 20.7951 41.9261C20.22 40.6871 19.7464 39.3811 19.3066 38.0751C18.8668 36.7691 18.5285 35.4296 18.2917 34.0901C18.2578 33.9226 18.224 33.7552 18.1563 33.5878C18.021 33.2194 17.6827 33.2864 17.3444 33.2529C16.8031 33.2194 16.2957 33.2529 15.7544 33.0855C14.8071 32.6836 13.8598 32.3152 12.8787 32.0808C12.2698 31.9134 11.5932 32.0473 11.0857 32.4492L10.9842 32.5162L10.8827 32.4492C10.3753 32.0808 9.49568 32.2148 9.1912 32.8176C8.85289 33.3534 9.05588 34.2575 9.73249 34.224C10.3414 34.2575 11.2887 34.1905 11.8977 34.1905C12.6081 34.1905 13.3524 34.2575 13.9275 33.7552L13.9613 33.8891C12.4389 33.4538 10.9166 34.4249 9.42801 34.6259L9.49568 34.5589C9.42801 35.4965 9.93547 36.4342 10.9166 36.5346C13.7245 37.1709 16.3295 35.53 18.0887 33.4538L18.1563 33.5878C16.8369 33.9561 15.4499 34.0231 14.1305 33.8222H14.0967V33.7887C14.3673 31.7125 14.6379 28.5312 14.8748 26.455C15.1792 26.9573 15.3484 27.5601 15.1116 28.1293C14.9086 28.6651 14.1981 29.067 13.6569 28.7991C13.3862 28.6651 13.2171 28.3972 12.9802 28.2298C12.7434 28.0624 12.4728 28.0289 12.2021 28.0624C11.83 28.0958 11.1872 28.2298 10.9504 28.5312L10.8489 28.4977C11.3225 28.4977 11.7623 28.1628 12.1345 27.8949L11.8977 28.3972C11.1195 30.1051 8.37926 29.8707 7.53349 28.3637C7.19519 27.694 7.60115 27.0243 7.77031 26.4215C7.83797 26.1201 7.90563 25.7852 7.97329 25.4504C8.17628 24.1443 8.37926 22.8383 8.3116 21.5323C8.24394 20.2263 7.93946 18.9203 7.49966 17.7148C6.6539 17.5139 5.46982 16.7102 4.4549 16.4423C3.27083 16.0739 1.88377 15.9065 0.970336 14.9688C0.598198 14.567 1.13949 14.0982 1.51163 13.9642C2.05292 13.6963 2.62804 13.8303 3.20316 13.8972C6.5524 14.5 8.27777 15.9065 7.77031 19.4561L7.73648 19.5901L7.63499 19.4561C7.36434 19.0878 6.9922 18.9203 6.6539 19.3222C5.90962 20.0254 4.82704 20.1594 3.84595 20.0589C3.37232 19.9919 2.86486 19.9249 2.39123 19.724L1.71461 19.3557C2.49272 19.2887 3.30466 19.2552 4.11659 19.2552C5.7743 19.1882 7.432 18.9538 9.05588 18.7864C10.1385 18.6524 11.2549 18.6189 12.3713 18.485C13.4539 18.3176 14.5703 18.1166 15.6867 18.0497C16.5325 18.0831 17.4121 18.0831 18.1902 17.9157C19.3066 17.6478 20.4568 17.2794 21.5732 17.112C21.8101 17.0785 22.216 16.9781 22.419 16.9111L22.3852 17.0115C21.6071 16.0069 20.8628 14.9018 20.0847 13.9307C19.3742 13.9307 18.6638 13.9307 17.9534 14.0647C16.9046 14.2656 15.8897 14.6339 14.9424 15.1363C14.2996 15.5046 13.6907 15.9065 12.9464 16.0069C12.1683 16.1744 11.1195 15.739 10.9842 14.8349C10.9504 14.1651 11.4579 13.6628 11.9653 13.2945C13.7245 12.2898 15.822 12.1224 17.7842 11.8545C17.8857 11.8545 17.9534 11.888 18.0548 11.888L18.021 11.955C12.9464 8.47229 8.00712 4.72171 3.16933 0.904156L2.6957 0.50231C2.52655 0.36836 2.39123 0.234412 2.22207 0.100463L2.39123 0.0669736C0.66586 4.11894 -0.619707 8.74018 0.530537 13.127C1.07183 14.9688 2.05292 16.7102 2.08675 18.6859C2.12058 19.3222 2.12058 19.9584 2.15441 20.5947C2.39123 23.8095 3.64296 26.8233 5.06385 29.6697C6.2141 31.9469 7.46583 34.224 8.68374 36.5012C9.90164 38.6443 10.9166 41.4238 13.5215 42.2275C16.0927 42.9642 18.63 41.5912 20.7951 40.3187C23.2309 39.2806 25.4299 37.6732 27.4936 36.3337Z" fill="white"/>
</svg>
