<svg aria-hidden="true" style="position: absolute; width: 0; height: 0; overflow: hidden;" version="1.1" xmlns="http://www.w3.org/2000/svg" xmlns:xlink="http://www.w3.org/1999/xlink">
<defs>
<symbol id="icon-unchecked_filter" viewBox="0 0 32 32">
<path style="stroke: var(--color1, #484847)" stroke-linejoin="miter" stroke-linecap="butt" stroke-miterlimit="4" stroke-width="1.6" d="M0.8 0.8h30.4v30.4h-30.4v-30.4z"></path>
</symbol>
<symbol id="icon-inside_filter" viewBox="0 0 32 32">
<path  style="fill: var(--color2, #4b6049)" d="M0 0h32v32h-32v-32z"></path>
<path   style="stroke: var(--color1, #484847)" stroke-linejoin="miter" stroke-linecap="butt" stroke-miterlimit="4" stroke-width="3.2" d="M0 0h32v32h-32v-32z"></path>
</symbol>
<symbol id="icon-plus" viewBox="0 0 29 32">
<path  style="stroke: var(--color1, #484847)" stroke-linejoin="miter" stroke-linecap="butt" stroke-miterlimit="4" stroke-width="2.6667" d="M14.667 1.333v29.333"></path>
<path  style="stroke: var(--color1, #484847)" stroke-linejoin="miter" stroke-linecap="butt" stroke-miterlimit="4" stroke-width="2.6667" d="M29.333 16h-29.333"></path>
</symbol>
<symbol id="icon-minus" viewBox="0 0 32 32">
<path stroke="#484847" style="stroke: var(--color1, #484847)" stroke-linejoin="miter" stroke-linecap="butt" stroke-miterlimit="4" stroke-width="2.9091" d="M32 16h-32"></path>
</symbol>


<symbol id="icon-arrow_right" viewBox="0 0 189 32">
<path fill="#4b6049" style="fill: var(--color1, #4b6049)" d="M188.081 17.414c0.781-0.781 0.781-2.047 0-2.828l-12.728-12.728c-0.781-0.781-2.047-0.781-2.829 0s-0.781 2.047 0 2.828l11.314 11.314-11.314 11.314c-0.781 0.781-0.781 2.047 0 2.829s2.047 0.781 2.829 0l12.728-12.728zM0 18h186.667v-4h-186.667v4z"></path>
</symbol>
<symbol id="icon-email" viewBox="0 0 32 32">
<path fill="none" stroke="#4b6049" style="stroke: var(--color1, #4b6049)" stroke-linejoin="miter" stroke-linecap="butt" stroke-miterlimit="4" stroke-width="0.64" d="M31.68 16c0 8.66-7.020 15.68-15.68 15.68s-15.68-7.020-15.68-15.68c0-8.66 7.020-15.68 15.68-15.68s15.68 7.020 15.68 15.68z"></path>
<path fill="#4b6049" style="fill: var(--color1, #4b6049)" d="M7.587 9.775c-0.561 0-1.016 0.456-1.016 1.018v11.055c0 0.562 0.455 1.018 1.016 1.018h17.465c0.561 0 1.016-0.456 1.016-1.018v-11.055c0-0.562-0.455-1.018-1.016-1.018h-17.465zM5.12 10.793c0-1.366 1.105-2.473 2.467-2.473h17.465c1.363 0 2.467 1.107 2.467 2.473v11.055c0 1.366-1.105 2.473-2.467 2.473h-17.465c-1.363 0-2.467-1.107-2.467-2.473v-11.055z"></path>
<path fill="#4b6049" style="fill: var(--color1, #4b6049)" d="M7.306 8.758h18.264c0.286-0.002 0.565 0.085 0.799 0.249 0.235 0.165 0.413 0.4 0.509 0.671s0.104 0.566 0.024 0.843c-0.079 0.274-0.242 0.517-0.465 0.695l-9.132 7.423c-0.245 0.199-0.551 0.307-0.866 0.307s-0.621-0.109-0.866-0.307l-9.132-7.423c-0.223-0.178-0.386-0.421-0.465-0.695-0.080-0.277-0.072-0.571 0.024-0.843s0.273-0.506 0.509-0.671c0.234-0.164 0.513-0.251 0.799-0.249zM16.438 17.47l8.929-7.258h-17.859l8.929 7.258z"></path>
</symbol>
<symbol id="icon-address" viewBox="0 0 32 32">
<path fill="none" stroke="#4b6049" style="stroke: var(--color1, #4b6049)" stroke-linejoin="miter" stroke-linecap="butt" stroke-miterlimit="4" stroke-width="0.64" d="M31.68 16c0 8.66-7.020 15.68-15.68 15.68s-15.68-7.020-15.68-15.68c0-8.66 7.020-15.68 15.68-15.68s15.68 7.020 15.68 15.68z"></path>
<path fill="#4b6049" style="fill: var(--color1, #4b6049)" d="M16 7.125c-1.494 0-2.926 0.575-3.982 1.599s-1.65 2.413-1.65 3.861c0 0.689 0.345 1.809 0.947 3.188 0.588 1.348 1.378 2.849 2.174 4.257 0.795 1.406 1.592 2.709 2.19 3.662 0.144 0.229 0.276 0.437 0.394 0.622 0.114-0.183 0.241-0.389 0.38-0.615 0.583-0.953 1.359-2.256 2.135-3.662 0.777-1.408 1.547-2.909 2.12-4.258 0.587-1.379 0.924-2.501 0.924-3.193 0-1.448-0.593-2.837-1.65-3.861s-2.489-1.599-3.982-1.599zM16.080 25.608c-0.592 0.369-0.592 0.369-0.592 0.369l-0-0-0.019-0.029c-0.012-0.019-0.031-0.047-0.055-0.083-0.048-0.073-0.117-0.179-0.206-0.316-0.177-0.273-0.429-0.666-0.732-1.149-0.605-0.964-1.413-2.286-2.221-3.715-0.807-1.427-1.622-2.973-2.237-4.381-0.601-1.378-1.058-2.727-1.058-3.72 0-1.81 0.742-3.546 2.062-4.826s3.111-1.999 4.978-1.999 3.658 0.719 4.978 1.999c1.32 1.28 2.062 3.016 2.062 4.826 0 0.989-0.444 2.335-1.031 3.713-0.599 1.408-1.393 2.953-2.18 4.381-0.788 1.429-1.576 2.751-2.166 3.715-0.295 0.482-0.541 0.876-0.714 1.149-0.086 0.137-0.154 0.243-0.201 0.316-0.014 0.023-0.027 0.042-0.037 0.058-0.006 0.010-0.012 0.018-0.016 0.025l-0.019 0.029c-0 0-0 0-0.596-0.363zM16.080 25.608l0.596 0.363-0.589 0.909-0.599-0.903 0.592-0.369z"></path>
<path fill="#4b6049" style="fill: var(--color1, #4b6049)" d="M16 10.24c-1.060 0-1.92 0.86-1.92 1.92s0.86 1.92 1.92 1.92c1.060 0 1.92-0.86 1.92-1.92s-0.86-1.92-1.92-1.92zM12.8 12.16c0-1.767 1.433-3.2 3.2-3.2s3.2 1.433 3.2 3.2c0 1.767-1.433 3.2-3.2 3.2s-3.2-1.433-3.2-3.2z"></path>
</symbol>
<symbol id="icon-basket" viewBox="0 0 32 32">
<path   d="M21.628 10.412v-2.555c0-0.796-0.157-1.585-0.461-2.32s-0.75-1.404-1.312-1.967c-0.562-0.563-1.23-1.010-1.964-1.314s-1.522-0.462-2.317-0.462c-0.795 0-1.582 0.157-2.317 0.462s-1.402 0.751-1.964 1.314c-0.562 0.563-1.008 1.231-1.312 1.967s-0.461 1.524-0.461 2.32v6.064c0 0.23 0.091 0.45 0.253 0.613s0.382 0.254 0.612 0.254c0.229 0 0.449-0.091 0.612-0.254s0.253-0.383 0.253-0.613v-1.776h6.919v-1.732h-6.919v-2.555c0-1.149 0.456-2.25 1.267-3.063s1.911-1.269 3.058-1.269c1.147 0 2.247 0.456 3.058 1.269s1.267 1.914 1.267 3.063v6.020c0 0.23 0.091 0.45 0.253 0.613s0.382 0.254 0.612 0.254 0.449-0.091 0.612-0.254c0.162-0.162 0.253-0.383 0.253-0.613v-1.732h4.324v15.592h-20.757v-15.592h2.595v-1.732h-4.324v17.402c0 0.439 0.174 0.86 0.484 1.17s0.73 0.485 1.168 0.485h20.912c0.438 0 0.858-0.174 1.168-0.485s0.484-0.731 0.484-1.17v-17.402h-6.054z"></path>
</symbol>
<symbol id="icon-heart" viewBox="0 0 32 32">
<path fill="none" stroke="#4b6049"  stroke-linejoin="round" stroke-linecap="round" stroke-miterlimit="4" stroke-width="1.7297" d="M9.447 6.291c-3.383 0-6.126 2.715-6.126 6.065 0 2.704 1.072 9.122 11.625 15.609 0.189 0.115 0.406 0.176 0.627 0.176s0.438-0.061 0.627-0.176c10.553-6.488 11.625-12.905 11.625-15.609 0-3.35-2.743-6.065-6.126-6.065s-6.126 3.676-6.126 3.676-2.743-3.676-6.126-3.676z"></path>
</symbol>
<symbol id="icon-logo_green" viewBox="0 0 54 32">
<path fill="#4b6049" style="fill: var(--color1, #4b6049)" d="M24.63 21.133v-2.894h0.123v1.582c0.070-0.141 0.178-0.255 0.324-0.34 0.149-0.085 0.304-0.127 0.463-0.127 0.255 0 0.471 0.090 0.648 0.27 0.18 0.177 0.27 0.391 0.27 0.641s-0.090 0.464-0.27 0.644c-0.177 0.178-0.394 0.266-0.648 0.266-0.154 0-0.305-0.041-0.451-0.123-0.147-0.085-0.259-0.198-0.336-0.34v0.421h-0.123zM24.745 20.269c0 0.216 0.079 0.404 0.235 0.563 0.16 0.157 0.347 0.235 0.563 0.235 0.219 0 0.405-0.078 0.559-0.235 0.154-0.16 0.232-0.347 0.232-0.563 0-0.219-0.078-0.408-0.235-0.567-0.154-0.16-0.34-0.239-0.556-0.239s-0.404 0.081-0.563 0.243c-0.157 0.16-0.235 0.347-0.235 0.563zM27.695 21.179h-0.035c-0.245 0-0.458-0.091-0.641-0.274-0.18-0.185-0.27-0.4-0.27-0.644s0.090-0.455 0.27-0.633c0.18-0.18 0.403-0.27 0.668-0.27s0.493 0.105 0.683 0.316l-1.212 1.196c0.167 0.134 0.328 0.201 0.482 0.201s0.292-0.035 0.413-0.104c0.124-0.072 0.225-0.167 0.305-0.286v0.197c-0.183 0.201-0.404 0.301-0.664 0.301zM27.653 19.466c-0.203 0-0.385 0.080-0.544 0.239-0.157 0.157-0.235 0.338-0.235 0.544s0.068 0.386 0.204 0.54l1.123-1.115c-0.16-0.139-0.342-0.208-0.548-0.208zM30.47 19.397v1.736h-0.123v-0.432c-0.072 0.147-0.18 0.262-0.324 0.347s-0.298 0.127-0.463 0.127c-0.252 0-0.468-0.089-0.648-0.266-0.18-0.18-0.27-0.395-0.27-0.644s0.090-0.463 0.27-0.641c0.18-0.18 0.396-0.27 0.648-0.27 0.165 0 0.322 0.044 0.471 0.131 0.152 0.087 0.257 0.203 0.316 0.347v-0.436h0.123zM28.764 20.269c0 0.216 0.078 0.404 0.235 0.563 0.16 0.157 0.347 0.235 0.563 0.235 0.219 0 0.405-0.078 0.56-0.235 0.154-0.16 0.232-0.347 0.232-0.563 0-0.219-0.079-0.408-0.235-0.567-0.154-0.16-0.34-0.239-0.556-0.239s-0.404 0.081-0.563 0.243c-0.157 0.16-0.235 0.347-0.235 0.563zM32.331 19.397h0.124v1.736h-0.124v-0.351c-0.131 0.262-0.355 0.394-0.671 0.394-0.216 0-0.397-0.075-0.544-0.224s-0.22-0.331-0.22-0.544v-1.011h0.123v1.011c0 0.177 0.062 0.332 0.185 0.463 0.126 0.131 0.278 0.197 0.456 0.197s0.333-0.066 0.467-0.197c0.136-0.131 0.205-0.286 0.205-0.463v-1.011zM33.5 21.048v0.108c-0.183 0-0.338-0.060-0.467-0.181-0.129-0.123-0.193-0.28-0.193-0.471v-1.806h0.123v0.702h0.533v0.108h-0.533v0.996c0 0.157 0.051 0.287 0.154 0.39 0.105 0.103 0.233 0.154 0.382 0.154zM35.207 19.397h0.123v1.682c0 0.229-0.080 0.423-0.239 0.583s-0.355 0.239-0.587 0.239c-0.278 0-0.498-0.107-0.66-0.32l0.008-0.193c0.072 0.123 0.166 0.221 0.282 0.293 0.118 0.075 0.242 0.112 0.37 0.112 0.19 0 0.355-0.069 0.494-0.208 0.139-0.136 0.208-0.301 0.208-0.494v-0.293c-0.126 0.252-0.346 0.378-0.66 0.378-0.214 0-0.396-0.075-0.548-0.224-0.152-0.152-0.228-0.333-0.228-0.544v-1.011h0.124v1.011c0 0.177 0.064 0.332 0.193 0.463 0.131 0.131 0.286 0.197 0.463 0.197s0.331-0.066 0.459-0.197c0.131-0.131 0.197-0.286 0.197-0.463v-1.011zM37.763 21.060v0.108c-0.182 0-0.338-0.060-0.467-0.181-0.128-0.123-0.193-0.28-0.193-0.471v-2.277h0.124v2.277c0 0.157 0.051 0.287 0.154 0.39 0.105 0.103 0.233 0.154 0.382 0.154zM39.65 19.397v1.736h-0.124v-0.432c-0.072 0.147-0.18 0.262-0.324 0.347s-0.298 0.127-0.463 0.127c-0.252 0-0.468-0.089-0.648-0.266-0.18-0.18-0.27-0.395-0.27-0.644s0.090-0.463 0.27-0.641c0.18-0.18 0.396-0.27 0.648-0.27 0.165 0 0.322 0.044 0.471 0.131 0.152 0.087 0.257 0.203 0.316 0.347v-0.436h0.124zM37.944 20.269c0 0.216 0.078 0.404 0.235 0.563 0.159 0.157 0.347 0.235 0.563 0.235 0.219 0 0.405-0.078 0.56-0.235 0.154-0.16 0.231-0.347 0.231-0.563 0-0.219-0.079-0.408-0.235-0.567-0.154-0.16-0.339-0.239-0.556-0.239s-0.404 0.081-0.563 0.243c-0.157 0.16-0.235 0.347-0.235 0.563zM40.114 21.133v-2.894h0.123v1.582c0.070-0.141 0.178-0.255 0.324-0.34 0.149-0.085 0.304-0.127 0.463-0.127 0.255 0 0.471 0.090 0.648 0.27 0.18 0.177 0.27 0.391 0.27 0.641s-0.090 0.464-0.27 0.644c-0.178 0.178-0.394 0.266-0.648 0.266-0.154 0-0.305-0.041-0.452-0.123-0.147-0.085-0.258-0.198-0.336-0.34v0.421h-0.123zM40.23 20.269c0 0.216 0.079 0.404 0.235 0.563 0.16 0.157 0.347 0.235 0.563 0.235 0.219 0 0.405-0.078 0.559-0.235 0.154-0.16 0.231-0.347 0.231-0.563 0-0.219-0.078-0.408-0.235-0.567-0.154-0.16-0.34-0.239-0.556-0.239s-0.404 0.081-0.563 0.243c-0.157 0.16-0.235 0.347-0.235 0.563zM43.118 21.176c-0.247 0-0.459-0.091-0.637-0.274-0.177-0.185-0.266-0.4-0.266-0.644s0.090-0.455 0.27-0.633c0.18-0.18 0.396-0.27 0.648-0.27 0.255 0 0.471 0.090 0.648 0.27 0.18 0.177 0.27 0.39 0.27 0.637 0 0.244-0.088 0.458-0.262 0.641s-0.387 0.274-0.637 0.274h-0.035zM43.928 20.269c0-0.219-0.078-0.408-0.235-0.567-0.154-0.16-0.34-0.239-0.556-0.239s-0.404 0.081-0.563 0.243c-0.157 0.16-0.235 0.347-0.235 0.563s0.079 0.404 0.235 0.563c0.16 0.157 0.347 0.235 0.563 0.235 0.219 0 0.405-0.078 0.559-0.235 0.154-0.16 0.231-0.347 0.231-0.563zM45.433 19.632c-0.113-0.113-0.238-0.17-0.374-0.17s-0.257 0.051-0.363 0.154c-0.103 0.103-0.154 0.223-0.154 0.359v1.158h-0.124v-1.736h0.124v0.259c0.046-0.087 0.118-0.16 0.216-0.216s0.207-0.085 0.328-0.085c0.121 0 0.237 0.041 0.347 0.123v0.154zM47.492 19.397v1.736h-0.124v-0.432c-0.072 0.147-0.18 0.262-0.324 0.347s-0.299 0.127-0.463 0.127c-0.252 0-0.468-0.089-0.648-0.266-0.18-0.18-0.27-0.395-0.27-0.644s0.090-0.463 0.27-0.641c0.18-0.18 0.396-0.27 0.648-0.27 0.165 0 0.322 0.044 0.471 0.131 0.152 0.087 0.257 0.203 0.316 0.347v-0.436h0.124zM45.786 20.269c0 0.216 0.079 0.404 0.235 0.563 0.16 0.157 0.347 0.235 0.563 0.235 0.219 0 0.405-0.078 0.559-0.235 0.154-0.16 0.231-0.347 0.231-0.563 0-0.219-0.078-0.408-0.235-0.567-0.154-0.16-0.34-0.239-0.556-0.239s-0.404 0.081-0.563 0.243c-0.157 0.16-0.235 0.347-0.235 0.563zM48.578 21.048v0.108c-0.182 0-0.338-0.060-0.467-0.181-0.129-0.123-0.193-0.28-0.193-0.471v-1.806h0.124v0.702h0.533v0.108h-0.533v0.996c0 0.157 0.051 0.287 0.154 0.39 0.105 0.103 0.233 0.154 0.382 0.154zM49.694 21.176c-0.247 0-0.459-0.091-0.637-0.274-0.177-0.185-0.266-0.4-0.266-0.644s0.090-0.455 0.27-0.633c0.18-0.18 0.396-0.27 0.648-0.27 0.255 0 0.471 0.090 0.648 0.27 0.18 0.177 0.27 0.39 0.27 0.637 0 0.244-0.088 0.458-0.262 0.641s-0.387 0.274-0.637 0.274h-0.035zM50.504 20.269c0-0.219-0.078-0.408-0.235-0.567-0.154-0.16-0.34-0.239-0.556-0.239s-0.404 0.081-0.563 0.243c-0.157 0.16-0.235 0.347-0.235 0.563s0.079 0.404 0.235 0.563c0.16 0.157 0.347 0.235 0.563 0.235 0.219 0 0.405-0.078 0.559-0.235 0.154-0.16 0.231-0.347 0.231-0.563zM52.009 19.632c-0.113-0.113-0.238-0.17-0.374-0.17s-0.257 0.051-0.363 0.154c-0.103 0.103-0.154 0.223-0.154 0.359v1.158h-0.124v-1.736h0.124v0.259c0.046-0.087 0.118-0.16 0.216-0.216s0.207-0.085 0.328-0.085c0.121 0 0.237 0.041 0.347 0.123v0.154zM53.732 19.397h0.123v1.682c0 0.229-0.080 0.423-0.239 0.583s-0.355 0.239-0.587 0.239c-0.278 0-0.498-0.107-0.66-0.32l0.008-0.193c0.072 0.123 0.166 0.221 0.282 0.293 0.118 0.075 0.242 0.112 0.37 0.112 0.19 0 0.355-0.069 0.494-0.208 0.139-0.136 0.208-0.301 0.208-0.494v-0.293c-0.126 0.252-0.346 0.378-0.66 0.378-0.214 0-0.396-0.075-0.548-0.224-0.152-0.152-0.228-0.333-0.228-0.544v-1.011h0.124v1.011c0 0.177 0.064 0.332 0.193 0.463 0.131 0.131 0.286 0.197 0.463 0.197s0.331-0.066 0.459-0.197c0.131-0.131 0.197-0.286 0.197-0.463v-1.011z"></path>
<path fill="#4b6049" style="fill: var(--color1, #4b6049)" d="M14.303 10.553l3.308 6.774h-0.309l-1.252-2.523h-3.537l-1.235 2.523h-0.273l3.299-6.774zM14.277 11.162l-1.649 3.387h3.316l-1.667-3.387zM18.533 10.712h2.373v0.256h-2.082v3.599h1.738v0.256h-1.738v2.249h2.082v0.256h-2.373v-6.615zM24.453 11.647c-0.135-0.247-0.32-0.441-0.556-0.582-0.229-0.141-0.488-0.212-0.776-0.212s-0.535 0.091-0.741 0.273c-0.2 0.176-0.3 0.42-0.3 0.732v0.044c0 0.37 0.206 0.709 0.617 1.014 0.177 0.129 0.373 0.259 0.591 0.388 0.224 0.123 0.444 0.259 0.662 0.406 0.223 0.141 0.423 0.294 0.6 0.459 0.182 0.159 0.329 0.356 0.441 0.591 0.118 0.235 0.176 0.494 0.176 0.776v0.088c0 0.559-0.191 1.003-0.573 1.332-0.376 0.329-0.844 0.494-1.402 0.494-0.735 0-1.305-0.303-1.711-0.909v-0.476c0.153 0.335 0.376 0.609 0.67 0.82 0.3 0.206 0.67 0.309 1.111 0.309s0.823-0.141 1.147-0.423 0.485-0.659 0.485-1.129v-0.053c0-0.294-0.076-0.562-0.229-0.803-0.153-0.247-0.344-0.447-0.573-0.6-0.229-0.159-0.479-0.323-0.75-0.494s-0.52-0.329-0.75-0.476c-0.229-0.147-0.42-0.332-0.573-0.556s-0.229-0.467-0.229-0.732v-0.062c0-0.412 0.132-0.726 0.397-0.944s0.591-0.326 0.979-0.326c0.541 0 0.97 0.2 1.288 0.6v0.45zM28.402 10.712v0.256h-1.508v6.359h-0.291v-6.359h-1.526v-0.256h3.325zM34.065 10.712h0.291v6.615h-0.291v-2.523h-4.534v2.523h-0.291v-6.615h0.291v3.837h4.534v-3.837zM35.683 10.712h2.373v0.256h-2.082v3.599h1.738v0.256h-1.738v2.249h2.082v0.256h-2.373v-6.615zM41.779 10.712v0.256h-1.508v6.359h-0.291v-6.359h-1.526v-0.256h3.325zM42.661 10.712h0.291v6.615h-0.291v-6.615zM47.541 17.424h-0.097c-0.606 0-1.17-0.159-1.694-0.476s-0.938-0.738-1.244-1.261c-0.3-0.529-0.45-1.091-0.45-1.685 0-0.935 0.338-1.738 1.014-2.408 0.676-0.676 1.485-1.014 2.426-1.014 0.629 0 1.226 0.165 1.79 0.494v0.326c-0.553-0.376-1.15-0.564-1.79-0.564-0.864 0-1.605 0.312-2.223 0.935-0.617 0.617-0.926 1.361-0.926 2.232 0 0.864 0.309 1.608 0.926 2.232s1.358 0.935 2.223 0.935c0.641 0 1.238-0.188 1.79-0.564v0.326c-0.535 0.329-1.117 0.494-1.747 0.494zM53.145 11.647c-0.135-0.247-0.32-0.441-0.556-0.582-0.229-0.141-0.488-0.212-0.776-0.212s-0.535 0.091-0.741 0.273c-0.2 0.176-0.3 0.42-0.3 0.732v0.044c0 0.37 0.206 0.709 0.617 1.014 0.176 0.129 0.373 0.259 0.591 0.388 0.224 0.123 0.444 0.259 0.662 0.406 0.223 0.141 0.423 0.294 0.6 0.459 0.182 0.159 0.329 0.356 0.441 0.591 0.118 0.235 0.176 0.494 0.176 0.776v0.088c0 0.559-0.191 1.003-0.573 1.332-0.376 0.329-0.844 0.494-1.402 0.494-0.735 0-1.305-0.303-1.711-0.909v-0.476c0.153 0.335 0.376 0.609 0.67 0.82 0.3 0.206 0.67 0.309 1.111 0.309s0.823-0.141 1.147-0.423c0.324-0.282 0.485-0.659 0.485-1.129v-0.053c0-0.294-0.076-0.562-0.229-0.803-0.153-0.247-0.344-0.447-0.573-0.6-0.229-0.159-0.479-0.323-0.75-0.494s-0.52-0.329-0.75-0.476c-0.229-0.147-0.42-0.332-0.573-0.556s-0.229-0.467-0.229-0.732v-0.062c0-0.412 0.132-0.726 0.397-0.944s0.591-0.326 0.979-0.326c0.541 0 0.97 0.2 1.288 0.6v0.45z"></path>
<path fill="#4b6049" style="fill: var(--color1, #4b6049)" d="M14.933 19.937c-1.139 0.827-2.315 1.617-3.528 2.334-1.176 0.717-2.554 1.489-3.969 1.066-1.433-0.441-2.003-1.966-2.664-3.16-0.662-1.25-1.341-2.481-1.985-3.749-0.79-1.562-1.47-3.252-1.617-5.017-0.037-0.349-0.018-0.717-0.055-1.066-0.037-1.066-0.551-2.021-0.864-3.032-0.662-2.426 0.092-4.961 0.992-7.24l0.018-0.073c0.11 0.073 0.239 0.165 0.331 0.257 1.911 1.709 3.951 3.326 6.046 4.814 0.735 0.533 1.488 1.047 2.242 1.562-0.809 0.202-1.654 0.276-2.426 0.625-0.349 0.165-0.698 0.331-0.937 0.551-0.092 0.092-0.239 0.239-0.239 0.386 0.129 0.68 1.103 0.459 1.525 0.184 0.956-0.478 2.058-0.79 3.124-0.68 0.423 0.551 0.9 1.103 1.305 1.654l0.037 0.037h-0.055c-0.129 0-0.331 0.073-0.459 0.11-0.147 0.037-0.312 0.092-0.441 0.165-0.662 0.276-1.323 0.735-2.076 0.662-0.57-0.037-1.047-0.11-1.617-0.184-0.9-0.018-1.801 0.147-2.683 0.239-1.194 0.11-2.389 0.22-3.565 0.459l0.037-0.22c0.22 0.092 0.441 0.202 0.698 0.184 0.478-0.018 0.992-0.073 1.378-0.349 0.276-0.257 0.588-0.147 0.717 0.184l-0.055 0.018c0.165-1.746-0.772-2.683-2.426-2.995-0.294-0.037-0.606-0.11-0.882 0.037-0.331 0.147-0.478 0.386-0.092 0.606 0.515 0.367 1.139 0.404 1.727 0.57 0.606 0.165 1.139 0.478 1.672 0.809 0.331 1.029 0.515 2.132 0.386 3.216-0.055 0.717-0.129 1.452-0.367 2.132-0.202 0.772 0.772 1.158 1.397 1.066 0.331-0.055 0.643-0.257 0.772-0.57l0.129 0.092c-0.165 0.129-0.367 0.202-0.57 0.202-0.147-0.092-0.092-0.276 0.018-0.367 0.074-0.055 0.165-0.092 0.257-0.11 0.312-0.073 0.68-0.11 0.956 0.11 0.129 0.11 0.202 0.257 0.349 0.312 0.276 0.147 0.643-0.055 0.753-0.331 0.11-0.294 0.037-0.625-0.11-0.9 0.018-0.018-0.202 2.003-0.184 2.003-0.055 0.662-0.11 1.341-0.165 2.021l-0.018-0.018c0.368 0.055 0.735 0.055 1.084 0.018 0.404-0.018 0.809-0.11 1.213-0.221l-0.092 0.11c-0.68 0.753-1.433 1.488-2.426 1.819-1.047 0.423-2.499 0.018-2.37-1.323 0.864-0.092 1.691-0.643 2.591-0.404l-0.055 0.055c-0.441 0.441-1.194 0.312-1.764 0.367-0.312-0.018-0.662 0.073-0.937-0.11-0.276-0.221-0.276-0.662-0.11-0.937 0.221-0.404 0.79-0.533 1.176-0.257h-0.11c0.147-0.129 0.331-0.239 0.515-0.312 0.588-0.221 1.194 0.073 1.709 0.312 0.349 0.165 0.625 0.367 1.011 0.386 0.257 0.055 0.698 0.018 0.772 0.331 0.018 0.092 0 0.184 0.018 0.294 0.257 1.874 0.992 3.638 1.874 5.292 0.809 2.518 0.864 5.2 0.919 7.828-0.073-2.242-0.147-4.52-0.68-6.726-0.092-0.79-0.459-1.397-0.79-2.095-0.312-0.68-0.57-1.396-0.809-2.113s-0.423-1.452-0.551-2.187c-0.018-0.092-0.037-0.184-0.073-0.276-0.073-0.202-0.257-0.165-0.441-0.184-0.294-0.018-0.57 0-0.864-0.092-0.515-0.221-1.029-0.423-1.562-0.551-0.331-0.092-0.698-0.018-0.974 0.202l-0.055 0.037-0.055-0.037c-0.276-0.202-0.753-0.129-0.919 0.202-0.184 0.294-0.074 0.79 0.294 0.772 0.331 0.018 0.845-0.018 1.176-0.018 0.386 0 0.79 0.037 1.103-0.239l0.018 0.073c-0.827-0.239-1.654 0.294-2.462 0.404l0.037-0.037c-0.037 0.515 0.239 1.029 0.772 1.084 1.525 0.349 2.94-0.551 3.896-1.691l0.037 0.073c-0.717 0.202-1.47 0.239-2.187 0.129h-0.018v-0.018c0.147-1.139 0.294-2.885 0.423-4.024 0.165 0.276 0.257 0.606 0.129 0.919-0.11 0.294-0.496 0.515-0.79 0.367-0.147-0.073-0.239-0.22-0.367-0.312s-0.276-0.11-0.423-0.092c-0.202 0.018-0.551 0.092-0.68 0.257l-0.055-0.018c0.257 0 0.496-0.184 0.698-0.331l-0.129 0.276c-0.423 0.937-1.911 0.809-2.37-0.018-0.184-0.367 0.037-0.735 0.129-1.066 0.037-0.165 0.074-0.349 0.11-0.533 0.11-0.717 0.221-1.433 0.184-2.15s-0.202-1.433-0.441-2.095c-0.459-0.11-1.103-0.551-1.654-0.698-0.643-0.202-1.397-0.294-1.893-0.809-0.202-0.221 0.092-0.478 0.294-0.551 0.294-0.147 0.606-0.074 0.919-0.037 1.819 0.331 2.756 1.103 2.481 3.050l-0.018 0.073-0.055-0.073c-0.147-0.202-0.349-0.294-0.533-0.073-0.404 0.386-0.992 0.459-1.525 0.404-0.257-0.037-0.533-0.073-0.79-0.184l-0.367-0.202c0.423-0.037 0.864-0.055 1.305-0.055 0.9-0.037 1.801-0.165 2.683-0.257 0.588-0.073 1.194-0.092 1.801-0.165 0.588-0.092 1.194-0.202 1.801-0.239 0.459 0.018 0.937 0.018 1.36-0.073 0.606-0.147 1.231-0.349 1.838-0.441 0.129-0.018 0.349-0.073 0.459-0.11l-0.018 0.055c-0.423-0.551-0.827-1.158-1.25-1.691-0.386 0-0.772 0-1.158 0.074-0.57 0.11-1.121 0.312-1.635 0.588-0.349 0.202-0.68 0.423-1.084 0.478-0.423 0.092-0.992-0.147-1.066-0.643-0.018-0.367 0.257-0.643 0.533-0.845 0.956-0.551 2.095-0.643 3.161-0.79 0.055 0 0.092 0.018 0.147 0.018l-0.018 0.037c-2.756-1.911-5.439-3.969-8.067-6.064l-0.257-0.221c-0.092-0.073-0.165-0.147-0.257-0.221l0.092-0.018c-0.937 2.223-1.635 4.759-1.011 7.166 0.294 1.011 0.827 1.966 0.845 3.050 0.018 0.349 0.018 0.698 0.037 1.047 0.129 1.764 0.809 3.418 1.58 4.98 0.625 1.25 1.305 2.499 1.966 3.749 0.662 1.176 1.213 2.701 2.628 3.142 1.397 0.404 2.775-0.349 3.951-1.048 1.323-0.533 2.517-1.415 3.638-2.15z"></path>
</symbol>
<symbol id="icon-logo_transparent" viewBox="0 0 55 32">
<path fill="#fffbf5" style="fill: var(--color2, #fffbf5)" d="M24.751 21.26v-2.908h0.124v1.59c0.070-0.142 0.178-0.256 0.326-0.341 0.15-0.085 0.305-0.128 0.465-0.128 0.256 0 0.473 0.090 0.652 0.271 0.181 0.178 0.271 0.393 0.271 0.644s-0.091 0.467-0.271 0.648c-0.178 0.178-0.396 0.268-0.652 0.268-0.155 0-0.306-0.041-0.454-0.124-0.147-0.085-0.26-0.199-0.337-0.341v0.423h-0.124zM24.868 20.391c0 0.217 0.079 0.406 0.237 0.566 0.16 0.158 0.349 0.237 0.566 0.237 0.22 0 0.407-0.079 0.563-0.237 0.155-0.16 0.233-0.349 0.233-0.566 0-0.22-0.079-0.41-0.237-0.57-0.155-0.16-0.341-0.24-0.558-0.24s-0.406 0.081-0.566 0.244c-0.158 0.16-0.237 0.349-0.237 0.566zM27.832 21.306h-0.035c-0.246 0-0.46-0.092-0.644-0.275-0.181-0.186-0.271-0.402-0.271-0.648s0.091-0.458 0.271-0.636c0.181-0.181 0.405-0.271 0.671-0.271s0.495 0.106 0.686 0.318l-1.218 1.202c0.168 0.134 0.33 0.202 0.485 0.202s0.293-0.035 0.415-0.105c0.124-0.072 0.226-0.168 0.306-0.287v0.198c-0.183 0.202-0.406 0.302-0.667 0.302zM27.789 19.585c-0.204 0-0.386 0.080-0.547 0.24-0.158 0.158-0.237 0.34-0.237 0.547s0.069 0.388 0.206 0.543l1.129-1.121c-0.16-0.14-0.344-0.209-0.551-0.209zM30.62 19.515v1.745h-0.124v-0.434c-0.073 0.147-0.181 0.264-0.326 0.349s-0.3 0.128-0.465 0.128c-0.253 0-0.471-0.089-0.651-0.268-0.181-0.181-0.271-0.397-0.271-0.648s0.090-0.465 0.271-0.644c0.181-0.181 0.398-0.271 0.651-0.271 0.165 0 0.323 0.044 0.473 0.132 0.153 0.088 0.259 0.204 0.318 0.349v-0.438h0.124zM28.906 20.391c0 0.217 0.079 0.406 0.237 0.566 0.16 0.158 0.349 0.237 0.566 0.237 0.22 0 0.407-0.079 0.562-0.237 0.155-0.16 0.233-0.349 0.233-0.566 0-0.22-0.079-0.41-0.237-0.57-0.155-0.16-0.341-0.24-0.558-0.24s-0.406 0.081-0.566 0.244c-0.158 0.16-0.237 0.349-0.237 0.566zM32.491 19.515h0.124v1.745h-0.124v-0.353c-0.132 0.264-0.357 0.396-0.675 0.396-0.217 0-0.399-0.075-0.547-0.225s-0.221-0.332-0.221-0.547v-1.016h0.124v1.016c0 0.178 0.062 0.334 0.186 0.465 0.127 0.132 0.279 0.198 0.458 0.198s0.335-0.066 0.469-0.198c0.137-0.132 0.206-0.287 0.206-0.465v-1.016zM33.666 21.175v0.109c-0.184 0-0.34-0.061-0.469-0.182-0.129-0.124-0.194-0.282-0.194-0.473v-1.815h0.124v0.706h0.535v0.109h-0.535v1c0 0.158 0.052 0.288 0.155 0.392 0.106 0.103 0.234 0.155 0.384 0.155zM35.38 19.515h0.124v1.691c0 0.23-0.080 0.425-0.24 0.586s-0.357 0.24-0.59 0.24c-0.279 0-0.5-0.107-0.663-0.322l0.008-0.194c0.072 0.124 0.167 0.222 0.283 0.295 0.119 0.075 0.243 0.112 0.372 0.112 0.191 0 0.357-0.070 0.496-0.209 0.14-0.137 0.209-0.302 0.209-0.496v-0.295c-0.127 0.253-0.348 0.38-0.663 0.38-0.215 0-0.398-0.075-0.551-0.225-0.153-0.153-0.229-0.335-0.229-0.547v-1.016h0.124v1.016c0 0.178 0.065 0.334 0.194 0.465 0.132 0.132 0.287 0.198 0.465 0.198s0.332-0.066 0.462-0.198c0.132-0.132 0.198-0.287 0.198-0.465v-1.016zM37.95 21.186v0.109c-0.183 0-0.34-0.061-0.469-0.182-0.129-0.124-0.194-0.282-0.194-0.473v-2.288h0.124v2.288c0 0.158 0.052 0.288 0.155 0.392 0.106 0.103 0.234 0.155 0.384 0.155zM39.846 19.515v1.745h-0.124v-0.434c-0.073 0.147-0.181 0.264-0.326 0.349s-0.3 0.128-0.465 0.128c-0.253 0-0.471-0.089-0.651-0.268-0.181-0.181-0.271-0.397-0.271-0.648s0.090-0.465 0.271-0.644c0.181-0.181 0.398-0.271 0.651-0.271 0.165 0 0.323 0.044 0.473 0.132 0.153 0.088 0.259 0.204 0.318 0.349v-0.438h0.124zM38.132 20.391c0 0.217 0.079 0.406 0.237 0.566 0.16 0.158 0.349 0.237 0.566 0.237 0.22 0 0.407-0.079 0.562-0.237 0.155-0.16 0.233-0.349 0.233-0.566 0-0.22-0.079-0.41-0.237-0.57-0.155-0.16-0.341-0.24-0.558-0.24s-0.406 0.081-0.566 0.244c-0.158 0.16-0.237 0.349-0.237 0.566zM40.312 21.26v-2.908h0.124v1.59c0.070-0.142 0.178-0.256 0.326-0.341 0.15-0.085 0.305-0.128 0.465-0.128 0.256 0 0.473 0.090 0.651 0.271 0.181 0.178 0.272 0.393 0.272 0.644s-0.091 0.467-0.272 0.648c-0.178 0.178-0.395 0.268-0.651 0.268-0.155 0-0.306-0.041-0.454-0.124-0.147-0.085-0.26-0.199-0.338-0.341v0.423h-0.124zM40.429 20.391c0 0.217 0.079 0.406 0.237 0.566 0.16 0.158 0.349 0.237 0.566 0.237 0.22 0 0.407-0.079 0.562-0.237 0.155-0.16 0.233-0.349 0.233-0.566 0-0.22-0.079-0.41-0.237-0.57-0.155-0.16-0.341-0.24-0.558-0.24s-0.406 0.081-0.566 0.244c-0.158 0.16-0.237 0.349-0.237 0.566zM43.331 21.303c-0.248 0-0.462-0.092-0.64-0.275-0.178-0.186-0.268-0.402-0.268-0.648s0.091-0.458 0.272-0.636c0.181-0.181 0.398-0.271 0.651-0.271 0.256 0 0.473 0.090 0.651 0.271 0.181 0.178 0.272 0.392 0.272 0.64 0 0.246-0.088 0.46-0.264 0.644s-0.389 0.275-0.64 0.275h-0.035zM44.145 20.391c0-0.22-0.079-0.41-0.237-0.57-0.155-0.16-0.341-0.24-0.558-0.24s-0.406 0.081-0.566 0.244c-0.158 0.16-0.237 0.349-0.237 0.566s0.079 0.406 0.237 0.566c0.16 0.158 0.349 0.237 0.566 0.237 0.22 0 0.407-0.079 0.563-0.237 0.155-0.16 0.233-0.349 0.233-0.566zM45.657 19.751c-0.114-0.114-0.239-0.171-0.376-0.171s-0.259 0.052-0.365 0.155c-0.103 0.103-0.155 0.224-0.155 0.361v1.163h-0.124v-1.745h0.124v0.26c0.046-0.088 0.119-0.16 0.217-0.217s0.208-0.085 0.33-0.085c0.121 0 0.238 0.041 0.349 0.124v0.155zM47.727 19.515v1.745h-0.124v-0.434c-0.072 0.147-0.181 0.264-0.326 0.349s-0.3 0.128-0.465 0.128c-0.253 0-0.471-0.089-0.652-0.268-0.181-0.181-0.271-0.397-0.271-0.648s0.091-0.465 0.271-0.644c0.181-0.181 0.398-0.271 0.652-0.271 0.165 0 0.323 0.044 0.473 0.132 0.152 0.088 0.258 0.204 0.318 0.349v-0.438h0.124zM46.012 20.391c0 0.217 0.079 0.406 0.237 0.566 0.16 0.158 0.349 0.237 0.566 0.237 0.22 0 0.407-0.079 0.562-0.237 0.155-0.16 0.233-0.349 0.233-0.566 0-0.22-0.079-0.41-0.237-0.57-0.155-0.16-0.341-0.24-0.558-0.24s-0.406 0.081-0.566 0.244c-0.158 0.16-0.237 0.349-0.237 0.566zM48.818 21.175v0.109c-0.183 0-0.34-0.061-0.469-0.182-0.129-0.124-0.194-0.282-0.194-0.473v-1.815h0.124v0.706h0.535v0.109h-0.535v1c0 0.158 0.052 0.288 0.155 0.392 0.106 0.103 0.234 0.155 0.384 0.155zM49.939 21.303c-0.248 0-0.462-0.092-0.64-0.275-0.178-0.186-0.268-0.402-0.268-0.648s0.091-0.458 0.272-0.636c0.181-0.181 0.398-0.271 0.651-0.271 0.256 0 0.473 0.090 0.652 0.271 0.181 0.178 0.271 0.392 0.271 0.64 0 0.246-0.088 0.46-0.264 0.644s-0.389 0.275-0.64 0.275h-0.035zM50.753 20.391c0-0.22-0.079-0.41-0.237-0.57-0.155-0.16-0.341-0.24-0.558-0.24s-0.406 0.081-0.566 0.244c-0.158 0.16-0.237 0.349-0.237 0.566s0.079 0.406 0.237 0.566c0.16 0.158 0.349 0.237 0.566 0.237 0.22 0 0.407-0.079 0.562-0.237 0.155-0.16 0.233-0.349 0.233-0.566zM52.265 19.751c-0.114-0.114-0.239-0.171-0.376-0.171s-0.259 0.052-0.365 0.155c-0.103 0.103-0.155 0.224-0.155 0.361v1.163h-0.124v-1.745h0.124v0.26c0.046-0.088 0.119-0.16 0.217-0.217s0.208-0.085 0.33-0.085c0.121 0 0.238 0.041 0.349 0.124v0.155zM53.998 19.515h0.124v1.691c0 0.23-0.080 0.425-0.24 0.586s-0.357 0.24-0.59 0.24c-0.279 0-0.5-0.107-0.663-0.322l0.008-0.194c0.072 0.124 0.167 0.222 0.283 0.295 0.119 0.075 0.243 0.112 0.372 0.112 0.191 0 0.357-0.070 0.496-0.209 0.14-0.137 0.209-0.302 0.209-0.496v-0.295c-0.127 0.253-0.348 0.38-0.663 0.38-0.215 0-0.398-0.075-0.551-0.225-0.153-0.153-0.229-0.335-0.229-0.547v-1.016h0.124v1.016c0 0.178 0.065 0.334 0.194 0.465 0.132 0.132 0.287 0.198 0.465 0.198s0.332-0.066 0.462-0.198c0.132-0.132 0.198-0.287 0.198-0.465v-1.016z"></path>
<path fill="#fffbf5" style="fill: var(--color2, #fffbf5)" d="M14.371 10.489l3.324 6.807h-0.31l-1.259-2.535h-3.554l-1.241 2.535h-0.275l3.315-6.807zM14.345 11.101l-1.658 3.404h3.333l-1.675-3.404zM18.622 10.649h2.384v0.257h-2.092v3.616h1.746v0.257h-1.746v2.26h2.092v0.257h-2.384v-6.648zM24.571 11.588c-0.136-0.248-0.322-0.443-0.558-0.585-0.23-0.142-0.49-0.213-0.78-0.213s-0.538 0.092-0.745 0.275c-0.201 0.177-0.301 0.422-0.301 0.736v0.044c0 0.372 0.207 0.712 0.62 1.019 0.177 0.13 0.375 0.26 0.594 0.39 0.225 0.124 0.446 0.26 0.665 0.408 0.224 0.142 0.425 0.295 0.603 0.461 0.183 0.16 0.331 0.358 0.443 0.594 0.118 0.236 0.177 0.496 0.177 0.78v0.089c0 0.561-0.192 1.008-0.576 1.338-0.378 0.331-0.848 0.496-1.409 0.496-0.739 0-1.312-0.304-1.72-0.913v-0.479c0.154 0.337 0.378 0.612 0.674 0.824 0.301 0.207 0.674 0.31 1.117 0.31s0.827-0.142 1.152-0.425 0.488-0.662 0.488-1.135v-0.053c0-0.295-0.077-0.564-0.23-0.807-0.154-0.248-0.346-0.449-0.576-0.603-0.23-0.16-0.482-0.325-0.753-0.496s-0.523-0.331-0.753-0.479-0.423-0.334-0.576-0.558c-0.154-0.225-0.23-0.47-0.23-0.736v-0.062c0-0.414 0.133-0.73 0.399-0.948s0.594-0.328 0.984-0.328c0.544 0 0.975 0.201 1.294 0.603v0.452zM28.54 10.649v0.257h-1.516v6.391h-0.293v-6.391h-1.534v-0.257h3.342zM34.231 10.649h0.292v6.648h-0.292v-2.535h-4.556v2.535h-0.293v-6.648h0.293v3.856h4.556v-3.856zM35.857 10.649h2.384v0.257h-2.092v3.616h1.746v0.257h-1.746v2.26h2.092v0.257h-2.384v-6.648zM41.983 10.649v0.257h-1.516v6.391h-0.292v-6.391h-1.533v-0.257h3.341zM42.869 10.649h0.292v6.648h-0.292v-6.648zM47.774 17.394h-0.097c-0.609 0-1.176-0.16-1.702-0.479s-0.942-0.742-1.25-1.268c-0.301-0.532-0.452-1.096-0.452-1.693 0-0.94 0.34-1.746 1.020-2.42 0.68-0.68 1.492-1.019 2.437-1.019 0.632 0 1.232 0.165 1.799 0.496v0.328c-0.555-0.378-1.155-0.567-1.799-0.567-0.869 0-1.613 0.313-2.234 0.94-0.621 0.62-0.931 1.368-0.931 2.243 0 0.869 0.31 1.616 0.931 2.243s1.365 0.94 2.234 0.94c0.644 0 1.244-0.189 1.799-0.567v0.328c-0.538 0.331-1.123 0.496-1.755 0.496zM53.405 11.588c-0.136-0.248-0.322-0.443-0.558-0.585-0.231-0.142-0.49-0.213-0.78-0.213s-0.538 0.092-0.745 0.275c-0.201 0.177-0.301 0.422-0.301 0.736v0.044c0 0.372 0.207 0.712 0.621 1.019 0.177 0.13 0.375 0.26 0.594 0.39 0.225 0.124 0.446 0.26 0.665 0.408 0.224 0.142 0.425 0.295 0.603 0.461 0.183 0.16 0.331 0.358 0.443 0.594 0.118 0.236 0.177 0.496 0.177 0.78v0.089c0 0.561-0.192 1.008-0.576 1.338-0.378 0.331-0.848 0.496-1.409 0.496-0.739 0-1.312-0.304-1.719-0.913v-0.479c0.154 0.337 0.378 0.612 0.674 0.824 0.301 0.207 0.674 0.31 1.117 0.31s0.827-0.142 1.152-0.425c0.325-0.284 0.487-0.662 0.487-1.135v-0.053c0-0.295-0.077-0.564-0.23-0.807-0.154-0.248-0.346-0.449-0.576-0.603-0.23-0.16-0.481-0.325-0.753-0.496s-0.523-0.331-0.754-0.479c-0.23-0.148-0.422-0.334-0.576-0.558s-0.231-0.47-0.231-0.736v-0.062c0-0.414 0.133-0.73 0.399-0.948s0.594-0.328 0.984-0.328c0.544 0 0.975 0.201 1.294 0.603v0.452z"></path>
<path fill="#fffbf5" style="fill: var(--color2, #fffbf5)" d="M15.007 20.036c-1.145 0.831-2.327 1.625-3.546 2.345-1.182 0.72-2.567 1.496-3.989 1.071-1.44-0.443-2.013-1.976-2.678-3.176-0.665-1.256-1.348-2.493-1.994-3.767-0.794-1.57-1.477-3.269-1.625-5.041-0.037-0.351-0.018-0.72-0.055-1.071-0.037-1.071-0.554-2.031-0.868-3.047-0.665-2.438 0.092-4.986 0.997-7.276l0.018-0.074c0.111 0.074 0.24 0.166 0.332 0.259 2.604 2.327 5.411 4.432 8.291 6.371l0.037 0.037c-0.055 0.018-0.129 0.037-0.185 0.055-0.757 0.129-1.551 0.259-2.253 0.572-0.443 0.203-0.849 0.388-1.108 0.757-0.148 0.203-0.019 0.406 0.185 0.536 0.499 0.259 1.108-0.055 1.551-0.295 0.886-0.388 1.884-0.646 2.862-0.554 0.425 0.554 0.905 1.108 1.311 1.662l0.037 0.037c-0.092 0.018-0.185 0.018-0.277 0.055-0.702 0.185-1.311 0.572-1.994 0.831-0.462 0.129-1.071 0.074-1.477 0-0.295-0.018-0.609-0.055-0.905-0.092-0.905-0.018-1.81 0.148-2.696 0.24-0.905 0.092-1.81 0.148-2.696 0.295-0.295 0.055-0.591 0.129-0.886 0.166l0.037-0.222c0.443 0.258 0.96 0.203 1.44 0.111 0.332-0.037 0.572-0.222 0.831-0.388 0.222-0.111 0.462 0.092 0.536 0.295l-0.055 0.018c0.074-0.849-0.092-1.754-0.776-2.308-0.554-0.425-1.366-0.739-2.105-0.757-0.277-0.019-0.646 0.111-0.757 0.369-0.037 0.129 0.111 0.24 0.222 0.314 0.388 0.259 0.831 0.369 1.274 0.462 0.776 0.166 1.496 0.499 2.142 0.942 0.222 0.702 0.369 1.403 0.406 2.142 0.037 0.905-0.092 1.81-0.259 2.715-0.074 0.332-0.277 0.683-0.111 1.016 0.258 0.462 0.868 0.628 1.367 0.572 0.332-0.055 0.646-0.258 0.776-0.572l0.129 0.092c-0.166 0.129-0.369 0.203-0.572 0.203-0.148-0.092-0.092-0.277 0.018-0.369 0.074-0.055 0.166-0.092 0.259-0.111 0.314-0.074 0.683-0.111 0.96 0.111 0.129 0.111 0.203 0.259 0.351 0.314 0.277 0.148 0.646-0.055 0.757-0.332 0.129-0.295 0.018-0.646-0.111-0.905-0.129 1.182-0.277 2.862-0.369 4.044l-0.018-0.018c0.369 0.055 0.739 0.055 1.090 0.018 0.406-0.018 0.813-0.111 1.219-0.222-0.702 0.813-1.496 1.588-2.53 1.939-0.665 0.24-1.533 0.259-2.050-0.295-0.277-0.277-0.351-0.665-0.314-1.034 0.425-0.037 0.831-0.203 1.256-0.314 0.425-0.129 0.905-0.203 1.348-0.092-0.148 0.185-0.388 0.295-0.609 0.351-0.351 0.092-0.849 0.055-1.219 0.074-0.314-0.018-0.665 0.074-0.942-0.111-0.277-0.222-0.277-0.665-0.111-0.942 0.222-0.406 0.794-0.535 1.182-0.259h-0.111c0.148-0.129 0.332-0.24 0.517-0.314 0.591-0.222 1.2 0.074 1.717 0.314 0.351 0.166 0.628 0.369 1.016 0.388 0.259 0.055 0.702 0.018 0.776 0.332 0.018 0.092 0 0.185 0.018 0.295 0.259 1.884 0.997 3.656 1.884 5.318 0.813 2.53 0.868 5.226 0.923 7.867-0.074-2.253-0.148-4.543-0.683-6.759-0.092-0.794-0.462-1.404-0.794-2.105-0.314-0.683-0.572-1.403-0.813-2.124s-0.425-1.459-0.554-2.198c-0.018-0.092-0.037-0.185-0.074-0.277-0.074-0.203-0.259-0.166-0.443-0.185-0.295-0.018-0.572 0-0.868-0.092-0.517-0.222-1.034-0.425-1.57-0.554-0.332-0.092-0.702-0.018-0.979 0.203l-0.055 0.037-0.055-0.037c-0.277-0.203-0.757-0.129-0.923 0.203-0.185 0.295-0.074 0.794 0.295 0.776 0.332 0.018 0.849-0.018 1.182-0.018 0.388 0 0.794 0.037 1.108-0.24l0.018 0.074c-0.831-0.24-1.662 0.295-2.474 0.406l0.037-0.037c-0.037 0.517 0.24 1.034 0.776 1.090 1.533 0.351 2.955-0.554 3.915-1.699l0.037 0.074c-0.72 0.203-1.477 0.24-2.197 0.129h-0.018v-0.018c0.148-1.145 0.295-2.899 0.425-4.044 0.166 0.277 0.259 0.609 0.129 0.923-0.111 0.295-0.499 0.517-0.794 0.369-0.148-0.074-0.24-0.222-0.369-0.314s-0.277-0.111-0.425-0.092c-0.203 0.018-0.554 0.092-0.683 0.259l-0.055-0.018c0.259 0 0.499-0.185 0.702-0.332l-0.129 0.277c-0.425 0.942-1.92 0.813-2.382-0.018-0.185-0.369 0.037-0.739 0.129-1.071 0.037-0.166 0.074-0.351 0.111-0.536 0.111-0.72 0.222-1.44 0.185-2.161s-0.203-1.44-0.443-2.105c-0.462-0.111-1.108-0.554-1.662-0.702-0.646-0.203-1.403-0.295-1.902-0.813-0.203-0.222 0.092-0.48 0.295-0.554 0.295-0.148 0.609-0.074 0.923-0.037 1.828 0.332 2.77 1.108 2.493 3.065l-0.018 0.074-0.055-0.074c-0.148-0.203-0.351-0.295-0.536-0.074-0.406 0.388-0.997 0.462-1.533 0.406-0.259-0.037-0.536-0.074-0.794-0.185l-0.369-0.203c0.425-0.037 0.868-0.055 1.311-0.055 0.905-0.037 1.81-0.166 2.696-0.259 0.591-0.074 1.2-0.092 1.81-0.166 0.591-0.092 1.2-0.203 1.81-0.24 0.462 0.018 0.942 0.018 1.367-0.074 0.609-0.148 1.237-0.351 1.847-0.443 0.129-0.018 0.351-0.074 0.462-0.111l-0.018 0.055c-0.425-0.554-0.831-1.163-1.256-1.699-0.388 0-0.776 0-1.163 0.074-0.572 0.111-1.126 0.314-1.644 0.591-0.351 0.203-0.683 0.425-1.090 0.48-0.425 0.092-0.997-0.148-1.071-0.646-0.018-0.369 0.259-0.646 0.536-0.849 0.96-0.554 2.105-0.646 3.176-0.794 0.055 0 0.092 0.018 0.148 0.018l-0.018 0.037c-2.77-1.921-5.466-3.989-8.107-6.094l-0.259-0.222c-0.092-0.074-0.166-0.148-0.259-0.222l0.092-0.018c-0.942 2.234-1.643 4.783-1.016 7.202 0.295 1.016 0.831 1.976 0.849 3.065 0.018 0.351 0.018 0.702 0.037 1.053 0.129 1.773 0.813 3.435 1.588 5.004 0.628 1.256 1.311 2.511 1.976 3.767 0.665 1.182 1.219 2.715 2.641 3.158 1.403 0.406 2.788-0.351 3.97-1.053 1.33-0.572 2.53-1.459 3.656-2.197z"></path>
</symbol>
<symbol id="icon-mastercard" viewBox="0 0 52 32">
<path fill="#8b8b8b" style="fill: var(--color3, #8b8b8b)" d="M18.655 28.427h13.828v-24.961h-13.828v24.961z"></path>
<path fill="#bcbcbc" style="fill: var(--color4, #bcbcbc)" d="M19.533 15.946c0-5.064 2.361-9.574 6.036-12.481-2.688-2.126-6.080-3.394-9.767-3.394-8.728 0-15.803 7.107-15.803 15.875s7.075 15.875 15.803 15.875c3.687 0 7.078-1.268 9.767-3.394-3.676-2.907-6.036-7.417-6.036-12.481z"></path>
<path fill="#d9d9d9" style="fill: var(--color5, #d9d9d9)" d="M50.645 25.783v-0.616h-0.16l-0.184 0.424-0.184-0.424h-0.16v0.616h0.113v-0.465l0.173 0.401h0.117l0.173-0.402v0.466h0.113zM49.63 25.783v-0.511h0.205v-0.104h-0.522v0.104h0.205v0.511h0.112zM51.138 15.946c0 8.767-7.075 15.875-15.802 15.875-3.687 0-7.079-1.268-9.767-3.394 3.676-2.906 6.036-7.417 6.036-12.481s-2.36-9.574-6.036-12.481c2.688-2.126 6.080-3.394 9.767-3.394 8.727 0 15.802 7.107 15.802 15.875z"></path>
</symbol>
<symbol id="icon-phone" viewBox="0 0 32 32">
<path fill="none" stroke="#4b6049" style="stroke: var(--color1, #4b6049)" stroke-linejoin="miter" stroke-linecap="butt" stroke-miterlimit="4" stroke-width="0.64" d="M31.68 16c0 8.66-7.020 15.68-15.68 15.68s-15.68-7.020-15.68-15.68c0-8.66 7.020-15.68 15.68-15.68s15.68 7.020 15.68 15.68z"></path>
<path fill="#4b6049" style="fill: var(--color1, #4b6049)" d="M11.54 7.83l0.001 0 0.001 0c0.154 0.014 0.307 0.042 0.457 0.082l0.004 0.001 0.004 0.001c0.183 0.048 0.36 0.114 0.53 0.199l0.315 4.8c-0.41 0.274-0.882 0.437-1.374 0.471l-0.831 0.058 0.211 0.829c0.42 1.654 1.2 3.19 2.279 4.491s2.431 2.334 3.953 3.023l0.728 0.329 0.214-0.787c0.125-0.462 0.365-0.88 0.692-1.215l4.768 1.232c0.041 0.16 0.068 0.324 0.079 0.489l0 0.008 0.001 0.008c0.013 0.15 0.013 0.3 0 0.45-0.146 1.513-1.502 2.659-3.073 2.513-7.35-0.696-12.71-7.189-12.020-14.467l0-0.002 0-0.002c0.135-1.51 1.491-2.658 3.061-2.51zM11.665 6.418c-2.283-0.214-4.348 1.457-4.558 3.789-0.767 8.099 5.196 15.25 13.267 16.014l0.001 0c2.286 0.213 4.348-1.459 4.57-3.789l0-0.002 0-0.002c0.021-0.234 0.021-0.469 0.001-0.703-0.030-0.428-0.126-0.848-0.284-1.245l-0.132-0.332-6.148-1.589-0.266 0.214c-0.469 0.377-0.848 0.852-1.116 1.391-1.070-0.585-2.025-1.372-2.814-2.323-0.781-0.942-1.383-2.024-1.775-3.189 0.583-0.164 1.127-0.455 1.596-0.857l0.27-0.231-0.412-6.283-0.292-0.193c-0.376-0.248-0.789-0.433-1.222-0.546-0.225-0.061-0.454-0.102-0.685-0.123z"></path>
</symbol>
<symbol id="icon-visa" viewBox="0 0 95 32">
<path fill="#bcbcbc" style="fill: var(--color4, #bcbcbc)" d="M41.322 30.65h-7.571l4.736-29.281h7.571l-4.735 29.281z"></path>
<path fill="#bcbcbc" style="fill: var(--color4, #bcbcbc)" d="M68.768 2.085c-1.493-0.592-3.862-1.247-6.791-1.247-7.477 0-12.742 3.987-12.774 9.687-0.062 4.206 3.77 6.542 6.635 7.944 2.929 1.433 3.925 2.368 3.925 3.645-0.030 1.962-2.367 2.866-4.547 2.866-3.023 0-4.642-0.466-7.104-1.558l-0.997-0.468-1.059 6.573c1.776 0.809 5.047 1.527 8.444 1.558 7.944 0 13.116-3.925 13.177-10 0.030-3.333-1.993-5.887-6.355-7.974-2.648-1.34-4.27-2.243-4.27-3.614 0.031-1.246 1.372-2.523 4.361-2.523 2.461-0.063 4.27 0.529 5.64 1.121l0.685 0.311 1.030-6.323z"></path>
<path fill="#bcbcbc" style="fill: var(--color4, #bcbcbc)" d="M78.83 20.277c0.624-1.682 3.023-8.193 3.023-8.193-0.031 0.063 0.622-1.713 0.996-2.803l0.529 2.523c0 0 1.434 7.009 1.745 8.473-1.183 0-4.798 0-6.293 0zM88.176 1.369h-5.856c-1.806 0-3.178 0.529-3.957 2.429l-11.246 26.851h7.944c0 0 1.308-3.614 1.589-4.392 0.871 0 8.6 0 9.721 0 0.217 1.028 0.903 4.392 0.903 4.392h7.010l-6.108-29.281z"></path>
<path fill="#bcbcbc" style="fill: var(--color4, #bcbcbc)" d="M27.428 1.369l-7.415 19.967-0.81-4.050c-1.371-4.673-5.67-9.749-10.468-12.274l6.792 25.606h8.006l11.901-29.25h-8.006z"></path>
<path fill="#d9d9d9" style="fill: var(--color5, #d9d9d9)" d="M13.127 1.369h-12.181l-0.125 0.592c9.502 2.43 15.795 8.287 18.381 15.327l-2.648-13.457c-0.436-1.87-1.776-2.4-3.427-2.461z"></path>
</symbol>
<symbol id="icon-cabinet" viewBox="0 0 32 32">
<path fill="none"  style="stroke: #4b6049" stroke-linejoin="round" stroke-linecap="round" stroke-miterlimit="4" stroke-width="1.7297" d="M15.574 12.993c0.596 0 1.187-0.117 1.738-0.346s1.051-0.563 1.473-0.984c0.422-0.422 0.756-0.922 0.984-1.473s0.346-1.141 0.346-1.738-0.117-1.187-0.346-1.738c-0.228-0.551-0.563-1.051-0.984-1.473s-0.922-0.756-1.473-0.984c-0.551-0.228-1.141-0.346-1.738-0.346-1.204 0-2.359 0.478-3.211 1.33s-1.33 2.006-1.33 3.211c0 1.204 0.478 2.359 1.33 3.211s2.006 1.33 3.211 1.33v0zM3.899 26.485v0.778h23.351v-0.778c0-2.906 0-4.359-0.566-5.469-0.497-0.976-1.291-1.77-2.268-2.268-1.11-0.566-2.563-0.566-5.469-0.566h-6.746c-2.906 0-4.359 0-5.469 0.566-0.976 0.498-1.77 1.291-2.268 2.268-0.566 1.11-0.566 2.563-0.566 5.469z"></path>
</symbol>
<symbol id="icon-instagram" viewBox="0 0 32 32">
<path fill="none" stroke="#4b6049" style="stroke: var(--color1, #4b6049)" stroke-linejoin="miter" stroke-linecap="butt" stroke-miterlimit="4" stroke-width="0.64" d="M31.68 16c0 8.66-7.020 15.68-15.68 15.68s-15.68-7.020-15.68-15.68c0-8.66 7.020-15.68 15.68-15.68s15.68 7.020 15.68 15.68z"></path>
<path fill="#4b6049" style="fill: var(--color1, #4b6049)" d="M10.514 7.771c-1.515 0-2.743 1.228-2.743 2.743v10.971c0 1.515 1.228 2.743 2.743 2.743h10.971c1.515 0 2.743-1.228 2.743-2.743v-10.971c0-1.515-1.228-2.743-2.743-2.743h-10.971zM6.4 10.514c0-2.272 1.842-4.114 4.114-4.114h10.971c2.272 0 4.114 1.842 4.114 4.114v10.971c0 2.272-1.842 4.114-4.114 4.114h-10.971c-2.272 0-4.114-1.842-4.114-4.114v-10.971z"></path>
<path fill="#4b6049" style="fill: var(--color1, #4b6049)" d="M16 12.571c-1.894 0-3.429 1.535-3.429 3.429s1.535 3.429 3.429 3.429c1.894 0 3.429-1.535 3.429-3.429s-1.535-3.429-3.429-3.429zM11.2 16c0-2.651 2.149-4.8 4.8-4.8s4.8 2.149 4.8 4.8c0 2.651-2.149 4.8-4.8 4.8s-4.8-2.149-4.8-4.8z"></path>
<path fill="#4b6049" style="fill: var(--color1, #4b6049)" d="M21.4 10.24c-0.199 0-0.36 0.161-0.36 0.36s0.161 0.36 0.36 0.36c0.199 0 0.36-0.161 0.36-0.36s-0.161-0.36-0.36-0.36zM19.6 10.6c0-0.994 0.806-1.8 1.8-1.8s1.8 0.806 1.8 1.8c0 0.994-0.806 1.8-1.8 1.8s-1.8-0.806-1.8-1.8z"></path>
</symbol>
<symbol id="icon-apay" viewBox="0 0 79 32">
<path fill="#bcbcbc" style="fill: var(--color1, #bcbcbc)" d="M14.794 4.118c-0.912 1.079-2.371 1.93-3.829 1.808-0.182-1.459 0.532-3.009 1.368-3.966 0.912-1.109 2.507-1.9 3.799-1.96 0.152 1.52-0.441 3.009-1.337 4.118zM16.116 6.215c-2.112-0.122-3.921 1.2-4.924 1.2-1.018 0-2.553-1.14-4.225-1.109-2.173 0.030-4.194 1.261-5.303 3.222-2.279 3.921-0.593 9.726 1.611 12.917 1.079 1.58 2.371 3.313 4.073 3.252 1.611-0.061 2.249-1.049 4.194-1.049 1.96 0 2.523 1.049 4.225 1.018 1.763-0.030 2.872-1.58 3.951-3.161 1.231-1.793 1.732-3.541 1.763-3.632-0.030-0.030-3.404-1.322-3.434-5.212-0.030-3.252 2.659-4.802 2.781-4.893-1.52-2.249-3.89-2.492-4.711-2.553zM28.318 1.808v23.691h3.677v-8.1h5.091c4.65 0 7.917-3.191 7.917-7.811s-3.206-7.78-7.796-7.78h-8.89zM31.996 4.908h4.24c3.191 0 5.015 1.702 5.015 4.696s-1.824 4.711-5.030 4.711h-4.224v-9.406zM51.72 25.681c2.31 0 4.453-1.17 5.425-3.024h0.076v2.842h3.404v-11.792c0-3.419-2.735-5.623-6.945-5.623-3.905 0-6.793 2.234-6.899 5.303h3.313c0.273-1.459 1.626-2.416 3.48-2.416 2.249 0 3.51 1.048 3.51 2.978v1.307l-4.589 0.274c-4.27 0.258-6.58 2.006-6.58 5.045 0 3.070 2.386 5.106 5.805 5.106zM52.708 22.87c-1.96 0-3.206-0.942-3.206-2.386 0-1.489 1.2-2.355 3.495-2.492l4.088-0.258v1.337c0 2.219-1.884 3.799-4.376 3.799zM65.169 31.942c3.586 0 5.273-1.368 6.747-5.516l6.458-18.114h-3.738l-4.331 13.996h-0.076l-4.331-13.996h-3.845l6.231 17.248-0.334 1.048c-0.562 1.778-1.474 2.462-3.1 2.462-0.289 0-0.851-0.030-1.079-0.061v2.842c0.213 0.061 1.125 0.091 1.398 0.091z"></path>
</symbol>
<symbol id="icon-expand" viewBox="0 0 69 32">
<path fill="none" stroke="#484847" style="stroke: var(--color1, #484847)" stroke-linejoin="miter" stroke-linecap="butt" stroke-miterlimit="4" stroke-width="5.3333" d="M5.333 5.333l29.333 21.333 29.333-21.333"></path>
</symbol>
<symbol id="icon-arrow_left" viewBox="0 0 32 32">
<path fill="#4b6049" style="fill: var(--color1, #4b6049)" d="M31.083 15h-26.078l6-6-1.414-1.414-8.414 8.414 8.414 8.414 1.414-1.414-6-6h26.078v-2z"></path>
</symbol>
</defs>
</svg>
