<svg width="37" height="37" viewBox="0 0 37 37" fill="none" xmlns="http://www.w3.org/2000/svg">
<path d="M18.0078 15.0234C18.6973 15.0234 19.3799 14.8876 20.0169 14.6238C20.6539 14.36 21.2326 13.9733 21.7201 13.4857C22.2076 12.9982 22.5943 12.4195 22.8582 11.7825C23.122 11.1456 23.2578 10.4629 23.2578 9.77344C23.2578 9.084 23.122 8.40131 22.8582 7.76435C22.5943 7.12739 22.2076 6.54863 21.7201 6.06113C21.2326 5.57362 20.6539 5.18691 20.0169 4.92307C19.3799 4.65923 18.6973 4.52344 18.0078 4.52344C16.6154 4.52344 15.2801 5.07656 14.2955 6.06113C13.3109 7.04569 12.7578 8.38105 12.7578 9.77344C12.7578 11.1658 13.3109 12.5012 14.2955 13.4857C15.2801 14.4703 16.6154 15.0234 18.0078 15.0234V15.0234ZM4.50781 30.6234V31.5234H31.5078V30.6234C31.5078 27.2634 31.5078 25.5834 30.8538 24.2994C30.2786 23.1705 29.3607 22.2527 28.2318 21.6774C26.9478 21.0234 25.2678 21.0234 21.9078 21.0234H14.1078C10.7478 21.0234 9.06781 21.0234 7.78381 21.6774C6.65489 22.2527 5.73704 23.1705 5.16181 24.2994C4.50781 25.5834 4.50781 27.2634 4.50781 30.6234Z" stroke="#4B6049" stroke-width="2" stroke-linecap="round" stroke-linejoin="round"></path>
</svg>
