<svg width="77" height="26" viewBox="0 0 77 26" fill="none" xmlns="http://www.w3.org/2000/svg">
<path d="M33.5739 24.9035H27.4224L31.27 1.11255H37.4213L33.5739 24.9035Z" fill="#BCBCBC"></path>
<path d="M55.874 1.69403C54.6606 1.21265 52.7361 0.681152 50.3565 0.681152C44.2816 0.681152 40.0037 3.9206 39.9775 8.55203C39.927 11.9691 43.0403 13.867 45.3688 15.0064C47.7488 16.1706 48.5578 16.9305 48.5578 17.9683C48.5336 19.5621 46.6347 20.2968 44.8636 20.2968C42.4076 20.2968 41.0916 19.918 39.0918 19.0313L38.2817 18.6512L37.4209 23.9917C38.8637 24.649 41.5218 25.2323 44.2816 25.2579C50.7363 25.2579 54.9385 22.0686 54.9883 17.133C55.0128 14.4248 53.3689 12.3496 49.8246 10.6538C47.6731 9.56524 46.3554 8.83124 46.3554 7.71745C46.3807 6.70491 47.4699 5.66781 49.8987 5.66781C51.8985 5.61702 53.3679 6.09772 54.481 6.57876L55.0374 6.83139L55.874 1.69403Z" fill="#BCBCBC"></path>
<path d="M64.0497 16.4752C64.5563 15.1084 66.5057 9.81869 66.5057 9.81869C66.4802 9.86948 67.0113 8.4267 67.3151 7.54098L67.745 9.59095C67.745 9.59095 68.9099 15.2857 69.1629 16.4752C68.2015 16.4752 65.2648 16.4752 64.0497 16.4752ZM71.6431 1.11255H66.8848C65.4175 1.11255 64.3027 1.54246 63.6696 3.08649L54.5322 24.9031H60.9869C60.9869 24.9031 62.0496 21.9668 62.278 21.3344C62.9861 21.3344 69.2651 21.3344 70.1761 21.3344C70.3527 22.1696 70.9101 24.9031 70.9101 24.9031H76.6059L71.6431 1.11255Z" fill="#BCBCBC"></path>
<path d="M22.2849 1.11255L16.2605 17.3357L15.6021 14.0454C14.4884 10.2489 10.9953 6.1241 7.09717 4.07313L12.6153 24.8782H19.1205L28.7897 1.11255H22.2849Z" fill="#BCBCBC"></path>
<path d="M10.6655 1.11255H0.768245L0.666992 1.59325C8.38751 3.56753 13.5006 8.32646 15.6014 14.0465L13.4499 3.11239C13.0956 1.59292 12.0071 1.16267 10.6655 1.11255Z" fill="#D9D9D9"></path>
</svg>
