<svg width="37" height="37" viewBox="0 0 37 37" fill="none" xmlns="http://www.w3.org/2000/svg">
<g clip-path="url('#clip0_539_3625')">
<path d="M25.0078 12.0391V9.08444C25.0078 8.16375 24.8268 7.25207 24.475 6.40146C24.1232 5.55086 23.6076 4.77798 22.9576 4.12695C22.3075 3.47592 21.5359 2.9595 20.6866 2.60716C19.8373 2.25483 18.9271 2.07349 18.0078 2.07349C17.0886 2.07349 16.1783 2.25483 15.329 2.60716C14.4797 2.9595 13.7081 3.47592 13.0581 4.12695C12.4081 4.77798 11.8924 5.55086 11.5407 6.40146C11.1889 7.25207 11.0078 8.16375 11.0078 9.08444V16.0954C11.0078 16.361 11.1132 16.6158 11.3007 16.8036C11.4882 16.9914 11.7426 17.097 12.0078 17.097C12.273 17.097 12.5274 16.9914 12.7149 16.8036C12.9025 16.6158 13.0078 16.361 13.0078 16.0954V14.0422H21.0078V12.0391H13.0078V9.08444C13.0078 7.75628 13.5346 6.48252 14.4723 5.54337C15.41 4.60423 16.6817 4.07662 18.0078 4.07662C19.3339 4.07662 20.6057 4.60423 21.5433 5.54337C22.481 6.48252 23.0078 7.75628 23.0078 9.08444V16.0453C23.0078 16.3109 23.1132 16.5657 23.3007 16.7535C23.4882 16.9414 23.7426 17.0469 24.0078 17.0469C24.273 17.0469 24.5274 16.9414 24.7149 16.7535C24.9025 16.5657 25.0078 16.3109 25.0078 16.0453V14.0422H30.0078V32.0704H6.00781V14.0422H9.00781V12.0391H4.00781V32.1605C4.00781 32.6679 4.20904 33.1544 4.56724 33.5132C4.92543 33.8719 5.41125 34.0735 5.91781 34.0735H30.0978C30.6044 34.0735 31.0902 33.8719 31.4484 33.5132C31.8066 33.1544 32.0078 32.6679 32.0078 32.1605V12.0391H25.0078Z" fill="#FFFBF5"></path>
</g>
<defs>
<clipPath id="clip0_539_3625">
<rect width="36" height="36" fill="white" transform="translate(0.0078125 0.0234375)"></rect>
</clipPath>
</defs>
</svg>
