<svg width="84" height="34" viewBox="0 0 84 34" fill="none" xmlns="http://www.w3.org/2000/svg">
<g clip-path="url(#clip0_459_5176)">
<path d="M15.7184 4.37555C14.7496 5.52191 13.1996 6.42608 11.6496 6.29692C11.4558 4.74691 12.2147 3.10002 13.1027 2.08283C14.0715 0.904173 15.7668 0.0645838 17.1392 0C17.3007 1.61459 16.671 3.1969 15.7184 4.37555ZM17.1231 6.60369C14.8788 6.47452 12.9574 7.87922 11.8918 7.87922C10.81 7.87922 9.17926 6.66827 7.4032 6.70057C5.09434 6.73286 2.94693 8.04068 1.76827 10.1235C-0.653619 14.2892 1.13858 20.4569 3.47974 23.8476C4.6261 25.5267 5.99851 27.3674 7.80685 27.3028C9.51832 27.2382 10.1965 26.1887 12.2631 26.1887C14.346 26.1887 14.9434 27.3028 16.7517 27.2705C18.6246 27.2382 19.8033 25.5913 20.9496 23.9121C22.2575 22.0069 22.7903 20.1501 22.8226 20.0533C22.7903 20.021 19.2059 18.6486 19.1736 14.5152C19.1413 11.06 21.9991 9.41308 22.1283 9.31621C20.5137 6.92661 17.9949 6.66827 17.1231 6.60369ZM30.0883 1.92137V27.0929H33.9956V18.4871H39.4045C44.3451 18.4871 47.8165 15.0965 47.8165 10.1881C47.8165 5.27972 44.4097 1.92137 39.5336 1.92137H30.0883ZM33.9956 5.21514H38.5003C41.8909 5.21514 43.8284 7.02348 43.8284 10.2042C43.8284 13.385 41.8909 15.2095 38.4841 15.2095H33.9956V5.21514ZM54.953 27.2866C57.4072 27.2866 59.6838 26.0434 60.7171 24.0736H60.7978V27.0929H64.4145V14.5636C64.4145 10.9308 61.5083 8.58964 57.0358 8.58964C52.8863 8.58964 49.8186 10.9631 49.7056 14.2246H53.2254C53.516 12.6746 54.953 11.6574 56.9228 11.6574C59.3124 11.6574 60.6525 12.7714 60.6525 14.822V16.2105L55.7764 16.5012C51.2394 16.7756 48.7852 18.6324 48.7852 21.8616C48.7852 25.1231 51.3202 27.2866 54.953 27.2866ZM56.0025 24.2996C53.9197 24.2996 52.5957 23.2986 52.5957 21.7647C52.5957 20.1824 53.8712 19.2621 56.3093 19.1168L60.6525 18.8423V20.2632C60.6525 22.6205 58.6504 24.2996 56.0025 24.2996ZM69.2422 33.9388C73.0526 33.9388 74.8448 32.4856 76.4109 28.0778L83.273 8.83183H79.3011L74.6995 23.7022H74.6188L70.0172 8.83183H65.9322L72.5521 27.1575L72.1969 28.2715C71.5995 30.1606 70.6307 30.8872 68.9031 30.8872C68.5963 30.8872 67.9989 30.8549 67.7567 30.8226V33.8419C67.9828 33.9065 68.9515 33.9388 69.2422 33.9388Z" fill="#BCBCBC"/>
</g>
<defs>
<clipPath id="clip0_459_5176">
<rect width="82.6672" height="33.9388" fill="white" transform="translate(0.605469)"/>
</clipPath>
</defs>
</svg>
